<?xml version="1.0" encoding="utf-8"?>
<!-- Generator: Adobe Illustrator 28.4.1, SVG Export Plug-In . SVG Version: 6.00 Build 0)  -->
<svg version="1.0" id="katman_1" xmlns="http://www.w3.org/2000/svg" xmlns:xlink="http://www.w3.org/1999/xlink" x="0px" y="0px"
	 viewBox="0 0 52.8 51.1" style="enable-background:new 0 0 52.8 51.1;" xml:space="preserve">
<path d="M35,45.2c-0.4-1-1.1-1.8-2-2.5C22.7,32.3,12.4,22,2,11.6C0.4,10-0.6,2.9,0.4,1c0.5-0.9,1.3-0.9,2.2-0.9h7.5
	c1.7,0,2.7,1,3.8,2.1c10.2,10.2,20.4,20.4,30.6,30.6c0.7,0.7,1.2,2,2.3,1.5c0.8-0.4,0.3-1.7,0.4-2.5c0.2-1.8-0.7-3.1-1.9-4.4
	C37,19.1,28.7,10.9,20.5,2.6c-0.5-0.5-1.6-1-1.2-2s1.5-0.5,2.3-0.6h28c2.2,0,3.2,0.7,3.2,3c-0.1,5,0,10,0,15c0,0.6,0.3,1.5-0.5,1.8
	S51,19.4,50.5,19c-3.7-3.6-7.5-7.2-10.9-11c-2.2-2.5-4.7-2.8-7.6-2.3c-0.1,1.2,0.9,1.6,1.5,2.2c5.7,5.7,11.4,11.5,17.1,17.1
	c1.5,1.3,2.3,3.3,2.2,5.3c-0.1,4.7,0,9.5,0,14.2c0,1,0.5,2.3-0.5,2.8s-1.7-0.8-2.3-1.5C37.1,33.1,24.3,20.3,11.5,7.5
	c-0.9-0.9-1.8-2-3.3-2C7.4,5.5,6.4,5.3,6,6.2C5.6,7.1,5.8,8,6.5,8.5c0.5,0.6,1,1.1,1.6,1.6C20.7,22.8,33.3,35.4,45.9,48
	c0.7,0.7,2,1.3,1.6,2.3c-0.5,1.2-1.9,0.6-3,0.7c-4.4,0-8.8-0.1-13.2,0.1c-2.5,0.2-5-0.8-6.6-2.7c-5.5-5.8-11.2-11.3-16.9-17
	c-0.5-0.5-0.9-1.3-1.6-1.1c-0.9,0.3-0.4,1.3-0.5,2c-0.3,1.9,0.5,3.9,2,5.1c3.8,3.6,7.5,7.4,11.1,11.1c0.5,0.5,1.6,1,1.2,2
	S18.5,51,17.7,51c-4.8,0-9.7-0.1-14.5,0c-2.3,0-3.1-0.8-3.1-3.1c0.1-9.4,0-18.8,0-28.2c0-0.8-0.3-1.9,0.7-2.2
	c0.8-0.3,1.3,0.7,1.8,1.2c8,8,16.1,15.9,24,24.1C29.1,45.3,31.6,45.9,35,45.2z"/>
</svg>
