<svg version="1.2" xmlns="http://www.w3.org/2000/svg" viewBox="0 0 500 500" width="500" height="500"><style>.a{fill:#e0e0e0}.b{fill:#f0f0f0}.c{fill:#f5f5f5}.d{fill:#fff}.e{fill:#ebebeb}.f{fill:#e6e6e6}.g{fill:#263238}.h{opacity:.3}.i{fill:#38d28e}.j{opacity:.7;fill:#fff}.k{fill:#d7504d}.l{opacity:.3;fill:#fff}</style><path class="a" d="m168 396.6h-49.7c-0.1 0-0.2-0.1-0.2-0.2 0-0.2 0.1-0.3 0.2-0.3h49.7c0.1 0 0.3 0.1 0.3 0.3 0 0.1-0.2 0.2-0.3 0.2z"/><path class="a" d="m150 402.1h-71.7c-0.2 0-0.3-0.1-0.3-0.2 0-0.2 0.1-0.3 0.3-0.3h71.7c0.2 0 0.3 0.1 0.3 0.3 0 0.1-0.1 0.2-0.3 0.2z"/><path class="a" d="m411.9 399.6h-52c-0.2 0-0.3-0.1-0.3-0.2 0-0.2 0.1-0.3 0.3-0.3h52c0.1 0 0.2 0.1 0.2 0.3 0 0.1-0.1 0.2-0.2 0.2z"/><path class="a" d="m397.5 405.6h-62.9c-0.2 0-0.3-0.1-0.3-0.3 0-0.1 0.1-0.2 0.3-0.2h62.9c0.1 0 0.2 0.1 0.2 0.2 0 0.2-0.1 0.3-0.2 0.3z"/><path fill-rule="evenodd" class="a" d="m443.9 242.1h-180.7c-3.3 0-5.9-2.3-5.9-5v-225c0-2.8 2.6-5 5.9-5h180.7c3.3 0 5.9 2.2 5.9 5v225c0 2.7-2.6 5-5.9 5zm-180.7-234.8c-3.1 0-5.6 2.1-5.6 4.8v225c0 2.6 2.5 4.8 5.6 4.8h180.7c3.1 0 5.6-2.2 5.6-4.8v-225c0-2.7-2.5-4.8-5.6-4.8z"/><path fill-rule="evenodd" class="a" d="m235.5 242.1h-180.8c-3.2 0-5.8-2.3-5.8-5v-225c0-2.8 2.6-5 5.8-5h180.8c3.2 0 5.9 2.2 5.9 5v225c0 2.7-2.7 5-5.9 5zm-180.8-234.8c-3 0-5.6 2.1-5.6 4.8v225c0 2.6 2.6 4.8 5.6 4.8h180.8c3.1 0 5.6-2.2 5.6-4.8v-225c0-2.7-2.5-4.8-5.6-4.8z"/><path class="a" d="m0 274.6h500v0.2h-500z"/><path class="a" d="m51.7 291.6h16v0.3h-16z"/><path class="a" d="m170.4 288.9h53.5v0.3h-53.5z"/><path class="a" d="m68.7 300.9h36.3v0.3h-36.3z"/><path class="a" d="m378.4 288.8h43.1v0.2h-43.1z"/><path class="a" d="m430.5 288.8h6.3v0.2h-6.3z"/><path class="a" d="m316.2 295h53.9v0.3h-53.9z"/><path class="b" d="m273.3 22.3c-1.5-1.1-3.6-1.3-5.2-0.3-2.1-4.3-7.9-6.1-12-3.9-1.1-4.5-5.6-8-10.3-8-4.6 0.1-9 3.7-10 8.2-0.1 0.8-0.3 1.6-0.8 2.1-0.8 0.9-2.2 0.6-3.4 0.5-3.8-0.3-7.6 2.3-8.6 6l52-0.2c0.5-1.8-0.3-3.3-1.7-4.4z"/><path class="c" d="m457.9 198.2v-0.6h-0.9v-25.8h-5.2v-6.8h-11.9v-23h-6.6v-16.3h-8v-23.8h-2.9v23.8h-8v16.3h-6.5v23h-12v6.8h-5.1v26.4h-1.8v-36.8h-2.9v23.6h-3.2v-56.2h-2.8v23.6h-8.1v-8.8h-3.8v-32h-2.2v-0.6h-3.8v-32h-2.8v4.7h-44.5v-14.3h-7.6v-50.9h-3v50.9h-10.5v14.3h-4.9v67.5h-22.8v-20.3h8.1v-3.9h-8.1v-5.1h-21.7v-51.7h-5.4v-7.8h-25.5v7.8h-3.8v71.4h-12v33.2h-6.1v-26.4h-5.1v-6.8h-12v-23h-6.5v-16.3h-8v-23.8h-2.9v23.8h-8v16.3h-6.6v23h-11.9v6.8h-5.2v26.4h-7.8v-69.4h-2.9v23.6h-10.3v45.8h-3.8v-87.2h-3.8v-32h-2.7v11.3l-19.6 9.5v11.2h-9.1v87.2h-6.4v25.1h-4.3l-3 64.6 408.7 1v-67.3h-2.5z"/><path class="d" d="m331.5 86.9h3.1v3.2h-3.1z"/><path class="d" d="m331.5 92.2h3.1v3.2h-3.1z"/><path class="d" d="m331.5 113.6h3.1v3.2h-3.1z"/><path class="d" d="m331.5 118.9h3.1v3.2h-3.1z"/><path class="d" d="m331.5 124.3h3.1v3.1h-3.1z"/><path class="d" d="m331.5 140.3h3.1v3.2h-3.1z"/><path class="d" d="m331.5 145.6h3.1v3.2h-3.1z"/><path class="d" d="m326.6 108.2h3.1v3.2h-3.1z"/><path class="d" d="m326.6 113.6h3.1v3.2h-3.1z"/><path class="d" d="m326.6 118.9h3.1v3.2h-3.1z"/><path class="d" d="m326.6 124.3h3.1v3.1h-3.1z"/><path class="d" d="m326.6 129.6h3.1v3.2h-3.1z"/><path class="d" d="m326.6 140.3h3.1v3.2h-3.1z"/><path class="d" d="m326.6 145.6h3.1v3.2h-3.1z"/><path class="d" d="m321.8 86.9h3v3.2h-3z"/><path class="d" d="m321.8 92.2h3v3.2h-3z"/><path class="d" d="m321.8 97.6h3v3.1h-3z"/><path class="d" d="m321.8 102.9h3v3.2h-3z"/><path class="d" d="m321.8 108.2h3v3.2h-3z"/><path class="d" d="m321.8 113.6h3v3.2h-3z"/><path class="d" d="m321.8 118.9h3v3.2h-3z"/><path class="d" d="m321.8 124.3h3v3.1h-3z"/><path class="d" d="m321.8 129.6h3v3.2h-3z"/><path class="d" d="m321.8 134.9h3v3.2h-3z"/><path class="d" d="m321.8 145.6h3v3.2h-3z"/><path class="d" d="m316.9 86.9h3.1v3.2h-3.1z"/><path class="d" d="m316.9 92.2h3.1v3.2h-3.1z"/><path class="d" d="m316.9 97.6h3.1v3.1h-3.1z"/><path class="d" d="m316.9 102.9h3.1v3.2h-3.1z"/><path class="d" d="m316.9 108.2h3.1v3.2h-3.1z"/><path class="d" d="m316.9 113.6h3.1v3.2h-3.1z"/><path class="d" d="m316.9 118.9h3.1v3.2h-3.1z"/><path class="d" d="m316.9 167h3.1v3.2h-3.1z"/><path class="d" d="m312 86.9h3.1v3.2h-3.1z"/><path class="d" d="m312 92.2h3.1v3.2h-3.1z"/><path class="d" d="m312 97.6h3.1v3.1h-3.1z"/><path class="d" d="m312 102.9h3.1v3.2h-3.1z"/><path class="d" d="m312 108.2h3.1v3.2h-3.1z"/><path class="d" d="m312 113.6h3.1v3.2h-3.1z"/><path class="d" d="m312 118.9h3.1v3.2h-3.1z"/><path class="d" d="m312 124.3h3.1v3.1h-3.1z"/><path class="d" d="m312 156.3h3.1v3.2h-3.1z"/><path class="d" d="m312 161.6h3.1v3.2h-3.1z"/><path class="d" d="m312 167h3.1v3.2h-3.1z"/><path class="d" d="m312 172.3h3.1v3.2h-3.1z"/><path class="d" d="m312 193.7h3.1v3.2h-3.1z"/><path class="d" d="m307.1 86.9h3.1v3.2h-3.1z"/><path class="d" d="m307.1 92.2h3.1v3.2h-3.1z"/><path class="d" d="m307.1 97.6h3.1v3.1h-3.1z"/><path class="d" d="m307.1 102.9h3.1v3.2h-3.1z"/><path class="d" d="m307.1 108.2h3.1v3.2h-3.1z"/><path class="d" d="m307.1 113.6h3.1v3.2h-3.1z"/><path class="d" d="m307.1 118.9h3.1v3.2h-3.1z"/><path class="d" d="m307.1 124.3h3.1v3.1h-3.1z"/><path class="d" d="m307.1 129.6h3.1v3.2h-3.1z"/><path class="d" d="m307.1 134.9h3.1v3.2h-3.1z"/><path class="d" d="m307.1 151h3.1v3.1h-3.1z"/><path class="d" d="m307.1 156.3h3.1v3.2h-3.1z"/><path class="d" d="m307.1 161.6h3.1v3.2h-3.1z"/><path class="d" d="m307.1 167h3.1v3.2h-3.1z"/><path class="d" d="m307.1 172.3h3.1v3.2h-3.1z"/><path class="d" d="m307.1 193.7h3.1v3.2h-3.1z"/><path class="d" d="m302.2 86.9h3.1v3.2h-3.1z"/><path class="d" d="m302.2 92.2h3.1v3.2h-3.1z"/><path class="d" d="m302.2 97.6h3.1v3.1h-3.1z"/><path class="d" d="m302.2 102.9h3.1v3.2h-3.1z"/><path class="d" d="m302.2 108.2h3.1v3.2h-3.1z"/><path class="d" d="m302.2 113.6h3.1v3.2h-3.1z"/><path class="d" d="m302.2 118.9h3.1v3.2h-3.1z"/><path class="d" d="m302.2 124.3h3.1v3.1h-3.1z"/><path class="d" d="m302.2 129.6h3.1v3.2h-3.1z"/><path class="d" d="m302.2 134.9h3.1v3.2h-3.1z"/><path class="d" d="m302.2 140.3h3.1v3.2h-3.1z"/><path class="d" d="m302.2 145.6h3.1v3.2h-3.1z"/><path class="d" d="m302.2 151h3.1v3.1h-3.1z"/><path class="d" d="m302.2 156.3h3.1v3.2h-3.1z"/><path class="d" d="m302.2 161.6h3.1v3.2h-3.1z"/><path class="d" d="m302.2 167h3.1v3.2h-3.1z"/><path class="d" d="m302.2 172.3h3.1v3.2h-3.1z"/><path class="d" d="m302.2 177.7h3.1v3.2h-3.1z"/><path class="d" d="m297.4 86.9h3v3.2h-3z"/><path class="d" d="m297.4 92.2h3v3.2h-3z"/><path class="d" d="m297.4 97.6h3v3.1h-3z"/><path class="d" d="m297.4 102.9h3v3.2h-3z"/><path class="d" d="m297.4 108.2h3v3.2h-3z"/><path class="d" d="m297.4 113.6h3v3.2h-3z"/><path class="d" d="m297.4 118.9h3v3.2h-3z"/><path class="d" d="m297.4 124.3h3v3.1h-3z"/><path class="d" d="m297.4 129.6h3v3.2h-3z"/><path class="d" d="m297.4 134.9h3v3.2h-3z"/><path class="d" d="m297.4 151h3v3.1h-3z"/><path class="d" d="m297.4 156.3h3v3.2h-3z"/><path class="d" d="m297.4 161.6h3v3.2h-3z"/><path class="d" d="m297.4 167h3v3.2h-3z"/><path class="d" d="m292.5 86.9h3v3.2h-3z"/><path class="d" d="m292.5 92.2h3v3.2h-3z"/><path class="d" d="m292.5 97.6h3v3.1h-3z"/><path class="d" d="m292.5 102.9h3v3.2h-3z"/><path class="d" d="m292.5 108.2h3v3.2h-3z"/><path class="d" d="m292.5 113.6h3v3.2h-3z"/><path class="d" d="m292.5 118.9h3v3.2h-3z"/><path class="d" d="m292.5 124.3h3v3.1h-3z"/><path class="d" d="m292.5 129.6h3v3.2h-3z"/><path class="d" d="m292.5 134.9h3v3.2h-3z"/><path class="d" d="m292.5 151h3v3.1h-3z"/><path class="d" d="m292.5 156.3h3v3.2h-3z"/><path class="d" d="m292.5 161.6h3v3.2h-3z"/><path class="d" d="m237.5 73h3.1v3.2h-3.1z"/><path class="d" d="m237.5 78.3h3.1v3.2h-3.1z"/><path class="d" d="m237.5 83.7h3.1v3.2h-3.1z"/><path class="d" d="m237.5 89h3.1v3.2h-3.1z"/><path class="d" d="m237.5 94.4h3.1v3.2h-3.1z"/><path class="d" d="m237.5 99.7h3.1v3.2h-3.1z"/><path class="d" d="m237.5 105h3.1v3.2h-3.1z"/><path class="d" d="m237.5 110.4h3.1v3.2h-3.1z"/><path class="d" d="m237.5 126.4h3.1v3.2h-3.1z"/><path class="d" d="m237.5 131.7h3.1v3.2h-3.1z"/><path class="d" d="m232.6 73h3.1v3.2h-3.1z"/><path class="d" d="m232.6 78.3h3.1v3.2h-3.1z"/><path class="d" d="m232.6 83.7h3.1v3.2h-3.1z"/><path class="d" d="m232.6 89h3.1v3.2h-3.1z"/><path class="d" d="m232.6 94.4h3.1v3.2h-3.1z"/><path class="d" d="m232.6 99.7h3.1v3.2h-3.1z"/><path class="d" d="m232.6 105h3.1v3.2h-3.1z"/><path class="d" d="m232.6 110.4h3.1v3.2h-3.1z"/><path class="d" d="m232.6 131.7h3.1v3.2h-3.1z"/><path class="d" d="m227.7 73h3.1v3.2h-3.1z"/><path class="d" d="m227.7 78.3h3.1v3.2h-3.1z"/><path class="d" d="m227.7 83.7h3.1v3.2h-3.1z"/><path class="d" d="m227.7 89h3.1v3.2h-3.1z"/><path class="d" d="m227.7 94.4h3.1v3.2h-3.1z"/><path class="d" d="m227.7 99.7h3.1v3.2h-3.1z"/><path class="d" d="m227.7 105h3.1v3.2h-3.1z"/><path class="d" d="m227.7 110.4h3.1v3.2h-3.1z"/><path class="d" d="m222.8 73h3.1v3.2h-3.1z"/><path class="d" d="m222.8 78.3h3.1v3.2h-3.1z"/><path class="d" d="m222.8 83.7h3.1v3.2h-3.1z"/><path class="d" d="m222.8 89h3.1v3.2h-3.1z"/><path class="d" d="m222.8 94.4h3.1v3.2h-3.1z"/><path class="d" d="m222.8 99.7h3.1v3.2h-3.1z"/><path class="d" d="m222.8 110.4h3.1v3.2h-3.1z"/><path class="d" d="m222.8 115.7h3.1v3.2h-3.1z"/><path class="d" d="m222.8 131.7h3.1v3.2h-3.1z"/><path class="d" d="m222.8 137.1h3.1v3.2h-3.1z"/><path class="d" d="m222.8 142.4h3.1v3.2h-3.1z"/><path class="d" d="m222.8 147.8h3.1v3.2h-3.1z"/><path class="d" d="m222.8 153.1h3.1v3.2h-3.1z"/><path class="d" d="m222.8 158.5h3.1v3.1h-3.1z"/><path class="d" d="m222.8 163.8h3.1v3.2h-3.1z"/><path class="d" d="m218 73h3v3.2h-3z"/><path class="d" d="m218 78.3h3v3.2h-3z"/><path class="d" d="m218 83.7h3v3.2h-3z"/><path class="d" d="m218 89h3v3.2h-3z"/><path class="d" d="m218 94.4h3v3.2h-3z"/><path class="d" d="m218 99.7h3v3.2h-3z"/><path class="d" d="m218 115.7h3v3.2h-3z"/><path class="d" d="m218 121.1h3v3.1h-3z"/><path class="d" d="m218 126.4h3v3.2h-3z"/><path class="d" d="m218 131.7h3v3.2h-3z"/><path class="d" d="m218 137.1h3v3.2h-3z"/><path class="d" d="m218 142.4h3v3.2h-3z"/><path class="d" d="m218 147.8h3v3.2h-3z"/><path class="d" d="m218 153.1h3v3.2h-3z"/><path class="d" d="m218 158.5h3v3.1h-3z"/><path class="d" d="m218 163.8h3v3.2h-3z"/><path class="d" d="m218 169.1h3v3.2h-3z"/><path class="d" d="m218 179.8h3v3.2h-3z"/><path class="d" d="m213.1 73h3.1v3.2h-3.1z"/><path class="d" d="m213.1 78.3h3.1v3.2h-3.1z"/><path class="d" d="m213.1 83.7h3.1v3.2h-3.1z"/><path class="d" d="m213.1 89h3.1v3.2h-3.1z"/><path class="d" d="m213.1 94.4h3.1v3.2h-3.1z"/><path class="d" d="m213.1 99.7h3.1v3.2h-3.1z"/><path class="d" d="m213.1 115.7h3.1v3.2h-3.1z"/><path class="d" d="m213.1 121.1h3.1v3.1h-3.1z"/><path class="d" d="m213.1 126.4h3.1v3.2h-3.1z"/><path class="d" d="m213.1 131.7h3.1v3.2h-3.1z"/><path class="d" d="m213.1 147.8h3.1v3.2h-3.1z"/><path class="d" d="m213.1 153.1h3.1v3.2h-3.1z"/><path class="d" d="m213.1 158.5h3.1v3.1h-3.1z"/><path class="d" d="m213.1 163.8h3.1v3.2h-3.1z"/><path class="d" d="m213.1 169.1h3.1v3.2h-3.1z"/><path class="d" d="m213.1 179.8h3.1v3.2h-3.1z"/><path class="d" d="m213.1 185.2h3.1v3.1h-3.1z"/><path class="d" d="m168.8 122.7h3v3.2h-3z"/><path class="d" d="m168.8 128h3v3.2h-3z"/><path class="d" d="m168.8 133.3h3v3.2h-3z"/><path class="d" d="m168.8 138.7h3v3.2h-3z"/><path class="d" d="m168.8 144h3v3.2h-3z"/><path class="d" d="m168.8 149.4h3v3.1h-3z"/><path class="d" d="m168.8 154.7h3v3.2h-3z"/><path class="d" d="m168.8 170.7h3v3.2h-3z"/><path class="d" d="m168.8 176.1h3v3.2h-3z"/><path class="d" d="m168.8 181.4h3v3.2h-3z"/><path class="d" d="m163.9 122.7h3.1v3.2h-3.1z"/><path class="d" d="m163.9 128h3.1v3.2h-3.1z"/><path class="d" d="m163.9 133.3h3.1v3.2h-3.1z"/><path class="d" d="m163.9 138.7h3.1v3.2h-3.1z"/><path class="d" d="m163.9 144h3.1v3.2h-3.1z"/><path class="d" d="m163.9 149.4h3.1v3.1h-3.1z"/><path class="d" d="m163.9 154.7h3.1v3.2h-3.1z"/><path class="d" d="m159 122.7h3.1v3.2h-3.1z"/><path class="d" d="m159 128h3.1v3.2h-3.1z"/><path class="d" d="m159 133.3h3.1v3.2h-3.1z"/><path class="d" d="m159 138.7h3.1v3.2h-3.1z"/><path class="d" d="m159 144h3.1v3.2h-3.1z"/><path class="d" d="m159 149.4h3.1v3.1h-3.1z"/><path class="d" d="m159 154.7h3.1v3.2h-3.1z"/><path class="d" d="m154.1 122.7h3.1v3.2h-3.1z"/><path class="d" d="m154.1 128h3.1v3.2h-3.1z"/><path class="d" d="m154.1 133.3h3.1v3.2h-3.1z"/><path class="d" d="m154.1 138.7h3.1v3.2h-3.1z"/><path class="d" d="m154.1 144h3.1v3.2h-3.1z"/><path class="d" d="m154.1 149.4h3.1v3.1h-3.1z"/><path class="d" d="m154.1 154.7h3.1v3.2h-3.1z"/><path class="d" d="m154.1 160h3.1v3.2h-3.1z"/><path class="d" d="m154.1 165.4h3.1v3.2h-3.1z"/><path class="d" d="m154.1 170.7h3.1v3.2h-3.1z"/><path class="d" d="m154.1 176.1h3.1v3.2h-3.1z"/><path class="d" d="m149.2 122.7h3.1v3.2h-3.1z"/><path class="d" d="m149.2 128h3.1v3.2h-3.1z"/><path class="d" d="m149.2 133.3h3.1v3.2h-3.1z"/><path class="d" d="m149.2 138.7h3.1v3.2h-3.1z"/><path class="d" d="m149.2 144h3.1v3.2h-3.1z"/><path class="d" d="m149.2 149.4h3.1v3.1h-3.1z"/><path class="d" d="m149.2 154.7h3.1v3.2h-3.1z"/><path class="d" d="m149.2 160h3.1v3.2h-3.1z"/><path class="d" d="m149.2 165.4h3.1v3.2h-3.1z"/><path class="d" d="m149.2 170.7h3.1v3.2h-3.1z"/><path class="d" d="m149.2 176.1h3.1v3.2h-3.1z"/><path class="d" d="m149.2 181.4h3.1v3.2h-3.1z"/><path class="d" d="m149.2 197.4h3.1v3.2h-3.1z"/><path class="d" d="m149.2 202.8h3.1v3.2h-3.1z"/><path class="d" d="m144.4 122.7h3v3.2h-3z"/><path class="d" d="m144.4 128h3v3.2h-3z"/><path class="d" d="m144.4 133.3h3v3.2h-3z"/><path class="d" d="m144.4 149.4h3v3.1h-3z"/><path class="d" d="m144.4 154.7h3v3.2h-3z"/><path class="d" d="m144.4 160h3v3.2h-3z"/><path class="d" d="m144.4 165.4h3v3.2h-3z"/><path class="d" d="m144.4 170.7h3v3.2h-3z"/><path class="d" d="m144.4 176.1h3v3.2h-3z"/><path class="d" d="m144.4 181.4h3v3.2h-3z"/><path class="d" d="m144.4 197.4h3v3.2h-3z"/><path class="d" d="m144.4 202.8h3v3.2h-3z"/><path class="d" d="m144.4 208.1h3v3.2h-3z"/><path class="d" d="m93.2 90.6h3.1v3.2h-3.1z"/><path class="d" d="m93.2 96h3.1v3.1h-3.1z"/><path class="d" d="m93.2 101.3h3.1v3.2h-3.1z"/><path class="d" d="m93.2 106.6h3.1v3.2h-3.1z"/><path class="d" d="m93.2 112h3.1v3.2h-3.1z"/><path class="d" d="m93.2 117.3h3.1v3.2h-3.1z"/><path class="d" d="m93.2 122.7h3.1v3.2h-3.1z"/><path class="d" d="m93.2 128h3.1v3.2h-3.1z"/><path class="d" d="m93.2 133.3h3.1v3.2h-3.1z"/><path class="d" d="m93.2 138.7h3.1v3.2h-3.1z"/><path class="d" d="m93.2 144h3.1v3.2h-3.1z"/><path class="d" d="m93.2 149.4h3.1v3.1h-3.1z"/><path class="d" d="m93.2 154.7h3.1v3.2h-3.1z"/><path class="d" d="m93.2 160h3.1v3.2h-3.1z"/><path class="d" d="m93.2 165.4h3.1v3.2h-3.1z"/><path class="d" d="m93.2 170.7h3.1v3.2h-3.1z"/><path class="d" d="m93.2 176.1h3.1v3.2h-3.1z"/><path class="d" d="m93.2 181.4h3.1v3.2h-3.1z"/><path class="d" d="m93.2 186.8h3.1v3.1h-3.1z"/><path class="d" d="m93.2 192.1h3.1v3.2h-3.1z"/><path class="d" d="m93.2 197.4h3.1v3.2h-3.1z"/><path class="d" d="m93.2 202.8h3.1v3.2h-3.1z"/><path class="d" d="m93.2 208.1h3.1v3.2h-3.1z"/><path class="d" d="m88.3 90.6h3.1v3.2h-3.1z"/><path class="d" d="m88.3 96h3.1v3.1h-3.1z"/><path class="d" d="m88.3 101.3h3.1v3.2h-3.1z"/><path class="d" d="m88.3 106.6h3.1v3.2h-3.1z"/><path class="d" d="m88.3 112h3.1v3.2h-3.1z"/><path class="d" d="m88.3 117.3h3.1v3.2h-3.1z"/><path class="d" d="m88.3 122.7h3.1v3.2h-3.1z"/><path class="d" d="m88.3 128h3.1v3.2h-3.1z"/><path class="d" d="m88.3 133.3h3.1v3.2h-3.1z"/><path class="d" d="m88.3 138.7h3.1v3.2h-3.1z"/><path class="d" d="m88.3 144h3.1v3.2h-3.1z"/><path class="d" d="m88.3 149.4h3.1v3.1h-3.1z"/><path class="d" d="m88.3 154.7h3.1v3.2h-3.1z"/><path class="d" d="m88.3 160h3.1v3.2h-3.1z"/><path class="d" d="m88.3 165.4h3.1v3.2h-3.1z"/><path class="d" d="m88.3 170.7h3.1v3.2h-3.1z"/><path class="d" d="m88.3 176.1h3.1v3.2h-3.1z"/><path class="d" d="m88.3 181.4h3.1v3.2h-3.1z"/><path class="d" d="m88.3 186.8h3.1v3.1h-3.1z"/><path class="d" d="m83.4 90.6h3.1v3.2h-3.1z"/><path class="d" d="m83.4 96h3.1v3.1h-3.1z"/><path class="d" d="m83.4 101.3h3.1v3.2h-3.1z"/><path class="d" d="m83.4 106.6h3.1v3.2h-3.1z"/><path class="d" d="m83.4 112h3.1v3.2h-3.1z"/><path class="d" d="m83.4 117.3h3.1v3.2h-3.1z"/><path class="d" d="m83.4 122.7h3.1v3.2h-3.1z"/><path class="d" d="m83.4 128h3.1v3.2h-3.1z"/><path class="d" d="m83.4 133.3h3.1v3.2h-3.1z"/><path class="d" d="m83.4 138.7h3.1v3.2h-3.1z"/><path class="d" d="m83.4 144h3.1v3.2h-3.1z"/><path class="d" d="m83.4 149.4h3.1v3.1h-3.1z"/><path class="d" d="m83.4 154.7h3.1v3.2h-3.1z"/><path class="d" d="m83.4 160h3.1v3.2h-3.1z"/><path class="d" d="m83.4 165.4h3.1v3.2h-3.1z"/><path class="d" d="m83.4 170.7h3.1v3.2h-3.1z"/><path class="d" d="m83.4 176.1h3.1v3.2h-3.1z"/><path class="d" d="m83.4 181.4h3.1v3.2h-3.1z"/><path class="d" d="m83.4 186.8h3.1v3.1h-3.1z"/><path class="d" d="m78.5 90.6h3.1v3.2h-3.1z"/><path class="d" d="m78.5 96h3.1v3.1h-3.1z"/><path class="d" d="m78.5 101.3h3.1v3.2h-3.1z"/><path class="d" d="m78.5 106.6h3.1v3.2h-3.1z"/><path class="d" d="m78.5 112h3.1v3.2h-3.1z"/><path class="d" d="m78.5 117.3h3.1v3.2h-3.1z"/><path class="d" d="m78.5 122.7h3.1v3.2h-3.1z"/><path class="d" d="m78.5 128h3.1v3.2h-3.1z"/><path class="d" d="m78.5 133.3h3.1v3.2h-3.1z"/><path class="d" d="m78.5 138.7h3.1v3.2h-3.1z"/><path class="d" d="m78.5 144h3.1v3.2h-3.1z"/><path class="d" d="m78.5 149.4h3.1v3.1h-3.1z"/><path class="d" d="m78.5 154.7h3.1v3.2h-3.1z"/><path class="d" d="m78.5 160h3.1v3.2h-3.1z"/><path class="d" d="m78.5 165.4h3.1v3.2h-3.1z"/><path class="d" d="m73.7 90.6h3v3.2h-3z"/><path class="d" d="m73.7 96h3v3.1h-3z"/><path class="d" d="m73.7 101.3h3v3.2h-3z"/><path class="d" d="m73.7 106.6h3v3.2h-3z"/><path class="d" d="m73.7 112h3v3.2h-3z"/><path class="d" d="m73.7 117.3h3v3.2h-3z"/><path class="d" d="m73.7 122.7h3v3.2h-3z"/><path class="d" d="m73.7 128h3v3.2h-3z"/><path class="d" d="m73.7 133.3h3v3.2h-3z"/><path class="d" d="m73.7 138.7h3v3.2h-3z"/><path class="d" d="m73.7 144h3v3.2h-3z"/><path class="d" d="m73.7 149.4h3v3.1h-3z"/><path class="d" d="m73.7 154.7h3v3.2h-3z"/><path class="d" d="m68.8 90.6h3.1v3.2h-3.1z"/><path class="d" d="m68.8 96h3.1v3.1h-3.1z"/><path class="d" d="m68.8 101.3h3.1v3.2h-3.1z"/><path class="d" d="m68.8 106.6h3.1v3.2h-3.1z"/><path class="d" d="m68.8 112h3.1v3.2h-3.1z"/><path class="d" d="m68.8 117.3h3.1v3.2h-3.1z"/><path class="d" d="m68.8 122.7h3.1v3.2h-3.1z"/><path class="d" d="m68.8 128h3.1v3.2h-3.1z"/><path class="d" d="m68.8 133.3h3.1v3.2h-3.1z"/><path class="d" d="m68.8 138.7h3.1v3.2h-3.1z"/><path class="d" d="m68.8 144h3.1v3.2h-3.1z"/><path class="d" d="m68.8 149.4h3.1v3.1h-3.1z"/><path class="d" d="m427.6 129.6h3v3.2h-3z"/><path class="d" d="m427.6 134.9h3v3.2h-3z"/><path class="d" d="m427.6 140.3h3v3.2h-3z"/><path class="d" d="m427.6 145.6h3v3.2h-3z"/><path class="d" d="m427.6 151h3v3.1h-3z"/><path class="d" d="m427.6 156.3h3v3.2h-3z"/><path class="d" d="m427.6 161.6h3v3.2h-3z"/><path class="d" d="m427.6 167h3v3.2h-3z"/><path class="d" d="m427.6 172.3h3v3.2h-3z"/><path class="d" d="m427.6 177.7h3v3.2h-3z"/><path class="d" d="m427.6 183h3v3.2h-3z"/><path class="d" d="m427.6 188.3h3v3.2h-3z"/><path class="d" d="m427.6 193.7h3v3.2h-3z"/><path class="d" d="m427.6 199h3v3.2h-3z"/><path class="d" d="m427.6 204.4h3v3.2h-3z"/><path class="d" d="m427.6 209.7h3v3.2h-3z"/><path class="d" d="m427.6 215.1h3v3.1h-3z"/><path class="d" d="m427.6 220.4h3v3.2h-3z"/><path class="d" d="m427.6 225.7h3v3.2h-3z"/><path class="d" d="m427.6 231.1h3v3.2h-3z"/><path class="d" d="m422.7 129.6h3v3.2h-3z"/><path class="d" d="m422.7 134.9h3v3.2h-3z"/><path class="d" d="m422.7 140.3h3v3.2h-3z"/><path class="d" d="m422.7 145.6h3v3.2h-3z"/><path class="d" d="m422.7 151h3v3.1h-3z"/><path class="d" d="m422.7 156.3h3v3.2h-3z"/><path class="d" d="m422.7 161.6h3v3.2h-3z"/><path class="d" d="m422.7 167h3v3.2h-3z"/><path class="d" d="m422.7 172.3h3v3.2h-3z"/><path class="d" d="m422.7 177.7h3v3.2h-3z"/><path class="d" d="m422.7 183h3v3.2h-3z"/><path class="d" d="m422.7 188.3h3v3.2h-3z"/><path class="d" d="m422.7 193.7h3v3.2h-3z"/><path class="d" d="m422.7 199h3v3.2h-3z"/><path class="d" d="m422.7 204.4h3v3.2h-3z"/><path class="d" d="m422.7 209.7h3v3.2h-3z"/><path class="d" d="m422.7 215.1h3v3.1h-3z"/><path class="d" d="m422.7 220.4h3v3.2h-3z"/><path class="d" d="m417.8 129.6h3.1v3.2h-3.1z"/><path class="d" d="m417.8 134.9h3.1v3.2h-3.1z"/><path class="d" d="m417.8 140.3h3.1v3.2h-3.1z"/><path class="d" d="m417.8 145.6h3.1v3.2h-3.1z"/><path class="d" d="m417.8 151h3.1v3.1h-3.1z"/><path class="d" d="m417.8 156.3h3.1v3.2h-3.1z"/><path class="d" d="m417.8 161.6h3.1v3.2h-3.1z"/><path class="d" d="m417.8 167h3.1v3.2h-3.1z"/><path class="d" d="m417.8 172.3h3.1v3.2h-3.1z"/><path class="d" d="m417.8 177.7h3.1v3.2h-3.1z"/><path class="d" d="m417.8 183h3.1v3.2h-3.1z"/><path class="d" d="m417.8 188.3h3.1v3.2h-3.1z"/><path class="d" d="m417.8 193.7h3.1v3.2h-3.1z"/><path class="d" d="m417.8 199h3.1v3.2h-3.1z"/><path class="d" d="m417.8 204.4h3.1v3.2h-3.1z"/><path class="d" d="m417.8 209.7h3.1v3.2h-3.1z"/><path class="d" d="m417.8 215.1h3.1v3.1h-3.1z"/><path class="d" d="m417.8 220.4h3.1v3.2h-3.1z"/><path class="d" d="m445.8 168.6h3.1v3.2h-3.1z"/><path class="d" d="m445.8 173.9h3.1v3.2h-3.1z"/><path class="d" d="m445.8 179.3h3.1v3.1h-3.1z"/><path class="d" d="m445.8 184.6h3.1v3.2h-3.1z"/><path class="d" d="m445.8 189.9h3.1v3.2h-3.1z"/><path class="d" d="m445.8 195.3h3.1v3.2h-3.1z"/><path class="d" d="m445.8 200.6h3.1v3.2h-3.1z"/><path class="d" d="m445.8 206h3.1v3.2h-3.1z"/><path class="d" d="m445.8 211.3h3.1v3.2h-3.1z"/><path class="d" d="m445.8 216.6h3.1v3.2h-3.1z"/><path class="d" d="m445.8 222h3.1v3.2h-3.1z"/><path class="d" d="m445.8 227.3h3.1v3.2h-3.1z"/><path class="d" d="m445.8 232.7h3.1v3.1h-3.1z"/><path class="d" d="m440.9 168.6h3.1v3.2h-3.1z"/><path class="d" d="m440.9 173.9h3.1v3.2h-3.1z"/><path class="d" d="m440.9 179.3h3.1v3.1h-3.1z"/><path class="d" d="m440.9 184.6h3.1v3.2h-3.1z"/><path class="d" d="m440.9 189.9h3.1v3.2h-3.1z"/><path class="d" d="m440.9 195.3h3.1v3.2h-3.1z"/><path class="d" d="m440.9 200.6h3.1v3.2h-3.1z"/><path class="d" d="m440.9 206h3.1v3.2h-3.1z"/><path class="d" d="m440.9 211.3h3.1v3.2h-3.1z"/><path class="d" d="m440.9 216.6h3.1v3.2h-3.1z"/><path class="d" d="m440.9 222h3.1v3.2h-3.1z"/><path class="d" d="m440.9 227.3h3.1v3.2h-3.1z"/><path class="d" d="m440.9 232.7h3.1v3.1h-3.1z"/><path class="d" d="m436.1 168.6h3v3.2h-3z"/><path class="d" d="m436.1 173.9h3v3.2h-3z"/><path class="d" d="m436.1 179.3h3v3.1h-3z"/><path class="d" d="m436.1 184.6h3v3.2h-3z"/><path class="d" d="m436.1 189.9h3v3.2h-3z"/><path class="d" d="m436.1 195.3h3v3.2h-3z"/><path class="d" d="m436.1 200.6h3v3.2h-3z"/><path class="d" d="m436.1 206h3v3.2h-3z"/><path class="d" d="m436.1 211.3h3v3.2h-3z"/><path class="d" d="m436.1 216.6h3v3.2h-3z"/><path class="d" d="m436.1 222h3v3.2h-3z"/><path class="d" d="m436.1 227.3h3v3.2h-3z"/><path class="d" d="m436.1 232.7h3v3.1h-3z"/><path class="d" d="m436.1 238h3v3.2h-3z"/><path class="d" d="m408.9 170.2h3.1v3.2h-3.1z"/><path class="d" d="m408.9 175.5h3.1v3.2h-3.1z"/><path class="d" d="m408.9 180.9h3.1v3.1h-3.1z"/><path class="d" d="m408.9 186.2h3.1v3.2h-3.1z"/><path class="d" d="m408.9 191.5h3.1v3.2h-3.1z"/><path class="d" d="m408.9 196.9h3.1v3.2h-3.1z"/><path class="d" d="m408.9 202.2h3.1v3.2h-3.1z"/><path class="d" d="m408.9 207.6h3.1v3.1h-3.1z"/><path class="d" d="m408.9 212.9h3.1v3.2h-3.1z"/><path class="d" d="m408.9 218.2h3.1v3.2h-3.1z"/><path class="d" d="m408.9 234.3h3.1v3.1h-3.1z"/><path class="d" d="m404 170.2h3.1v3.2h-3.1z"/><path class="d" d="m404 175.5h3.1v3.2h-3.1z"/><path class="d" d="m404 180.9h3.1v3.1h-3.1z"/><path class="d" d="m404 186.2h3.1v3.2h-3.1z"/><path class="d" d="m404 191.5h3.1v3.2h-3.1z"/><path class="d" d="m404 196.9h3.1v3.2h-3.1z"/><path class="d" d="m404 202.2h3.1v3.2h-3.1z"/><path class="d" d="m404 207.6h3.1v3.1h-3.1z"/><path class="d" d="m404 212.9h3.1v3.2h-3.1z"/><path class="d" d="m404 228.9h3.1v3.2h-3.1z"/><path class="d" d="m404 234.3h3.1v3.1h-3.1z"/><path class="d" d="m399.2 170.2h3v3.2h-3z"/><path class="d" d="m399.2 175.5h3v3.2h-3z"/><path class="d" d="m399.2 180.9h3v3.1h-3z"/><path class="d" d="m399.2 186.2h3v3.2h-3z"/><path class="d" d="m399.2 191.5h3v3.2h-3z"/><path class="d" d="m399.2 196.9h3v3.2h-3z"/><path class="d" d="m399.2 202.2h3v3.2h-3z"/><path class="d" d="m399.2 207.6h3v3.1h-3z"/><path class="d" d="m399.2 223.6h3v3.2h-3z"/><path class="d" d="m399.2 228.9h3v3.2h-3z"/><path class="d" d="m399.2 234.3h3v3.1h-3z"/><path class="d" d="m353.8 89h3v3.2h-3z"/><path class="d" d="m353.8 94.4h3v3.2h-3z"/><path class="d" d="m353.8 99.7h3v3.2h-3z"/><path class="d" d="m353.8 105h3v3.2h-3z"/><path class="d" d="m353.8 110.4h3v3.2h-3z"/><path class="d" d="m353.8 115.7h3v3.2h-3z"/><path class="d" d="m353.8 121.1h3v3.1h-3z"/><path class="d" d="m353.8 126.4h3v3.2h-3z"/><path class="d" d="m353.8 131.7h3v3.2h-3z"/><path class="d" d="m353.8 137.1h3v3.2h-3z"/><path class="d" d="m353.8 142.4h3v3.2h-3z"/><path class="d" d="m353.8 147.8h3v3.2h-3z"/><path class="d" d="m353.8 153.1h3v3.2h-3z"/><path class="d" d="m353.8 158.5h3v3.1h-3z"/><path class="d" d="m353.8 163.8h3v3.2h-3z"/><path class="d" d="m353.8 169.1h3v3.2h-3z"/><path class="d" d="m353.8 174.5h3v3.2h-3z"/><path class="d" d="m353.8 185.2h3v3.1h-3z"/><path class="d" d="m353.8 190.5h3v3.2h-3z"/><path class="d" d="m353.8 195.8h3v3.2h-3z"/><path class="d" d="m353.8 201.2h3v3.2h-3z"/><path class="d" d="m353.8 206.5h3v3.2h-3z"/><path class="d" d="m348.9 89h3.1v3.2h-3.1z"/><path class="d" d="m348.9 94.4h3.1v3.2h-3.1z"/><path class="d" d="m348.9 99.7h3.1v3.2h-3.1z"/><path class="d" d="m348.9 105h3.1v3.2h-3.1z"/><path class="d" d="m348.9 110.4h3.1v3.2h-3.1z"/><path class="d" d="m348.9 115.7h3.1v3.2h-3.1z"/><path class="d" d="m348.9 121.1h3.1v3.1h-3.1z"/><path class="d" d="m348.9 126.4h3.1v3.2h-3.1z"/><path class="d" d="m348.9 131.7h3.1v3.2h-3.1z"/><path class="d" d="m348.9 137.1h3.1v3.2h-3.1z"/><path class="d" d="m348.9 142.4h3.1v3.2h-3.1z"/><path class="d" d="m348.9 147.8h3.1v3.2h-3.1z"/><path class="d" d="m348.9 153.1h3.1v3.2h-3.1z"/><path class="d" d="m348.9 158.5h3.1v3.1h-3.1z"/><path class="d" d="m348.9 163.8h3.1v3.2h-3.1z"/><path class="d" d="m348.9 169.1h3.1v3.2h-3.1z"/><path class="d" d="m348.9 201.2h3.1v3.2h-3.1z"/><path class="d" d="m348.9 206.5h3.1v3.2h-3.1z"/><path class="d" d="m344 89h3.1v3.2h-3.1z"/><path class="d" d="m344 94.4h3.1v3.2h-3.1z"/><path class="d" d="m344 99.7h3.1v3.2h-3.1z"/><path class="d" d="m344 105h3.1v3.2h-3.1z"/><path class="d" d="m344 110.4h3.1v3.2h-3.1z"/><path class="d" d="m344 115.7h3.1v3.2h-3.1z"/><path class="d" d="m344 121.1h3.1v3.1h-3.1z"/><path class="d" d="m344 126.4h3.1v3.2h-3.1z"/><path class="d" d="m344 131.7h3.1v3.2h-3.1z"/><path class="d" d="m344 137.1h3.1v3.2h-3.1z"/><path class="d" d="m344 142.4h3.1v3.2h-3.1z"/><path class="d" d="m344 147.8h3.1v3.2h-3.1z"/><path class="d" d="m344 153.1h3.1v3.2h-3.1z"/><path class="d" d="m344 158.5h3.1v3.1h-3.1z"/><path class="d" d="m344 163.8h3.1v3.2h-3.1z"/><path class="d" d="m344 169.1h3.1v3.2h-3.1z"/><path class="d" d="m344 179.8h3.1v3.2h-3.1z"/><path class="d" d="m344 185.2h3.1v3.1h-3.1z"/><path class="d" d="m344 190.5h3.1v3.2h-3.1z"/><path class="d" d="m344 195.8h3.1v3.2h-3.1z"/><path class="d" d="m344 206.5h3.1v3.2h-3.1z"/><path class="d" d="m371.5 156.3h3.1v3.2h-3.1z"/><path class="d" d="m371.5 161.6h3.1v3.2h-3.1z"/><path class="d" d="m371.5 167h3.1v3.2h-3.1z"/><path class="d" d="m371.5 172.3h3.1v3.2h-3.1z"/><path class="d" d="m371.5 177.7h3.1v3.2h-3.1z"/><path class="d" d="m371.5 183h3.1v3.2h-3.1z"/><path class="d" d="m371.5 188.3h3.1v3.2h-3.1z"/><path class="d" d="m371.5 199h3.1v3.2h-3.1z"/><path class="d" d="m371.5 204.4h3.1v3.2h-3.1z"/><path class="d" d="m371.5 209.7h3.1v3.2h-3.1z"/><path class="d" d="m371.5 215.1h3.1v3.1h-3.1z"/><path class="d" d="m371.5 220.4h3.1v3.2h-3.1z"/><path class="d" d="m371.5 225.7h3.1v3.2h-3.1z"/><path class="d" d="m371.5 231.1h3.1v3.2h-3.1z"/><path class="d" d="m371.5 236.4h3.1v3.2h-3.1z"/><path class="d" d="m366.6 156.3h3.1v3.2h-3.1z"/><path class="d" d="m366.6 161.6h3.1v3.2h-3.1z"/><path class="d" d="m366.6 167h3.1v3.2h-3.1z"/><path class="d" d="m366.6 172.3h3.1v3.2h-3.1z"/><path class="d" d="m366.6 177.7h3.1v3.2h-3.1z"/><path class="d" d="m366.6 183h3.1v3.2h-3.1z"/><path class="d" d="m366.6 199h3.1v3.2h-3.1z"/><path class="d" d="m366.6 204.4h3.1v3.2h-3.1z"/><path class="d" d="m366.6 209.7h3.1v3.2h-3.1z"/><path class="d" d="m366.6 215.1h3.1v3.1h-3.1z"/><path class="d" d="m366.6 220.4h3.1v3.2h-3.1z"/><path class="d" d="m366.6 225.7h3.1v3.2h-3.1z"/><path class="d" d="m366.6 231.1h3.1v3.2h-3.1z"/><path class="d" d="m366.6 236.4h3.1v3.2h-3.1z"/><path class="d" d="m361.7 156.3h3.1v3.2h-3.1z"/><path class="d" d="m361.7 161.6h3.1v3.2h-3.1z"/><path class="d" d="m361.7 167h3.1v3.2h-3.1z"/><path class="d" d="m361.7 172.3h3.1v3.2h-3.1z"/><path class="d" d="m361.7 177.7h3.1v3.2h-3.1z"/><path class="d" d="m361.7 183h3.1v3.2h-3.1z"/><path class="d" d="m361.7 193.7h3.1v3.2h-3.1z"/><path class="d" d="m361.7 199h3.1v3.2h-3.1z"/><path class="d" d="m361.7 204.4h3.1v3.2h-3.1z"/><path class="d" d="m361.7 209.7h3.1v3.2h-3.1z"/><path class="d" d="m361.7 215.1h3.1v3.1h-3.1z"/><path class="d" d="m361.7 220.4h3.1v3.2h-3.1z"/><path class="d" d="m361.7 225.7h3.1v3.2h-3.1z"/><path class="d" d="m361.7 231.1h3.1v3.2h-3.1z"/><path class="d" d="m361.7 236.4h3.1v3.2h-3.1z"/><path class="d" d="m258.8 126.4h3.1v3.2h-3.1z"/><path class="d" d="m258.8 131.7h3.1v3.2h-3.1z"/><path class="d" d="m258.8 137.1h3.1v3.2h-3.1z"/><path class="d" d="m258.8 142.4h3.1v3.2h-3.1z"/><path class="d" d="m258.8 147.8h3.1v3.2h-3.1z"/><path class="d" d="m258.8 153.1h3.1v3.2h-3.1z"/><path class="d" d="m258.8 158.5h3.1v3.1h-3.1z"/><path class="d" d="m258.8 163.8h3.1v3.2h-3.1z"/><path class="d" d="m258.8 169.1h3.1v3.2h-3.1z"/><path class="d" d="m258.8 174.5h3.1v3.2h-3.1z"/><path class="d" d="m258.8 179.8h3.1v3.2h-3.1z"/><path class="d" d="m258.8 185.2h3.1v3.1h-3.1z"/><path class="d" d="m258.8 190.5h3.1v3.2h-3.1z"/><path class="d" d="m258.8 201.2h3.1v3.2h-3.1z"/><path class="d" d="m258.8 206.5h3.1v3.2h-3.1z"/><path class="d" d="m258.8 211.9h3.1v3.1h-3.1z"/><path class="d" d="m258.8 217.2h3.1v3.2h-3.1z"/><path class="d" d="m258.8 227.9h3.1v3.2h-3.1z"/><path class="d" d="m258.8 233.2h3.1v3.2h-3.1z"/><path class="d" d="m258.8 238.6h3.1v3.2h-3.1z"/><path class="d" d="m253.9 126.4h3.1v3.2h-3.1z"/><path class="d" d="m253.9 131.7h3.1v3.2h-3.1z"/><path class="d" d="m253.9 137.1h3.1v3.2h-3.1z"/><path class="d" d="m253.9 142.4h3.1v3.2h-3.1z"/><path class="d" d="m253.9 147.8h3.1v3.2h-3.1z"/><path class="d" d="m253.9 153.1h3.1v3.2h-3.1z"/><path class="d" d="m253.9 158.5h3.1v3.1h-3.1z"/><path class="d" d="m253.9 163.8h3.1v3.2h-3.1z"/><path class="d" d="m253.9 169.1h3.1v3.2h-3.1z"/><path class="d" d="m253.9 174.5h3.1v3.2h-3.1z"/><path class="d" d="m253.9 179.8h3.1v3.2h-3.1z"/><path class="d" d="m253.9 185.2h3.1v3.1h-3.1z"/><path class="d" d="m253.9 190.5h3.1v3.2h-3.1z"/><path class="d" d="m253.9 206.5h3.1v3.2h-3.1z"/><path class="d" d="m253.9 211.9h3.1v3.1h-3.1z"/><path class="d" d="m253.9 222.5h3.1v3.2h-3.1z"/><path class="d" d="m253.9 227.9h3.1v3.2h-3.1z"/><path class="d" d="m253.9 233.2h3.1v3.2h-3.1z"/><path class="d" d="m253.9 238.6h3.1v3.2h-3.1z"/><path class="d" d="m249.1 126.4h3v3.2h-3z"/><path class="d" d="m249.1 131.7h3v3.2h-3z"/><path class="d" d="m249.1 137.1h3v3.2h-3z"/><path class="d" d="m249.1 142.4h3v3.2h-3z"/><path class="d" d="m249.1 147.8h3v3.2h-3z"/><path class="d" d="m249.1 153.1h3v3.2h-3z"/><path class="d" d="m249.1 158.5h3v3.1h-3z"/><path class="d" d="m249.1 163.8h3v3.2h-3z"/><path class="d" d="m249.1 169.1h3v3.2h-3z"/><path class="d" d="m249.1 174.5h3v3.2h-3z"/><path class="d" d="m249.1 179.8h3v3.2h-3z"/><path class="d" d="m249.1 185.2h3v3.1h-3z"/><path class="d" d="m249.1 190.5h3v3.2h-3z"/><path class="d" d="m249.1 195.8h3v3.2h-3z"/><path class="d" d="m249.1 206.5h3v3.2h-3z"/><path class="d" d="m249.1 217.2h3v3.2h-3z"/><path class="d" d="m249.1 222.5h3v3.2h-3z"/><path class="d" d="m249.1 227.9h3v3.2h-3z"/><path class="d" d="m249.1 233.2h3v3.2h-3z"/><path class="d" d="m249.1 238.6h3v3.2h-3z"/><path class="d" d="m278.7 156.9h3.1v3.1h-3.1z"/><path class="d" d="m278.7 162.2h3.1v3.2h-3.1z"/><path class="d" d="m278.7 167.5h3.1v3.2h-3.1z"/><path class="d" d="m278.7 172.9h3.1v3.2h-3.1z"/><path class="d" d="m278.7 178.2h3.1v3.2h-3.1z"/><path class="d" d="m278.7 183.6h3.1v3.2h-3.1z"/><path class="d" d="m278.7 199.6h3.1v3.2h-3.1z"/><path class="d" d="m278.7 204.9h3.1v3.2h-3.1z"/><path class="d" d="m278.7 210.3h3.1v3.2h-3.1z"/><path class="d" d="m278.7 215.6h3.1v3.2h-3.1z"/><path class="d" d="m278.7 221h3.1v3.1h-3.1z"/><path class="d" d="m278.7 226.3h3.1v3.2h-3.1z"/><path class="d" d="m278.7 231.6h3.1v3.2h-3.1z"/><path class="d" d="m273.8 156.9h3.1v3.1h-3.1z"/><path class="d" d="m273.8 162.2h3.1v3.2h-3.1z"/><path class="d" d="m273.8 167.5h3.1v3.2h-3.1z"/><path class="d" d="m273.8 172.9h3.1v3.2h-3.1z"/><path class="d" d="m273.8 178.2h3.1v3.2h-3.1z"/><path class="d" d="m273.8 183.6h3.1v3.2h-3.1z"/><path class="d" d="m273.8 199.6h3.1v3.2h-3.1z"/><path class="d" d="m273.8 204.9h3.1v3.2h-3.1z"/><path class="d" d="m273.8 210.3h3.1v3.2h-3.1z"/><path class="d" d="m273.8 215.6h3.1v3.2h-3.1z"/><path class="d" d="m273.8 221h3.1v3.1h-3.1z"/><path class="d" d="m273.8 226.3h3.1v3.2h-3.1z"/><path class="d" d="m273.8 237h3.1v3.2h-3.1z"/><path class="d" d="m111.6 133.3h3.1v3.2h-3.1z"/><path class="d" d="m111.6 138.7h3.1v3.2h-3.1z"/><path class="d" d="m111.6 144h3.1v3.2h-3.1z"/><path class="d" d="m111.6 149.4h3.1v3.1h-3.1z"/><path class="d" d="m111.6 154.7h3.1v3.2h-3.1z"/><path class="d" d="m111.6 160h3.1v3.2h-3.1z"/><path class="d" d="m111.6 165.4h3.1v3.2h-3.1z"/><path class="d" d="m111.6 170.7h3.1v3.2h-3.1z"/><path class="d" d="m111.6 176.1h3.1v3.2h-3.1z"/><path class="d" d="m111.6 181.4h3.1v3.2h-3.1z"/><path class="d" d="m111.6 186.8h3.1v3.1h-3.1z"/><path class="d" d="m111.6 197.4h3.1v3.2h-3.1z"/><path class="d" d="m111.6 202.8h3.1v3.2h-3.1z"/><path class="d" d="m111.6 208.1h3.1v3.2h-3.1z"/><path class="d" d="m111.6 213.5h3.1v3.1h-3.1z"/><path class="d" d="m111.6 218.8h3.1v3.2h-3.1z"/><path class="d" d="m111.6 224.1h3.1v3.2h-3.1z"/><path class="d" d="m111.6 229.5h3.1v3.2h-3.1z"/><path class="d" d="m111.6 234.8h3.1v3.2h-3.1z"/><path class="d" d="m106.8 133.3h3v3.2h-3z"/><path class="d" d="m106.8 138.7h3v3.2h-3z"/><path class="d" d="m106.8 144h3v3.2h-3z"/><path class="d" d="m106.8 149.4h3v3.1h-3z"/><path class="d" d="m106.8 154.7h3v3.2h-3z"/><path class="d" d="m106.8 160h3v3.2h-3z"/><path class="d" d="m106.8 165.4h3v3.2h-3z"/><path class="d" d="m106.8 170.7h3v3.2h-3z"/><path class="d" d="m106.8 176.1h3v3.2h-3z"/><path class="d" d="m106.8 181.4h3v3.2h-3z"/><path class="d" d="m106.8 186.8h3v3.1h-3z"/><path class="d" d="m106.8 192.1h3v3.2h-3z"/><path class="d" d="m106.8 197.4h3v3.2h-3z"/><path class="d" d="m106.8 202.8h3v3.2h-3z"/><path class="d" d="m106.8 208.1h3v3.2h-3z"/><path class="d" d="m106.8 213.5h3v3.1h-3z"/><path class="d" d="m106.8 218.8h3v3.2h-3z"/><path class="d" d="m106.8 224.1h3v3.2h-3z"/><path class="d" d="m106.8 229.5h3v3.2h-3z"/><path class="d" d="m106.8 234.8h3v3.2h-3z"/><path class="d" d="m135.7 154.1h3.1v3.2h-3.1z"/><path class="d" d="m135.7 159.5h3.1v3.2h-3.1z"/><path class="d" d="m135.7 164.8h3.1v3.2h-3.1z"/><path class="d" d="m135.7 170.2h3.1v3.2h-3.1z"/><path class="d" d="m135.7 175.5h3.1v3.2h-3.1z"/><path class="d" d="m135.7 180.9h3.1v3.1h-3.1z"/><path class="d" d="m135.7 186.2h3.1v3.2h-3.1z"/><path class="d" d="m135.7 191.5h3.1v3.2h-3.1z"/><path class="d" d="m135.7 196.9h3.1v3.2h-3.1z"/><path class="d" d="m135.7 202.2h3.1v3.2h-3.1z"/><path class="d" d="m130.8 154.1h3.1v3.2h-3.1z"/><path class="d" d="m130.8 159.5h3.1v3.2h-3.1z"/><path class="d" d="m130.8 164.8h3.1v3.2h-3.1z"/><path class="d" d="m130.8 170.2h3.1v3.2h-3.1z"/><path class="d" d="m130.8 175.5h3.1v3.2h-3.1z"/><path class="d" d="m130.8 180.9h3.1v3.1h-3.1z"/><path class="d" d="m130.8 186.2h3.1v3.2h-3.1z"/><path class="d" d="m130.8 191.5h3.1v3.2h-3.1z"/><path class="d" d="m130.8 196.9h3.1v3.2h-3.1z"/><path class="e" d="m422.6 242.9c0.1-1.5-0.1-3.4-1.8-3.9-2.8-1-4.5-3.2-4.4-5.7 0.1-2.5-3-5-5.2-2.6-2.3 2.3-2-1.9-5-2.9-3.1-1-5.6 1.5-4.8 3.7 0.8 2.3-2.1 3.7-5.7 1.8-3.6-1.9-7.5 1.5-6.8 4.3 0.8 2.7 0.2 3-2.1 2.1-1.8-0.8-4.8 0.8-5.1 3.2 0 0 40.9 0 40.9 0z"/><path fill-rule="evenodd" class="f" d="m440.3 160.5c0.7 0.5 1 1.4 0.6 2.2-0.3 0.6-0.9 0.9-1.5 1.1-3.2 1.3 1 5.3-0.6 5.5-2 0.4-4.3 0-4.5 2.5q0 0.6-0.2 1.2c-0.4 1.3-1.3 1.9-3.3 0.9-1.3-0.6-1.6-1.3-3.1-1.2-1 0.2-1.8 0.9-2.9 0.8q-0.3 0-0.5-0.1-0.2-0.2-0.4-0.4c-1-1.5-1.8-0.9-3.5-0.9q-0.2 0-0.3-0.1-0.2-0.2-0.2-0.4 0-0.7 0.1-1.3 0.2-0.3 0.1-0.6c-0.1-0.3-0.4-0.4-0.7-0.6q-0.2 0-0.3-0.2c-0.5-0.3-0.8-0.9-0.9-1.5-1.6 0.1-3.1 0.3-3.2 2.3q0 0.6-0.2 1.2c-0.3 1.3-1.3 2-3.3 1-1.3-0.6-1.6-1.4-3.1-1.2-1 0.1-1.8 0.8-2.9 0.7q-0.3 0-0.5-0.1-0.2-0.1-0.3-0.3c-1.1-1.5-1.9-0.9-3.6-1q-0.1 0-0.3-0.1-0.2-0.1-0.2-0.4 0-0.6 0.1-1.2 0.2-0.3 0.1-0.7c-0.1-0.3-0.4-0.4-0.7-0.5q-0.2-0.1-0.3-0.2-0.4-0.3-0.7-0.8c-0.5 0.2-1.2 0-2.2-0.4-1.3-0.6-1.6-1.4-3-1.2-1.1 0.1-1.8 0.8-3 0.7q-0.2 0-0.4-0.1-0.3-0.1-0.4-0.3 0-0.1-0.1-0.1 0 0.4 0.2 0.7c0.7-0.1 1.3 0.1 1.9 0.4 0.6 0.4 0.8 1.1 0.6 1.8-0.3 0.4-0.8 0.7-1.2 0.8-2.5 1 0.7 4.2-0.5 4.4-1.6 0.2-3.5-0.1-3.6 1.9q0 0.4-0.1 0.9c-0.3 1.1-1.1 1.6-2.7 0.7-1-0.4-1.3-1-2.4-0.9-0.8 0.1-1.4 0.7-2.3 0.6q-0.2 0-0.4-0.1-0.2-0.1-0.3-0.3c-0.8-1.1-1.4-0.6-2.7-0.7q-0.1 0-0.1 0c-0.2 0-0.4-0.2-0.3-0.4q-0.1-0.5 0-1 0.2-0.2 0.1-0.5c-0.1-0.2-0.4-0.3-0.6-0.4q-0.1-0.1-0.2-0.2c-0.5-0.4-0.8-1-0.7-1.6-0.3-0.1-0.6-0.2-1-0.1-1.1 0.1-1.8 0.8-3 0.8q-0.2-0.1-0.4-0.2-0.3-0.1-0.4-0.3c-1-1.5-1.8-0.9-3.5-1q-0.2 0-0.4-0.1-0.1-0.1-0.1-0.4-0.1-0.6 0.1-1.2 0.1-0.3 0.1-0.7c-0.1-0.2-0.5-0.4-0.8-0.5q-0.1-0.1-0.2-0.2c-1.1-0.8-1.2-2.2-0.5-3.2 0.4-0.4 0.9-0.7 0.7-1.2-0.1-0.6-0.8-0.7-1.3-0.9-1.1-0.6-0.9-2.9-0.1-3.6 0.5-0.4 1.2-1 1-1.7-0.2-0.5-0.9-0.7-1.3-1.1-0.7-0.8 0-2.1 0.9-2.8 0.9-0.7 2-1.2 2.4-2.3q0.1-0.4 0.3-0.8c0.5-0.8 1.8-0.3 2.5 0.3 0.3 0.2 0.6 0.4 0.9 0.5 0.1-0.5 0.4-0.9 0.7-1.1 0.5-0.5 1.1-1.2 0.9-1.7-0.2-0.5-0.8-0.7-1.2-1.1-0.8-0.8-0.1-2.2 0.8-2.9 0.9-0.6 2.1-1.2 2.4-2.2q0.1-0.5 0.3-0.9c0.6-0.7 1.8-0.2 2.6 0.3 0.8 0.6 2 1.1 2.6 0.3 0.3-0.5 0.1-1.1 0.4-1.6 0.5-0.8 1.7-0.4 2.4 0.2 0.7 0.6 1.5 1.4 2.4 1.2-0.2-0.1-0.5-0.2-0.7-0.3-1.1-0.6-1-2.8-0.1-3.6 0.5-0.4 1.2-1 1-1.6-0.2-0.5-0.9-0.7-1.3-1.1-0.7-0.8 0-2.2 0.9-2.9 0.9-0.7 2-1.2 2.4-2.2q0.1-0.5 0.3-0.9c0.5-0.8 1.8-0.3 2.5 0.3 0.8 0.6 2.1 1.1 2.6 0.3 0.3-0.5 0.1-1.1 0.4-1.6 0.5-0.8 1.7-0.4 2.5 0.2 0.7 0.6 1.6 1.3 2.4 1.2 0.7-0.2 1.1-1.1 2-1.2 0.9-0.1 1.5 0.7 1.7 1.6q0.2 1.2 0.7 2.4c0.6-0.4 1.1-0.9 1.4-1.6q0.1-0.4 0.3-0.8c0.5-0.8 1.7-0.3 2.5 0.3 0.8 0.6 2.1 1.1 2.6 0.3 0.3-0.5 0.1-1.2 0.4-1.6 0.5-0.8 1.7-0.4 2.4 0.2 0.8 0.6 1.5 1.4 2.4 1.1 0.8-0.1 1.2-1.1 2.1-1.1 0.8-0.1 1.5 0.7 1.7 1.6q0.2 1.2 0.7 2.4c1.2-0.2 2.9-0.1 3.1 1 0.2 0.6-0.1 1-0.3 1.5q0.2 0.1 0.4 0.3c0.7 0.6 1.6 1.3 2.4 1.1 0.7-0.1 1.1-1.1 2-1.1 0.9-0.1 1.5 0.7 1.7 1.5q0.2 1.3 0.7 2.5c1.2-0.2 2.9-0.2 3.2 1 0.1 0.8-0.5 1.5-1 2.2-0.5 0.6-0.9 1.6-0.4 2.2 0.9-0.1 1.7 0.2 2.4 0.6 0.8 0.5 1.1 1.4 0.7 2.2-0.4 0.5-0.9 0.9-1.5 1.1-1.8 0.7-1.2 2.3-0.7 3.6q0.1 0 0.2 0c0.8-0.2 1.2-1.1 2-1.2 0.9-0.1 1.5 0.8 1.8 1.6q0.1 1.3 0.6 2.5c1.2-0.3 2.9-0.2 3.2 1 0.2 0.8-0.4 1.5-0.9 2.1-0.5 0.7-1 1.6-0.4 2.2 0.8 0 1.6 0.2 2.4 0.6zm-21 4.5q0.1-0.2 0.1-0.5c-0.1-0.2-0.2-0.3-0.4-0.4q0.1 0.4 0.3 0.9z"/><path class="e" d="m423.8 165.7c0 0-4.2 6-5.7 7.8-1.4 1.9-8.6 13.6-9.6 21.4q-0.2 1.2-0.3 2.1c3.1 20.5 2.6 58 2.5 64.5h-9.9c-0.1-7.3-0.9-73.5-1.2-75.5-0.4-2.2-4.5-10.3-10.8-13.6-6.4-3.4-11.8-14.5-11.8-14.5h2c0 0 3.7 6.8 9.1 10.6q1.2 0.8 2.4 1.4c0-4.1 0.7-8.1 2.1-12l1.1 1c-1.5 6.1-1.3 10-0.8 12.2 2 0.9 3.9 2.2 5.5 3.7 5.6-7.2 8.7-23.7 8.7-23.7l1.4 0.8q-0.6 5.1-1.9 10.1c-1 4.2-4.1 12.3-5.5 15.9q2.5 3.7 4.1 7.9 0.3-0.4 0.6-0.7c3.6-3.2 10.4-18.6 10.4-18.6 1.7-3.6-0.9-13-0.9-13h1.9l0.8 8.2 4.8-5.2 0.9 0.7-5 6.5-2.6 8.3 6.8-7.5c0 0 0.9 1.2 0.9 1.2z"/><path class="e" d="m352.7 255.2c0.1-1 0-2.4-1.2-2.8-2.1-0.6-3.3-2.2-3.2-4 0.1-1.8-2.1-3.5-3.7-1.9-1.6 1.7-1.4-1.3-3.6-2-2.1-0.7-3.9 1.1-3.3 2.7 0.6 1.6-1.6 2.6-4.1 1.2-2.6-1.4-5.4 1.1-4.8 3 0.5 2 0.1 2.2-1.5 1.6-1.3-0.6-3.5 0.5-3.7 2.2 0 0 29.1 0 29.1 0z"/><path fill-rule="evenodd" class="f" d="m359.5 214.3q-0.3 0.4-0.9 0.6c-1.7 0.7 0.6 2.9-0.3 3-1.1 0.2-2.4 0-2.5 1.3q0 0.4-0.1 0.7c-0.2 0.8-0.7 1.1-1.8 0.5-0.7-0.3-0.9-0.7-1.7-0.6-0.6 0.1-1 0.4-1.6 0.4q-0.1 0-0.3-0.1-0.1-0.1-0.2-0.2c-0.5-0.8-1-0.4-1.9-0.5q-0.1 0-0.2 0-0.1-0.1-0.1-0.3 0-0.3 0.1-0.6 0.1-0.2 0-0.4c0-0.2-0.2-0.2-0.4-0.3q-0.1 0-0.1-0.1c-0.3-0.2-0.5-0.5-0.5-0.8-0.9 0-1.7 0.1-1.8 1.2q0 0.3-0.1 0.7c-0.2 0.7-0.7 1-1.8 0.5-0.7-0.3-0.9-0.7-1.7-0.6-0.6 0-1 0.4-1.6 0.4q-0.1 0-0.3-0.1-0.1-0.1-0.1-0.2c-0.6-0.8-1.1-0.5-2-0.5q-0.1 0-0.2-0.1 0-0.1 0-0.2-0.1-0.3 0-0.7 0.1-0.1 0-0.3c0-0.2-0.2-0.2-0.3-0.3q-0.1-0.1-0.2-0.1-0.2-0.2-0.4-0.5-0.4 0.2-1.2-0.2c-0.7-0.3-0.9-0.7-1.7-0.6-0.5 0-0.9 0.4-1.6 0.4q-0.1 0-0.2-0.1-0.1-0.1-0.2-0.2 0 0-0.1 0 0 0.2 0.1 0.3 0.6 0 1.1 0.3c0.3 0.2 0.4 0.6 0.3 1q-0.3 0.3-0.7 0.4c-1.4 0.6 0.4 2.3-0.2 2.4-0.9 0.1-1.9 0-2 1q0 0.3-0.1 0.6c-0.1 0.6-0.6 0.8-1.4 0.4-0.6-0.3-0.7-0.6-1.4-0.5-0.4 0-0.7 0.3-1.2 0.3q-0.1 0-0.2-0.1-0.1 0-0.2-0.1c-0.4-0.7-0.8-0.4-1.5-0.4q0 0-0.1 0c-0.1 0-0.1-0.1-0.1-0.2q0-0.3 0-0.6 0.1-0.1 0.1-0.3c-0.1-0.1-0.2-0.1-0.4-0.2q0 0-0.1-0.1c-0.3-0.2-0.4-0.6-0.4-0.9q-0.2-0.1-0.5 0c-0.6 0-1 0.4-1.7 0.4q-0.1 0-0.2-0.1-0.1-0.1-0.2-0.2c-0.6-0.8-1-0.5-1.9-0.5q-0.1 0-0.2-0.1-0.1-0.1-0.1-0.2 0-0.3 0.1-0.7 0-0.1 0-0.3c-0.1-0.2-0.3-0.2-0.4-0.3q-0.1-0.1-0.2-0.1c-0.5-0.4-0.6-1.2-0.2-1.8 0.2-0.2 0.5-0.4 0.4-0.7-0.1-0.3-0.5-0.3-0.7-0.4-0.7-0.4-0.6-1.6-0.1-2 0.3-0.2 0.7-0.6 0.5-0.9-0.1-0.3-0.4-0.4-0.6-0.6-0.5-0.5-0.1-1.2 0.4-1.6 0.5-0.4 1.1-0.7 1.3-1.2q0.1-0.3 0.2-0.5c0.3-0.4 1-0.1 1.4 0.2q0.2 0.1 0.5 0.3c0.1-0.3 0.2-0.5 0.3-0.7 0.3-0.2 0.7-0.6 0.6-0.9-0.1-0.3-0.5-0.4-0.7-0.6-0.4-0.4 0-1.2 0.5-1.5 0.4-0.4 1.1-0.7 1.3-1.3q0-0.2 0.1-0.4c0.3-0.5 1-0.2 1.4 0.1 0.5 0.3 1.2 0.6 1.4 0.2 0.2-0.3 0.1-0.7 0.3-0.9 0.2-0.4 0.9-0.2 1.3 0.1 0.4 0.3 0.8 0.7 1.3 0.6q-0.2 0-0.4-0.1c-0.6-0.3-0.5-1.6 0-2 0.3-0.2 0.6-0.5 0.5-0.9-0.1-0.3-0.5-0.4-0.7-0.6-0.4-0.4 0-1.2 0.5-1.6 0.5-0.3 1.1-0.6 1.3-1.2q0.1-0.2 0.2-0.5c0.3-0.4 1-0.1 1.4 0.2 0.4 0.3 1.1 0.6 1.4 0.2 0.2-0.3 0.1-0.7 0.2-0.9 0.3-0.5 0.9-0.3 1.4 0.1 0.4 0.3 0.8 0.7 1.3 0.6 0.4-0.1 0.6-0.6 1.1-0.6 0.5-0.1 0.8 0.4 0.9 0.9q0.1 0.6 0.4 1.3c0.3-0.2 0.6-0.5 0.8-0.9q0-0.2 0.1-0.4c0.3-0.5 1-0.2 1.4 0.1 0.5 0.4 1.1 0.6 1.4 0.2 0.2-0.3 0.1-0.6 0.3-0.9 0.2-0.4 0.9-0.2 1.3 0.1 0.4 0.3 0.8 0.8 1.3 0.7 0.4-0.1 0.7-0.6 1.1-0.7 0.5 0 0.9 0.4 1 0.9q0.1 0.7 0.3 1.4c0.7-0.2 1.6-0.2 1.8 0.5 0 0.3-0.1 0.5-0.2 0.8q0.1 0.1 0.2 0.1c0.4 0.4 0.9 0.8 1.3 0.7 0.4-0.1 0.7-0.6 1.1-0.7 0.5 0 0.9 0.5 1 0.9q0.1 0.7 0.3 1.4c0.7-0.2 1.6-0.1 1.8 0.5 0.1 0.4-0.3 0.8-0.5 1.2-0.3 0.3-0.5 0.9-0.3 1.2q0.8 0 1.4 0.3c0.4 0.3 0.5 0.8 0.3 1.3q-0.3 0.4-0.8 0.5c-1 0.4-0.7 1.3-0.4 2q0.1 0 0.1 0c0.5-0.1 0.7-0.6 1.2-0.6 0.4-0.1 0.8 0.4 0.9 0.9q0.1 0.7 0.4 1.3c0.6-0.1 1.5-0.1 1.7 0.6 0.1 0.4-0.2 0.8-0.5 1.1-0.3 0.4-0.5 0.9-0.2 1.3q0.7-0.1 1.3 0.3c0.4 0.2 0.6 0.8 0.4 1.2zm-11.9 1.2q0.1-0.1 0-0.2 0-0.2-0.2-0.3 0.1 0.3 0.2 0.5z"/><path class="e" d="m350 215.9c0 0-2.3 3.3-3 4.3-0.8 1-4.8 7.5-5.3 11.7q-0.1 0.7-0.2 1.2c1.7 11.2 1.4 31.8 1.4 35.3h-5.5c0-3.9-0.5-40.2-0.6-41.4-0.2-1.1-2.5-5.6-6-7.4-3.4-1.9-6.4-8-6.4-8h1.1c0 0 2 3.8 5 5.8q0.6 0.5 1.3 0.8c0-2.2 0.4-4.5 1.1-6.6l0.7 0.6c-0.9 3.3-0.8 5.5-0.5 6.7q1.7 0.7 3 2c3.1-4 4.8-13 4.8-13l0.8 0.4q-0.4 2.8-1.1 5.6c-0.5 2.3-2.2 6.7-3 8.7q1.4 2 2.3 4.3 0.1-0.2 0.3-0.3c2-1.8 5.7-10.3 5.7-10.3 0.9-1.9-0.5-7.1-0.5-7.1h1l0.5 4.5 2.6-2.8 0.5 0.4-2.7 3.5-1.5 4.5 3.8-4.1c0 0 0.4 0.7 0.4 0.7z"/><path class="e" d="m97.1 238.3c0.1-1-0.1-2.2-1.2-2.6-1.8-0.6-2.9-2-2.9-3.7 0.1-1.6-1.9-3.2-3.3-1.7-1.5 1.6-1.3-1.1-3.3-1.8-1.9-0.7-3.6 0.9-3.1 2.4 0.6 1.5-1.4 2.4-3.7 1.1-2.3-1.2-4.9 1.1-4.4 2.8 0.5 1.8 0.1 2-1.4 1.4-1.1-0.5-4 4.7-4.2 6.3 0 0 27.5-4.2 27.5-4.2z"/><path fill-rule="evenodd" class="f" d="m106.2 188.7c-0.2 0.4-0.6 0.6-1 0.7-2 0.8 0.7 3.4-0.4 3.6-1.3 0.2-2.8-0.1-2.9 1.6q0 0.4-0.1 0.7c-0.3 0.9-0.9 1.3-2.2 0.7-0.8-0.4-1-0.9-2-0.8-0.7 0.1-1.1 0.6-1.9 0.5q-0.2 0-0.3-0.1-0.1-0.1-0.2-0.2c-0.7-1-1.2-0.6-2.3-0.6q-0.1 0-0.2-0.1-0.1-0.1-0.1-0.3-0.1-0.4 0-0.8 0.1-0.2 0.1-0.4c-0.1-0.2-0.3-0.2-0.5-0.3q-0.1-0.1-0.2-0.2c-0.3-0.2-0.5-0.6-0.5-1-1.1 0.1-2 0.2-2.1 1.5q0 0.4-0.1 0.8c-0.3 0.9-0.9 1.3-2.2 0.6-0.8-0.4-1-0.8-2-0.7-0.7 0.1-1.2 0.5-1.9 0.5q-0.2 0-0.3-0.1-0.2-0.1-0.2-0.2c-0.7-1-1.2-0.6-2.3-0.7q-0.1 0-0.2 0-0.1-0.1-0.1-0.3-0.1-0.4 0-0.8 0.1-0.2 0.1-0.4c-0.1-0.2-0.3-0.3-0.5-0.4q-0.1 0-0.2-0.1-0.3-0.2-0.4-0.5c-0.4 0.1-0.8 0-1.5-0.3-0.8-0.4-1-0.9-1.9-0.8-0.7 0.1-1.2 0.6-2 0.5q-0.1 0-0.3 0-0.1-0.1-0.2-0.3 0 0 0 0-0.1 0.2 0.1 0.4 0.6 0 1.2 0.3c0.4 0.3 0.5 0.7 0.4 1.2q-0.3 0.4-0.8 0.5c-1.6 0.7 0.5 2.7-0.3 2.8-1 0.2-2.2 0-2.3 1.3q0 0.3-0.1 0.6c-0.2 0.7-0.7 1-1.8 0.4-0.6-0.3-0.8-0.6-1.5-0.6-0.6 0.1-0.9 0.5-1.5 0.4q-0.2 0-0.3 0-0.1-0.1-0.1-0.2c-0.6-0.8-1-0.5-1.8-0.5q-0.1 0-0.1 0c-0.1 0-0.2-0.1-0.2-0.2q0-0.4 0.1-0.7 0-0.1 0-0.3c-0.1-0.2-0.2-0.2-0.4-0.3q-0.1 0-0.1-0.1c-0.4-0.3-0.5-0.7-0.5-1.1q-0.2-0.1-0.6 0c-0.7 0.1-1.2 0.5-2 0.5q-0.1 0-0.3-0.1-0.1-0.1-0.2-0.2c-0.7-1-1.2-0.6-2.3-0.7q-0.1 0-0.2 0-0.1-0.1-0.1-0.3 0-0.4 0.1-0.8 0.1-0.2 0-0.4c-0.1-0.2-0.3-0.3-0.5-0.4q-0.1 0-0.1-0.1c-0.7-0.5-0.8-1.4-0.3-2.1 0.2-0.2 0.5-0.4 0.4-0.8 0-0.3-0.5-0.4-0.8-0.5-0.8-0.4-0.6-1.9-0.1-2.4 0.3-0.2 0.8-0.6 0.6-1-0.1-0.4-0.5-0.5-0.8-0.8-0.5-0.5 0-1.4 0.6-1.8 0.6-0.5 1.3-0.8 1.5-1.5q0.1-0.3 0.2-0.5c0.4-0.5 1.2-0.2 1.7 0.2q0.3 0.2 0.6 0.3c0.1-0.3 0.2-0.6 0.4-0.7 0.3-0.3 0.7-0.8 0.6-1.1-0.1-0.3-0.5-0.5-0.8-0.7-0.5-0.6 0-1.4 0.6-1.9 0.5-0.4 1.3-0.8 1.5-1.5q0.1-0.2 0.2-0.5c0.4-0.5 1.2-0.2 1.7 0.2 0.5 0.4 1.3 0.7 1.6 0.2 0.2-0.3 0.1-0.8 0.3-1.1 0.3-0.5 1.1-0.2 1.6 0.2 0.5 0.3 0.9 0.8 1.5 0.7q-0.2 0-0.4-0.1c-0.8-0.4-0.7-1.9-0.1-2.4 0.4-0.2 0.8-0.6 0.6-1-0.1-0.4-0.5-0.5-0.8-0.8-0.5-0.5 0-1.4 0.6-1.8 0.6-0.5 1.3-0.8 1.5-1.5q0.1-0.3 0.2-0.5c0.4-0.5 1.2-0.2 1.7 0.2 0.5 0.3 1.3 0.7 1.7 0.1 0.2-0.3 0-0.7 0.2-1 0.4-0.5 1.1-0.3 1.6 0.1 0.5 0.4 1.1 0.9 1.6 0.8 0.5-0.1 0.7-0.7 1.3-0.8 0.6 0 1 0.5 1.1 1.1q0.1 0.8 0.4 1.5c0.4-0.2 0.8-0.5 1-1q0-0.3 0.1-0.5c0.4-0.5 1.2-0.2 1.7 0.2 0.5 0.3 1.3 0.7 1.7 0.2 0.2-0.4 0-0.8 0.2-1.1 0.4-0.5 1.1-0.3 1.6 0.1 0.5 0.4 1 0.9 1.6 0.8 0.5-0.1 0.8-0.7 1.3-0.8 0.6 0 1 0.5 1.1 1.1q0.1 0.8 0.5 1.6c0.7-0.2 1.8-0.1 2 0.6 0.1 0.4 0 0.7-0.2 1q0.1 0 0.2 0.1c0.5 0.4 1.1 0.9 1.6 0.8 0.5-0.1 0.7-0.7 1.3-0.8 0.6 0 1 0.5 1.1 1.1q0.1 0.8 0.4 1.6c0.8-0.2 1.9-0.2 2.1 0.6 0.1 0.5-0.3 1-0.6 1.4-0.3 0.4-0.6 1.1-0.3 1.5 0.6-0.1 1.1 0.1 1.6 0.4 0.5 0.3 0.7 0.9 0.5 1.4-0.3 0.3-0.6 0.6-1 0.7-1.2 0.5-0.8 1.5-0.5 2.3q0.1 0 0.1 0c0.5-0.1 0.8-0.7 1.4-0.7 0.5-0.1 0.9 0.5 1.1 1q0.1 0.8 0.4 1.6c0.8-0.2 1.9-0.1 2.1 0.6 0.1 0.6-0.3 1-0.6 1.4-0.4 0.5-0.6 1.1-0.3 1.5 0.6 0 1.1 0.1 1.6 0.4 0.4 0.3 0.6 0.9 0.4 1.4zm-14 1.5q0-0.2 0-0.3 0-0.2-0.2-0.3 0 0.3 0.2 0.6z"/><path class="e" d="m95.1 190.6c0 0-2.8 3.9-3.7 5.1-0.9 1.2-5.6 8.8-6.3 13.8q-0.1 0.8-0.2 1.4c2.1 13.4 1.7 37.7 1.7 41.9h-6.4c-0.1-4.7-0.6-47.7-0.8-49-0.3-1.4-2.9-6.7-7-8.9-4.2-2.1-7.7-9.3-7.7-9.3h1.3c0 0 2.4 4.4 5.9 6.8q0.8 0.5 1.6 0.9c0-2.6 0.4-5.2 1.3-7.7l0.8 0.6c-1 4-0.9 6.5-0.6 7.9q2 0.9 3.6 2.4c3.6-4.7 5.6-15.4 5.6-15.4l0.9 0.5q-0.4 3.4-1.2 6.6c-0.6 2.8-2.6 8-3.6 10.4q1.7 2.3 2.7 5.1 0.2-0.3 0.4-0.5c2.3-2.1 6.7-12.1 6.7-12.1 1.1-2.3-0.5-8.4-0.5-8.4h1.2l0.5 5.3 3.1-3.4 0.6 0.5-3.2 4.2-1.7 5.4 4.4-4.9c0 0 0.6 0.8 0.6 0.8z"/><path class="e" d="m255.2 252.7c0.1-1 0-2.4-1.3-2.8-2.1-0.7-3.3-2.4-3.2-4.2 0-1.9-2.2-3.7-3.9-1.9-1.6 1.7-1.4-1.4-3.6-2.1-2.2-0.7-4.1 1.1-3.5 2.7 0.6 1.7-1.6 2.7-4.2 1.3-2.6-1.4-5.5 1.1-5 3.1 0.6 2 0.1 2.3-1.5 1.6-1.3-0.6-4.6 5.3-4.8 7.1 0 0 31-4.8 31-4.8z"/><path fill-rule="evenodd" class="f" d="m266 198.8c-0.3 0.4-0.7 0.6-1.1 0.8-2.4 0.9 0.7 3.8-0.5 4-1.5 0.2-3.2 0-3.3 1.8q0 0.4-0.1 0.9c-0.3 1-1 1.4-2.5 0.7-0.9-0.5-1.2-1-2.2-0.9-0.8 0.1-1.4 0.6-2.2 0.6q-0.2 0-0.3-0.1-0.2-0.1-0.3-0.3c-0.7-1.1-1.3-0.6-2.6-0.7q-0.1 0-0.2-0.1-0.1-0.1-0.1-0.3-0.1-0.4 0-0.9 0.1-0.2 0.1-0.4c-0.1-0.3-0.3-0.3-0.5-0.4q-0.2-0.1-0.3-0.2c-0.3-0.3-0.5-0.7-0.6-1.1-1.2 0.1-2.2 0.2-2.3 1.7q0 0.4-0.2 0.8c-0.2 1-1 1.5-2.4 0.8-1-0.5-1.2-1-2.3-0.9-0.7 0.1-1.3 0.6-2.1 0.6q-0.2 0-0.4-0.1-0.1-0.1-0.2-0.3c-0.8-1.1-1.4-0.6-2.6-0.7q-0.2 0-0.3-0.1-0.1-0.1-0.1-0.3 0-0.4 0.1-0.9 0.1-0.2 0-0.4c0-0.3-0.3-0.3-0.5-0.4q-0.1-0.1-0.2-0.2-0.3-0.2-0.5-0.6c-0.4 0.1-0.9 0.1-1.6-0.3-0.9-0.4-1.2-1-2.2-0.8-0.8 0-1.4 0.6-2.2 0.5q-0.2 0-0.4-0.1-0.1-0.1-0.2-0.3 0 0 0 0-0.1 0.3 0.1 0.5 0.7 0 1.4 0.3c0.4 0.3 0.6 0.8 0.4 1.3q-0.4 0.5-0.9 0.6c-1.8 0.8 0.6 3.1-0.3 3.2-1.2 0.2-2.6 0-2.7 1.4q0 0.4-0.1 0.7c-0.2 0.8-0.8 1.1-1.9 0.5-0.8-0.3-1-0.7-1.8-0.6-0.6 0-1 0.5-1.7 0.4q-0.2 0-0.3-0.1-0.1 0-0.2-0.2c-0.6-0.8-1-0.5-2-0.5q0 0-0.1 0c-0.1 0-0.2-0.2-0.2-0.3q0-0.4 0.1-0.7 0-0.2 0-0.4c-0.1-0.2-0.3-0.2-0.4-0.3q-0.1-0.1-0.2-0.1c-0.4-0.3-0.5-0.8-0.5-1.3q-0.3-0.1-0.8 0c-0.7 0.1-1.3 0.6-2.1 0.6q-0.2 0-0.4-0.1-0.1-0.1-0.2-0.3c-0.8-1.1-1.4-0.6-2.6-0.7q-0.1 0-0.3-0.1-0.1-0.1-0.1-0.3 0-0.4 0.1-0.9 0.1-0.2 0.1-0.4c-0.1-0.3-0.4-0.3-0.6-0.4q-0.1-0.1-0.2-0.2c-0.7-0.5-0.9-1.6-0.3-2.3 0.3-0.3 0.6-0.5 0.5-0.9 0-0.4-0.6-0.5-0.9-0.7-0.9-0.4-0.7-2.1-0.1-2.6 0.4-0.3 0.9-0.8 0.7-1.2-0.2-0.4-0.6-0.5-0.9-0.8-0.6-0.6 0-1.6 0.6-2.1 0.7-0.5 1.5-0.9 1.8-1.7q0-0.3 0.2-0.6c0.4-0.6 1.3-0.2 1.9 0.2q0.3 0.2 0.6 0.4c0.1-0.4 0.3-0.7 0.5-0.8 0.4-0.3 0.8-0.9 0.7-1.3-0.2-0.3-0.6-0.5-0.9-0.8-0.6-0.6-0.1-1.6 0.6-2.1 0.7-0.5 1.5-0.8 1.8-1.6q0-0.3 0.2-0.6c0.4-0.6 1.3-0.2 1.9 0.2 0.5 0.4 1.4 0.8 1.8 0.2 0.3-0.4 0.1-0.8 0.3-1.2 0.4-0.6 1.3-0.3 1.8 0.2 0.6 0.4 1.1 1 1.8 0.8q-0.3-0.1-0.5-0.2c-0.9-0.4-0.8-2.1-0.1-2.6 0.4-0.3 0.9-0.7 0.7-1.2-0.1-0.4-0.6-0.5-0.9-0.8-0.6-0.6 0-1.6 0.6-2.1 0.7-0.5 1.5-0.9 1.8-1.7q0-0.3 0.2-0.6c0.4-0.6 1.3-0.2 1.9 0.2 0.5 0.4 1.5 0.8 1.8 0.2 0.3-0.3 0.1-0.8 0.3-1.2 0.4-0.5 1.3-0.3 1.8 0.2 0.6 0.4 1.2 1 1.8 0.8 0.6-0.1 0.9-0.8 1.5-0.8 0.7-0.1 1.1 0.5 1.3 1.1q0.1 1 0.4 1.8c0.5-0.3 0.9-0.6 1.1-1.1q0-0.3 0.2-0.6c0.4-0.6 1.3-0.2 1.9 0.2 0.5 0.4 1.4 0.8 1.8 0.2 0.3-0.3 0.1-0.8 0.3-1.2 0.4-0.6 1.3-0.3 1.8 0.2 0.6 0.4 1.1 1 1.8 0.8 0.6-0.1 0.9-0.8 1.5-0.8 0.6-0.1 1.1 0.5 1.3 1.1q0.1 1 0.4 1.9c0.9-0.2 2.1-0.2 2.4 0.7 0 0.4-0.1 0.7-0.3 1q0.1 0.1 0.3 0.2c0.5 0.5 1.2 1 1.7 0.9 0.6-0.1 0.9-0.8 1.5-0.9 0.7 0 1.1 0.6 1.3 1.2q0.1 0.9 0.5 1.8c0.9-0.2 2.1-0.1 2.3 0.7 0.1 0.6-0.3 1.2-0.7 1.6-0.3 0.5-0.7 1.2-0.3 1.7 0.6-0.1 1.3 0.1 1.8 0.4 0.5 0.3 0.7 1 0.5 1.6-0.3 0.4-0.7 0.7-1.1 0.8-1.4 0.5-0.9 1.7-0.5 2.7q0 0 0.1 0c0.6-0.2 0.9-0.8 1.5-0.9 0.6-0.1 1.1 0.6 1.3 1.2q0.1 0.9 0.5 1.8c0.8-0.2 2.1-0.2 2.3 0.7 0.1 0.6-0.3 1.1-0.7 1.6-0.4 0.5-0.7 1.2-0.3 1.6 0.6 0 1.2 0.1 1.8 0.5 0.5 0.3 0.7 1 0.5 1.6zm-15.9 1.6q0.1-0.1 0.1-0.3-0.1-0.3-0.3-0.4 0.1 0.4 0.2 0.7z"/><path class="e" d="m253.4 201c0 0-3.1 4.3-4.2 5.7-1 1.3-6.3 9.9-7 15.6q-0.2 0.9-0.3 1.6c2.3 15 2 42.5 1.9 47.2h-7.3c0-5.3-0.6-53.8-0.9-55.3-0.2-1.6-3.2-7.5-7.9-10-4.6-2.4-8.7-10.6-8.7-10.6h1.5c0 0 2.8 5 6.7 7.8q0.9 0.5 1.8 1c0-3 0.5-6 1.5-8.8l0.8 0.8c-1.1 4.4-0.9 7.3-0.6 8.9q2.3 1 4.1 2.7c4-5.3 6.3-17.4 6.3-17.4l1.1 0.6q-0.5 3.7-1.4 7.4c-0.8 3.1-3 9-4.1 11.7q1.9 2.7 3.1 5.8 0.2-0.3 0.4-0.5c2.6-2.4 7.6-13.7 7.6-13.7 1.2-2.6-0.6-9.5-0.6-9.5h1.4l0.6 6 3.5-3.8 0.6 0.5-3.6 4.8-1.9 6 4.9-5.5c0 0 0.7 1 0.7 1z"/><path class="e" d="m157.6 237.7c0.2-0.7 0.4-1.6-0.3-2.1-1.1-0.8-1.6-2.1-1.1-3.2 0.4-1.2-0.6-2.7-2-2-1.4 0.8-0.6-1.1-1.9-2-1.2-0.9-2.7-0.2-2.7 1 0.1 1.1-1.5 1.3-2.8-0.1-1.4-1.4-3.7-0.4-3.8 0.9 0 1.4-0.4 1.4-1.2 0.7-0.8-0.6-3.9 2.4-4.5 3.4 0 0 20.3 3.4 20.3 3.4z"/><path fill-rule="evenodd" class="f" d="m167.2 208.3q-0.3 0.4-0.8 0.5c-1.5 0.6 0.5 2.5-0.2 2.7-1 0.1-2.1-0.1-2.2 1.1q0 0.3-0.1 0.6c-0.2 0.7-0.6 0.9-1.6 0.5-0.6-0.3-0.8-0.7-1.5-0.6-0.5 0.1-0.8 0.4-1.4 0.4q-0.1 0-0.2-0.1-0.1-0.1-0.2-0.2c-0.5-0.7-0.8-0.4-1.6-0.4q-0.1 0-0.2-0.1-0.1 0-0.1-0.2 0-0.3 0.1-0.5 0-0.2 0-0.4c-0.1-0.1-0.2-0.2-0.4-0.2q0-0.1-0.1-0.1c-0.2-0.2-0.4-0.5-0.4-0.8-0.8 0.1-1.5 0.2-1.5 1.1q0 0.3-0.1 0.6c-0.2 0.7-0.7 1-1.6 0.5-0.6-0.3-0.8-0.7-1.5-0.6-0.5 0.1-0.9 0.4-1.4 0.4q-0.1 0-0.2-0.1-0.1 0-0.2-0.1c-0.5-0.7-0.9-0.5-1.7-0.5q-0.1 0-0.1 0-0.1-0.1-0.1-0.2 0-0.3 0-0.6 0.1-0.2 0.1-0.3c-0.1-0.2-0.2-0.2-0.4-0.3q-0.1 0-0.1-0.1-0.2-0.2-0.3-0.4-0.4 0.2-1.1-0.2c-0.6-0.3-0.8-0.6-1.5-0.5-0.5 0-0.8 0.4-1.4 0.3q-0.1 0-0.2 0-0.1-0.1-0.2-0.2 0 0 0-0.1 0 0.2 0.1 0.4 0.5 0 0.9 0.2c0.3 0.2 0.4 0.5 0.3 0.8q-0.3 0.3-0.6 0.4c-1.2 0.5 0.4 2-0.2 2.1-0.8 0.1-1.7 0-1.7 0.9q0 0.3-0.1 0.5c-0.1 0.5-0.5 0.7-1.3 0.3-0.5-0.2-0.6-0.5-1.1-0.4-0.4 0-0.7 0.3-1.2 0.3q0 0-0.1-0.1-0.1 0-0.2-0.1c-0.3-0.6-0.6-0.3-1.3-0.4q0 0 0 0c-0.1 0-0.2-0.1-0.2-0.1q0-0.3 0.1-0.5 0-0.1 0-0.3c0-0.1-0.2-0.1-0.3-0.2q0 0-0.1 0c-0.3-0.2-0.4-0.5-0.3-0.8q-0.2-0.1-0.5-0.1c-0.5 0.1-0.9 0.4-1.4 0.4q-0.1 0-0.3-0.1-0.1 0-0.1-0.1c-0.5-0.7-0.9-0.5-1.7-0.5q-0.1 0-0.2 0 0-0.1 0-0.2-0.1-0.3 0-0.6 0.1-0.2 0-0.3c0-0.2-0.2-0.2-0.3-0.3q-0.1 0-0.1-0.1c-0.5-0.4-0.6-1.1-0.2-1.5 0.1-0.2 0.3-0.4 0.3-0.6-0.1-0.3-0.4-0.3-0.6-0.4-0.6-0.3-0.5-1.4-0.1-1.8 0.3-0.2 0.6-0.4 0.5-0.7-0.1-0.3-0.4-0.4-0.6-0.6-0.4-0.4 0-1 0.4-1.3 0.4-0.4 1-0.6 1.1-1.1q0.1-0.2 0.2-0.4c0.2-0.4 0.8-0.2 1.2 0.1q0.2 0.2 0.4 0.3 0.1-0.4 0.3-0.6c0.3-0.2 0.6-0.5 0.5-0.8-0.1-0.2-0.4-0.3-0.6-0.5-0.4-0.4 0-1 0.4-1.4 0.4-0.3 1-0.5 1.2-1q0-0.3 0.1-0.4c0.3-0.4 0.8-0.2 1.2 0.1 0.4 0.3 1 0.5 1.2 0.1 0.2-0.2 0.1-0.5 0.2-0.7 0.3-0.4 0.9-0.2 1.2 0 0.4 0.3 0.7 0.7 1.1 0.6q-0.1 0-0.3-0.1c-0.5-0.3-0.5-1.4 0-1.7 0.2-0.2 0.5-0.5 0.4-0.8-0.1-0.3-0.4-0.3-0.6-0.5-0.3-0.4 0-1.1 0.4-1.4 0.5-0.3 1-0.6 1.2-1.1q0-0.2 0.1-0.4c0.3-0.4 0.9-0.1 1.3 0.1 0.3 0.3 0.9 0.6 1.2 0.2 0.1-0.2 0-0.6 0.2-0.8 0.2-0.4 0.8-0.2 1.2 0.1 0.3 0.3 0.7 0.6 1.1 0.6 0.4-0.1 0.6-0.6 1-0.6 0.4 0 0.7 0.4 0.8 0.8q0.1 0.6 0.3 1.1c0.3-0.2 0.6-0.4 0.7-0.7q0-0.2 0.1-0.4c0.3-0.4 0.9-0.2 1.3 0.1 0.3 0.3 0.9 0.5 1.2 0.2 0.1-0.3 0-0.6 0.2-0.8 0.2-0.4 0.8-0.2 1.1 0.1 0.4 0.3 0.8 0.6 1.2 0.5 0.4 0 0.6-0.5 1-0.5 0.4-0.1 0.7 0.3 0.8 0.7q0.1 0.7 0.3 1.2c0.6-0.1 1.4-0.1 1.5 0.5 0.1 0.3 0 0.5-0.2 0.7q0.1 0.1 0.2 0.1c0.4 0.3 0.8 0.7 1.2 0.6 0.4-0.1 0.5-0.5 1-0.6 0.4 0 0.7 0.4 0.8 0.8q0.1 0.6 0.3 1.2c0.6-0.2 1.4-0.1 1.5 0.4 0.1 0.4-0.2 0.8-0.4 1.1-0.3 0.3-0.5 0.7-0.2 1q0.6 0 1.1 0.3c0.4 0.3 0.5 0.7 0.4 1.1q-0.3 0.4-0.8 0.5c-0.8 0.3-0.6 1.1-0.3 1.7q0 0 0.1 0c0.4-0.1 0.6-0.5 1-0.5 0.4-0.1 0.7 0.3 0.8 0.7q0.1 0.6 0.3 1.2c0.6-0.1 1.4-0.1 1.5 0.5 0.1 0.4-0.2 0.7-0.4 1-0.3 0.3-0.5 0.8-0.2 1.1q0.6 0 1.1 0.3c0.4 0.2 0.5 0.6 0.4 1zm-10.4 1.1q0.1-0.1 0-0.2 0-0.2-0.1-0.2 0 0.2 0.1 0.4z"/><path class="e" d="m158.9 209.8c0-0.1-2 2.8-2.7 3.7-0.6 0.9-4.1 6.5-4.6 10.2q0 0.6-0.1 1c1.5 9.8 1.2 27.8 1.2 30.9h-4.7c-0.1-3.5-0.5-35.2-0.6-36.2-0.2-1-2.2-4.9-5.2-6.5-3-1.6-5.7-6.9-5.7-6.9h1c0 0 1.8 3.3 4.4 5.1q0.5 0.3 1.1 0.6c0-1.9 0.4-3.9 1-5.7l0.6 0.5c-0.7 2.9-0.7 4.8-0.4 5.8q1.4 0.7 2.6 1.8c2.7-3.5 4.2-11.4 4.2-11.4l0.6 0.4q-0.3 2.5-0.9 4.9c-0.5 2-1.9 5.8-2.6 7.6q1.2 1.7 2 3.7 0.1-0.1 0.2-0.3c1.8-1.5 5-8.9 5-8.9 0.8-1.7-0.4-6.2-0.4-6.2h0.9l0.4 3.9 2.3-2.5 0.4 0.4-2.4 3.1-1.2 3.9 3.2-3.6c0 0 0.4 0.6 0.4 0.6z"/><path class="f" d="m20.2 274.7c0 0 46.4-48.1 112.2-40.8 65.9 7.2 159.9 27.2 163.4 23.7 3.5-3.5 89-21 109.7-18.8 20.7 2.3 84 35.8 84 35.8z"/><path class="a" d="m451.1 252c2.4-1.1 4.8-2.2 6.9-3.9 2-1.7 3.6-4.2 3.7-6.8-5.3 1.2-10.1 4.7-12.9 9.3 1-6.1 0.9-12.5-0.4-18.6-2.2 2.4-3.5 5.7-3.7 9-0.3 3.3 0.4 6.6 1.7 9.7-2.8-3.7-6.1-7-9.9-9.6 1.8 6.1 5.4 11 10.9 14.2l1.2 0.2c4.9 0.9 9.3-0.6 12.5-2.2 1.4-0.6 3.2-1.7 3-2.2-4.4-0.1-8.7 0.2-13 0.9z"/><path class="c" d="m461 82.1c-1.5-1.1-3.6-1.2-5.2-0.3-2.1-4.2-7.9-6.1-12-3.9-1.1-4.5-5.6-8-10.2-7.9-4.7 0-9.1 3.6-10.1 8.2-0.1 0.7-0.2 1.5-0.8 2-0.8 0.9-2.2 0.6-3.4 0.5-3.8-0.3-7.6 2.4-8.6 6l52.1-0.2c0.4-1.7-0.4-3.3-1.8-4.4z"/><path class="c" d="m436.2-9.2c-1.5-1.1-3.6-1.2-5.1-0.3-2.1-4.2-7.9-6.1-12.1-3.9-1.1-4.5-5.6-8-10.2-7.9-4.7 0-9.1 3.6-10.1 8.2-0.1 0.7-0.2 1.5-0.7 2-0.9 0.9-2.3 0.6-3.5 0.5-3.8-0.3-7.6 2.4-8.6 6l52.1-0.2c0.4-1.7-0.3-3.3-1.8-4.4z"/><path class="c" d="m125.3-7.8c-2.4-1.5-5.7-1.6-8.3-0.4-3.3-5.8-12.6-8.4-19.2-5.3-1.7-6.3-8.9-11.1-16.4-11.1-7.4 0.1-14.4 5.1-16 11.4-0.2 1-0.4 2.1-1.2 2.9-1.4 1.2-3.6 0.8-5.5 0.6-6.1-0.4-12.2 3.3-13.8 8.4l83.2-0.3c0.7-2.5-0.5-4.6-2.8-6.2z"/><path class="f" d="m420.8 41c-2.6-2-6.4-2.2-9.3-0.5-3.8-7.7-14.3-11.1-21.8-7-2-8.3-10.1-14.6-18.6-14.5-8.5 0.1-16.4 6.6-18.2 14.9-0.3 1.3-0.5 2.8-1.4 3.7-1.5 1.6-4.1 1.1-6.3 0.9-6.8-0.5-13.7 4.3-15.6 10.9l94.5-0.3c0.8-3.2-0.6-6.1-3.3-8.1z"/><path class="b" d="m163.1 47.9c-1.7-1.2-4.1-1.4-5.8-0.3-2.4-4.8-9-6.9-13.7-4.4-1.2-5.1-6.3-9.1-11.6-9-5.3 0.1-10.2 4.1-11.3 9.3-0.2 0.8-0.3 1.7-0.9 2.3-1 1-2.6 0.7-3.9 0.6-4.3-0.4-8.6 2.6-9.8 6.8l59-0.2c0.5-2-0.4-3.8-2-5.1z"/><path class="c" d="m218.8 404.7c-4.1-5.3-9.3-9.9-15.2-13.1l0.4-0.7c6 3.3 11.3 7.9 15.4 13.4 0 0-0.6 0.4-0.6 0.4z"/><path class="c" d="m221.3 403.8c-1.3-4.7-3.7-9.1-7-12.8l0.6-0.5c3.3 3.8 5.8 8.3 7.2 13.1 0 0-0.8 0.2-0.8 0.2z"/><path class="c" d="m221.6 388.3l0.8-0.1 2.6 16.2-0.8 0.1z"/><path class="c" d="m472.4 361c-4-5.4-9.2-9.9-15.1-13.2l0.4-0.6c6 3.3 11.3 7.9 15.3 13.3z"/><path class="c" d="m475 360c-1.3-4.7-3.8-9.1-7-12.8l0.6-0.5c3.3 3.8 5.7 8.3 7.1 13.1 0 0-0.7 0.2-0.7 0.2z"/><path class="c" d="m475.3 344.5l0.8-0.1 2.6 16.2-0.8 0.2z"/><path class="c" d="m36.8 388.5c-2.4-3.1-5.4-5.8-8.9-7.7l0.4-0.6c3.5 1.9 6.7 4.7 9.1 7.9z"/><path class="c" d="m38.3 387.9c-0.8-2.7-2.2-5.3-4.1-7.5l0.6-0.4c1.9 2.2 3.4 4.9 4.2 7.7z"/><path class="c" d="m38.5 378.8l0.7-0.1 1.6 9.5-0.8 0.1z"/><path class="c" d="m40.4 307.7c-2.3-3.2-5.4-5.8-8.9-7.7l0.4-0.7c3.5 2 6.7 4.7 9.1 7.9 0 0-0.6 0.5-0.6 0.5z"/><path class="c" d="m41.9 307.1c-0.8-2.8-2.2-5.4-4.1-7.5l0.6-0.5c1.9 2.2 3.4 4.9 4.2 7.8 0 0-0.7 0.2-0.7 0.2z"/><path class="c" d="m42.1 297.9l0.7-0.1 1.6 9.6-0.8 0.1z"/><path class="c" d="m463.7 337.6c0 3.4-93.5 6.1-208.9 6.1-115.3 0-208.8-2.7-208.8-6.1 0-3.4 93.5-6.1 208.8-6.1 115.4 0 208.9 2.7 208.9 6.1z"/><path  d="m209.3 337.6c0 0 14.1 0 19.9-0.1 7.1-0.2 14.2-2.8 19.6-11 9.6-14.9 9.6-38.9 0-53.8-4.9-7.4-14.2-11.1-20.5-11.1h-18.9c-9.6 14.8-9.8 61.1-0.1 76z"/><path class="g" d="m209.4 337.6c-13.6 0-24.7-17-24.7-38 0-21 11.1-38 24.7-38 13.7 0 24.8 17 24.8 38 0 21-11.1 38-24.8 38z"/><g style="opacity:.3"><path class="d" d="m208.2 280.5v11.9c0 1.1 0.6 1.9 1.2 1.9h0.1c0.6 0 1.2-0.8 1.2-1.9v-11.9c0-1-0.6-1.9-1.2-1.9h-0.1c-0.6 0-1.2 0.9-1.2 1.9z"/></g><g style="opacity:.3"><path class="d" d="m208.2 306.7v12c0 1 0.6 1.8 1.2 1.8h0.1c0.6 0 1.2-0.8 1.2-1.8v-12c0-1-0.6-1.8-1.2-1.8h-0.1c-0.6 0-1.2 0.8-1.2 1.8z"/></g><g style="opacity:.3"><path class="d" d="m204.8 297.6c0.6 0.5 1.3 0.2 1.7-0.7 0.3-0.8 0.1-2-0.5-2.5l-6.7-6c-0.6-0.5-1.3-0.2-1.7 0.7-0.3 0.9-0.1 2 0.5 2.5l6.7 6q0 0 0 0z"/></g><g style="opacity:.3"><path class="d" d="m221.3 310c0.3-0.9 0.1-2-0.5-2.5l-6.7-6c-0.6-0.5-1.3-0.2-1.7 0.7-0.3 0.8-0.1 2 0.5 2.5l6.7 6c0.6 0.5 1.3 0.2 1.7-0.7z"/></g><g style="opacity:.3"><path class="d" d="m197.6 310.1c0.4 0.9 1.1 1.2 1.7 0.7l6.7-6c0.6-0.6 0.8-1.7 0.5-2.6-0.4-0.9-1.1-1.2-1.7-0.7l-6.7 6c-0.6 0.5-0.8 1.7-0.5 2.6q0 0 0 0z"/></g><g style="opacity:.3"><path class="d" d="m212.4 297c0.4 0.8 1.1 1.1 1.7 0.6l6.7-6c0.6-0.5 0.8-1.6 0.5-2.5-0.4-0.9-1.1-1.2-1.7-0.7l-6.7 6c-0.6 0.5-0.8 1.7-0.5 2.5z"/></g><path class="g" d="m209.4 296.5c-1.1 0-2 1.4-2 3.1 0 1.7 0.9 3.1 2 3.1 1.2 0 2.1-1.4 2.1-3.1 0-1.7-0.9-3.1-2.1-3.1z"/><path class="h" d="m209.4 337.6c-13.6 0-24.7-17-24.7-38 0-21 11.1-38 24.7-38 13.7 0 24.8 17 24.8 38 0 21-11.1 38-24.8 38z"/><path class="i" d="m284.7 316.1c0 0 5.3-58.9-31.4-58.9 0 0-20.1 0.2-23.3 27.7-3.2 27.5-1.2 31.2-1.2 31.2z"/><path class="h" d="m284.7 316.1c0 0 5.3-58.9-31.4-58.9 0 0-20.1 0.2-23.3 27.7-3.2 27.5-1.2 31.2-1.2 31.2z"/><path class="i" d="m116.7 318.4c0 0 5.9-62.8-32.5-70.2 0 0-21.7 0.2-25.2 31.8-3.4 31.5 11.7 37 11.7 37z"/><path class="h" d="m116.7 318.4c0 0 5.9-62.8-32.5-70.2 0 0-21.7 0.2-25.2 31.8-3.4 31.5 11.7 37 11.7 37z"/><path  d="m83.1 335.9c0 0 13.1 0 18.6-0.2 6.5-0.1 13.1-2.8 18.1-11 9-14.8 9-38.8 0-53.7-4.5-7.4-13.1-11.1-19-11.1h-17.5c-9 14.8-9.1 61.1-0.2 76z"/><path class="g" d="m83.3 335.9c-12.7 0-23-17-23-38 0-21 10.3-38 23-38 12.7 0 23 17 23 38 0 21-10.3 38-23 38z"/><g style="opacity:.3"><path class="d" d="m82.2 278.8v11.9c0 1.1 0.5 1.9 1.1 1.9 0.6 0 1.1-0.8 1.1-1.9v-11.9c0-1-0.5-1.9-1.1-1.9-0.6 0-1.1 0.9-1.1 1.9z"/></g><g style="opacity:.3"><path class="d" d="m82.2 305v12c0 1 0.5 1.8 1.1 1.8 0.6 0 1.1-0.8 1.1-1.8v-12c0-1-0.5-1.8-1.1-1.8-0.6 0-1.1 0.8-1.1 1.8z"/></g><g style="opacity:.3"><path class="d" d="m79 295.9c0.5 0.5 1.2 0.2 1.5-0.7 0.3-0.9 0.2-2-0.4-2.5l-6.2-6c-0.6-0.5-1.3-0.2-1.6 0.7-0.3 0.9-0.1 2 0.4 2.5l6.3 6q0 0 0 0z"/></g><g style="opacity:.3"><path class="d" d="m94.3 308.3c0.3-0.9 0.1-2-0.4-2.5l-6.3-6c-0.5-0.6-1.2-0.3-1.5 0.6-0.3 0.9-0.2 2.1 0.4 2.6l6.2 6c0.6 0.5 1.3 0.2 1.6-0.7z"/></g><g style="opacity:.3"><path class="d" d="m72.3 308.4c0.3 0.8 1 1.2 1.6 0.6l6.2-6c0.6-0.5 0.7-1.6 0.4-2.5-0.3-0.9-1-1.2-1.5-0.7l-6.3 6c-0.5 0.5-0.7 1.7-0.4 2.6q0 0 0 0z"/></g><g style="opacity:.3"><path class="d" d="m86.1 295.2c0.3 0.9 1 1.2 1.5 0.7l6.3-6c0.5-0.5 0.7-1.6 0.4-2.5-0.3-0.9-1-1.2-1.6-0.7l-6.2 6c-0.6 0.5-0.7 1.6-0.4 2.5q0 0 0 0z"/></g><path class="g" d="m83.3 294.7c-1 0-1.9 1.4-1.9 3.2 0 1.7 0.9 3.1 1.9 3.1 1 0 1.9-1.4 1.9-3.1 0-1.8-0.9-3.2-1.9-3.2z"/><path  d="m254.5 337.6c0 0 14.1 0 20-0.1 7-0.2 14.2-2.8 19.5-11 9.7-14.9 9.7-38.9 0-53.8-4.8-7.4-14.1-11.1-20.5-11.1h-18.8c-9.7 14.8-9.9 61.1-0.2 76z"/><path class="g" d="m254.7 337.6c-13.7 0-24.7-17-24.7-38 0-21 11-38 24.7-38 13.7 0 24.7 17 24.7 38 0 21-11 38-24.7 38z"/><g style="opacity:.3"><path class="d" d="m253.5 280.5v11.9c0 1.1 0.5 1.9 1.2 1.9 0.7 0 1.2-0.8 1.2-1.9v-11.9c0-1-0.5-1.9-1.2-1.9-0.7 0-1.2 0.9-1.2 1.9z"/></g><g style="opacity:.3"><path class="d" d="m253.5 306.7v12c0 1 0.5 1.8 1.2 1.8 0.7 0 1.2-0.8 1.2-1.8v-12c0-1-0.5-1.8-1.2-1.8-0.7 0-1.2 0.8-1.2 1.8z"/></g><g style="opacity:.3"><path class="d" d="m250.1 297.6c0.5 0.5 1.3 0.2 1.6-0.7 0.3-0.8 0.1-2-0.4-2.5l-6.8-6c-0.5-0.5-1.3-0.2-1.6 0.7-0.4 0.9-0.2 2 0.4 2.5l6.8 6q0 0 0 0z"/></g><g style="opacity:.3"><path class="d" d="m266.5 310c0.3-0.9 0.1-2-0.4-2.5l-6.8-6c-0.5-0.5-1.3-0.2-1.6 0.7-0.4 0.8-0.2 2 0.4 2.5l6.7 6c0.6 0.5 1.4 0.2 1.7-0.7z"/></g><g style="opacity:.3"><path class="d" d="m242.9 310.1c0.3 0.9 1.1 1.2 1.6 0.7l6.8-6c0.6-0.6 0.7-1.7 0.4-2.6-0.3-0.9-1.1-1.2-1.6-0.7l-6.8 6c-0.6 0.5-0.8 1.7-0.4 2.6z"/></g><g style="opacity:.3"><path class="d" d="m257.7 297c0.3 0.8 1.1 1.1 1.6 0.6l6.8-6c0.5-0.5 0.7-1.6 0.4-2.5-0.3-0.9-1.1-1.2-1.7-0.7l-6.7 6c-0.6 0.5-0.8 1.7-0.4 2.5z"/></g><path class="g" d="m254.7 296.5c-1.1 0-2 1.4-2 3.1 0 1.7 0.9 3.1 2 3.1 1.1 0 2-1.4 2-3.1 0-1.7-0.9-3.1-2-3.1z"/><path  d="m409.3 337.6c0 0 14.1 0 19.9-0.1 7.1-0.2 14.2-2.8 19.6-11 9.6-14.9 9.6-38.9 0-53.8-4.9-7.4-14.2-11.1-20.5-11.1h-18.9c-9.6 14.8-9.8 61.1-0.1 76z"/><path class="g" d="m409.4 337.6c-13.6 0-24.7-17-24.7-38 0-21 11.1-38 24.7-38 13.7 0 24.8 17 24.8 38 0 21-11.1 38-24.8 38z"/><path class="h" d="m409.4 337.6c-13.6 0-24.7-17-24.7-38 0-21 11.1-38 24.7-38 13.7 0 24.8 17 24.8 38 0 21-11.1 38-24.8 38z"/><g style="opacity:.3"><path class="d" d="m408.2 280.5v11.9c0 1.1 0.6 1.9 1.2 1.9h0.1c0.6 0 1.2-0.8 1.2-1.9v-11.9c0-1-0.6-1.9-1.2-1.9h-0.1c-0.6 0-1.2 0.9-1.2 1.9z"/></g><g style="opacity:.3"><path class="d" d="m408.2 306.7v12c0 1 0.6 1.8 1.2 1.8h0.1c0.6 0 1.2-0.8 1.2-1.8v-12c0-1-0.6-1.8-1.2-1.8h-0.1c-0.6 0-1.2 0.8-1.2 1.8z"/></g><g style="opacity:.3"><path class="d" d="m404.8 297.6c0.6 0.5 1.3 0.2 1.7-0.7 0.3-0.8 0.1-2-0.5-2.5l-6.7-6c-0.6-0.5-1.3-0.2-1.7 0.7-0.3 0.9-0.1 2 0.5 2.5l6.7 6q0 0 0 0z"/></g><g style="opacity:.3"><path class="d" d="m421.3 310c0.3-0.9 0.1-2-0.5-2.5l-6.7-6c-0.6-0.5-1.3-0.2-1.7 0.7-0.3 0.8-0.1 2 0.5 2.5l6.7 6c0.6 0.5 1.3 0.2 1.7-0.7z"/></g><g style="opacity:.3"><path class="d" d="m397.6 310.1c0.4 0.9 1.1 1.2 1.7 0.7l6.7-6c0.6-0.6 0.8-1.7 0.5-2.6-0.4-0.9-1.1-1.2-1.7-0.7l-6.7 6c-0.6 0.5-0.8 1.7-0.5 2.6z"/></g><g style="opacity:.3"><path class="d" d="m412.4 297c0.4 0.8 1.1 1.1 1.7 0.6l6.7-6c0.6-0.5 0.8-1.6 0.5-2.5-0.4-0.9-1.1-1.2-1.7-0.7l-6.7 6c-0.6 0.5-0.8 1.7-0.5 2.5z"/></g><path class="g" d="m409.4 296.5c-1.1 0-2 1.4-2 3.1 0 1.7 0.9 3.1 2 3.1 1.2 0 2.1-1.4 2.1-3.1 0-1.7-0.9-3.1-2.1-3.1z"/><path class="i" d="m55.5 250.3c2.1-11.4 5.6-29.7 7.4-31.9 1.8-2.1 11-2.8 11-2.8 9.5-10.6 39.9-28.6 55.5-36.4 15.5-7.8 27.6-9.6 86.6-13.1 59.1-3.6 94.1 4.9 94.1 4.9 30.1 3.2 79.9 46 79.9 46 28.3 5.3 47.4 19.8 47.4 19.8 0 0 15.3 2.1 22 9.6 6.7 7.4 7.4 15.9 7.4 15.9 0 0 3.9 0 6 3.2 2.1 3.2 1.1 25.1 0 36-1 11-9.5 16-9.5 16l-171.8-1.1c-3.6 0-6.5-3-6.5-6.6 0.1-15.4-2.6-52.3-31.7-52.3 0 0-20.1 0.3-23.3 27.7-2.8 23.6-1.6 29.6-1.3 30.9l-119.1 1.4-0.7-0.2c0.4-7.5 3.5-42.8-14.5-55.7-5.4-3.8-14.6-4.3-20.2-0.7-5.7 3.5-12.2 10.9-13.7 25.9-0.8 5.7-0.8 10.9-0.5 17.9l-4.5-2.4c-0.7-4.3-2.2-40.7 0-52z"/><path class="g" d="m450.3 258.6c0.9 1.2 9.4 13.2 9.4 13.2 2.2 1.2-7.1 7.9-7.1 6.8h-73l-19.7-6.7c0.6-1.6 8.3-12.4 14.7-13.3 6.4-0.9 75.7 0 75.7 0z"/><path class="g" d="m152.3 308.4q-0.1 0-0.1-0.2c0-0.2-1.6-21.7-2-33.7 0-2.3-0.3-7.3-0.5-13.1-0.6-12.2-1.4-29-1.2-33.5 0.3-6.5 7.4-11.4 7.4-11.5q0.1 0 0.2 0.1 0.1 0.1 0 0.1c-0.1 0.1-7 4.9-7.4 11.3-0.2 4.5 0.6 21.3 1.2 33.5 0.3 5.8 0.5 10.8 0.6 13.1 0.3 12 1.9 33.5 1.9 33.7q0 0.1-0.1 0.2 0 0 0 0z"/><path class="g" d="m222.3 311.2l-108.7-4.4q-0.1 0-0.1-0.1l-1.9-16.5c-4.9-23.1-14.3-30.5-19.3-34.5-1.5-1.2-2.6-2.1-3-3-1.4-3.5-3.2-31.8-2.8-35.6 0.3-2.6 7.7-8.2 12.2-11.5 1.5-1.1 2.7-2 3-2.4q0.1 0 0.2 0 0.1 0.1 0 0.2c-0.3 0.4-1.5 1.2-3.1 2.4-4.4 3.3-11.8 8.8-12 11.4-0.4 3.6 1.4 32 2.8 35.4 0.3 0.9 1.4 1.7 2.9 2.9 5 4 14.4 11.5 19.3 34.6l1.9 16.4 108.5 4.5c0.2-1 0-10.2-0.1-20.8-0.4-22-0.9-52.1 0.2-57.4 2.3-10.6 11.9-13.8 12-13.9q0.1 0 0.1 0.1 0.1 0.1 0 0.2c-0.1 0-9.5 3.2-11.8 13.6-1.2 5.4-0.6 36.7-0.3 57.4 0.3 17.9 0.3 20.8 0.1 21q0 0-0.1 0z"/><path class="g" d="m379.6 216h-130c0 0-33.1-31.1-42.7-40.9 12-1.8 82.5-3.1 104.2 0 0 0 37.2 6.6 68.5 40.9z"/><path class="g" d="m234.7 216c0 0-34.5-35-41.6-38-7.1-3.1-30.9-1.3-40.6 0-9.6 1.2-44.6 16.5-50.7 25.3 0 0 5.6 8.1 15.5 10.7 9.9 2.5 7.3 0.7 28.1 2 20.8 1.3 89.3 3.3 89.3 3.3z"/><path class="g" d="m450.3 258.7q-0.1 0-0.1-0.1c1.4-10.9-12.7-21.9-12.8-22q-0.1-0.1-0.1-0.2 0.1-0.1 0.2 0c0.2 0.1 14.4 11.2 12.9 22.2q0 0.1-0.1 0.1z"/><path class="j" d="m466.8 262c-0.8 1.1-1.5 7.6-7.6 7.7l-6.6-8.2c0 0 3-12.6 1.2-19.7 0 0 5.9 3.7 8 7.4 2.2 3.7 5 12.8 5 12.8z"/><path class="h" d="m299.3 239.8c0 0-10.3-10.3-48.2-18.1l-16.4-2.4c-2.9 0.2-5.8 2.3-8.8 5.7-12.3 2.4-91.5-4.1-91.5-4.1 0 0 81.2 6.3 105.6 7.9 24.4 1.6 23.8 1.8 59.3 11z"/><path class="k" d="m61.5 221.9c0.3-0.1 8.8 1.1 14.5 2.6 0 0-11.3 12.6-15 13.2l-3-0.6c0 0 0.5-13.6 3.5-15.2z"/><path class="g" d="m303.5 245.1q0 0-0.1-0.1-0.1 0 0-0.1c0 0 0.3-0.8-0.1-1.8-0.5-1-1.7-2.5-5.3-3.7-2.2-0.7-7.1-1.9-12.7-3.3-12.9-3.3-30.7-7.7-32.1-10.2-2-3.4-3.7-9.8-3.8-9.9 0 0 0.1-0.1 0.1-0.1q0.1 0 0.2 0.1c0 0 1.7 6.4 3.7 9.8 1.4 2.4 19.1 6.8 31.9 10 5.7 1.5 10.6 2.7 12.8 3.4 2.9 1 4.8 2.3 5.4 3.8 0.5 1.1 0.1 1.9 0.1 2q0 0.1-0.1 0.1z"/><path class="l" d="m218.5 303.4c0 0-99.1-1.4-100.3-3.3-1.3-1.9 7.2-7.6 7.2-7.6 1.3-0.9 92.4 5.4 93.1 10.9z"/><path class="a" d="m419.2 263.3c-5.3 0-9.5-1.8-9.5-4 0-2.3 4.2-4.1 9.5-4.1 5.2 0 9.4 1.8 9.4 4.1 0 2.2-4.2 4-9.4 4z"/><path class="g" d="m455.6 299.2c0 0 7.7 3.6 7.4 3.6-0.3 0-1.8 7.9-1.8 7.9l-118.1-1.7-11.1-9.4 35.4-0.5c0 0 88.2 0.1 88.2 0.1z"/><path class="g" d="m302.2 299.6c0.4 0.6 11.1 0 11.1 0l10.9 9.2-16-0.4z"/><path class="g" d="m374.5 259.4l-12.9-1.4q-0.1 0-0.1-0.1c0-0.1 0-0.1 0.1-0.1l12.9 1.3q0.1 0.1 0.1 0.2 0 0.1-0.1 0.1z"/><path class="j" d="m361.6 257.2c0 0-63.5-14.2-68.4-13.7-4.9 0.5-18.4 4.4-17.4 8.1 0.9 3.7 11.3 9.3 25.1 11.5 10.9 1.8 28.7 4 40.5 4.7 14.4 0.9 20.2-10.6 20.2-10.6z"/><path class="h" d="m358.8 283.9c0 0-24.2-11.8-33.5-11.8-9.4 0-51-12.2-51-12.2 0 0 31.1 19.7 38 21.4 6.9 1.6 46.5 2.6 46.5 2.6z"/><path class="l" d="m372.2 213.2c0 0-35.1-31.8-64.4-34.8-29.3-3-47.6-2.1-47.6-2.1 0 0 8.7 22.3 24.8 26.7 16.1 4.4 87.2 10.2 87.2 10.2z"/><path class="h" d="m471.6 267.8c0 0 0.8 6.3-0.7 9.3-1.5 2.9-15.7 6.7-15.7 6.7 0 0 16.4-16 16.4-16z"/><path class="j" d="m299.8 255.3c0 4 4.3 7.1 9.5 7.1 5.3 0 9.5-3.1 9.5-7.1 0-3.9-4.2-7.1-9.5-7.1-5.2 0-9.5 3.2-9.5 7.1z"/><path class="j" d="m306.9 247.7l-13.7-1.4c0 0-4 8.6 4.1 13.6 0 0-10-3-7-13.6 0.2-0.9 0.7-1.9 2.9-1.4 0.8 0.2 13.7 2.8 13.7 2.8z"/><path class="l" d="m382 217.8c0 0 52.6 8.6 61.9 34.5 0 0-135.2-33.6-134.6-34.5 0.6-1 72.7 0 72.7 0z"/><path fill-rule="evenodd" d="m234.7 219.4c-0.7 0-68.7-2-89.3-3.3-8.5-0.5-13.2-0.5-16.3-0.5-4.5 0-6 0-11.8-1.5-9.9-2.5-15.5-10.6-15.6-10.7v-0.1c6.1-9 41-24.2 50.8-25.5 9.8-1.2 33.5-3 40.7 0 7 3.1 41.2 37.8 41.6 38.1 0 0 0 3.5 0 3.5zm-132.7-16.1c0.6 0.8 6.1 8.2 15.4 10.5 5.8 1.5 7.3 1.5 11.7 1.5 3.1 0 7.8 0.1 16.4 0.6 20.1 1.2 85.7 3.2 89.1 3.3v-3.1c-1.3-1.4-34.6-35.1-41.5-38-7.1-3.1-30.8-1.3-40.5 0-9.8 1.3-44.4 16.3-50.6 25.2z"/><path class="h" d="m155.2 235.9c0.1-1.2 1.2-2.1 2.4-2l12.6 1c1.1 0.1 2 1.2 1.9 2.4l-0.1 2.1c-0.1 1.2-1.2 2.1-2.4 2l-12.5-1c-1.2-0.1-2.1-1.1-2-2.3z"/><path class="h" d="m94.5 229.4c0.1-1.2 1.2-2 2.4-2l12.5 1c1.2 0.1 2.1 1.2 2 2.4l-0.1 2.1c-0.1 1.2-1.2 2.1-2.4 2l-12.6-1c-1.2-0.1-2-1.1-2-2.3z"/><path  d="m160.5 177.1c-0.7 0.1-8.2 39.4-8.2 39.4h10.9l5.1-39.9c0 0-7.2 0.5-7.8 0.5z"/><path  d="m223.1 204.5l-5.8 14 17.4 0.8v-3.6l-11.6-11.2z"/><path class="i" d="m198.2 208.8q0.1-0.2 0.2-0.4c2.3-3.1 12.4-7.1 22.1-3.8 7 2.3 5.8 10.6 4.6 14.9-0.6 2.1-2.4 3.6-4.5 3.9-5.8 0.9-16.4 0.1-19.2-1.4q-0.2-0.1-0.4-0.2c-4.7-2.6-6-8.7-2.8-13z"/><path fill-rule="evenodd" d="m215 223.9c-5.4 0-11.6-0.7-13.6-1.8q-0.3-0.1-0.5-0.2c-2.2-1.3-3.8-3.4-4.4-6-0.5-2.5 0-5.1 1.6-7.2l0.2-0.4c2.4-3.2 12.6-7.1 22.2-3.9 7.1 2.4 6 10.5 4.7 15.2-0.6 2.1-2.4 3.6-4.6 4-1.5 0.2-3.5 0.3-5.6 0.3zm-2.2-20.4c-6.7 0-12.6 2.6-14.3 5l-0.2 0.3c-1.5 2.1-2.1 4.6-1.5 7.1 0.5 2.4 2.1 4.6 4.3 5.8q0.2 0.1 0.4 0.2c2.7 1.5 13.5 2.2 19.1 1.4 2.1-0.3 3.8-1.8 4.3-3.8 1.3-4.5 2.4-12.5-4.5-14.8-2.5-0.9-5.1-1.2-7.6-1.2z"/><path class="l" d="m221.7 207.1c0 0-2.4-1.8-6.6-2-4.2-0.2-15.2 0.6-16.7 6.8-1.5 6.2 28.5-2.9 23.3-4.8z"/><path class="i" d="m112.5 185c-0.1 0-0.3-0.1-0.4-0.2-0.1-0.3-0.1-0.6 0.2-0.7 13.1-8 25-12.9 38.4-16 0.2 0 0.5 0.2 0.6 0.4 0 0.3-0.1 0.6-0.4 0.6-13.3 3-25.1 7.9-38.1 15.8q-0.1 0.1-0.3 0.1z"/><path class="i" d="m154.8 167.6c-0.3 0-0.5-0.2-0.5-0.4 0-0.3 0.1-0.6 0.4-0.6l6.4-0.9c0.3-0.1 0.6 0.1 0.6 0.4 0 0.3-0.1 0.5-0.4 0.6l-6.4 0.9q-0.1 0-0.1 0z"/><path class="g" d="m161.5 257.6h-28.4c-0.1 0-0.2-0.1-0.2-0.2 0-0.1 0.1-0.3 0.2-0.3h28.4c0.1 0 0.2 0.2 0.2 0.3 0 0.1-0.1 0.2-0.2 0.2z"/><path class="g" d="m139.6 264.1h-13c-0.1 0-0.2-0.1-0.2-0.2 0-0.2 0.1-0.3 0.2-0.3h13c0.1 0 0.2 0.1 0.2 0.3 0 0.1-0.1 0.2-0.2 0.2z"/><path class="g" d="m317.9 156.1h-29c-0.2 0-0.3-0.1-0.3-0.3 0-0.1 0.1-0.2 0.3-0.2h29c0.1 0 0.3 0.1 0.3 0.2 0 0.2-0.2 0.3-0.3 0.3z"/><path class="g" d="m304.6 160.7h-34.5c-0.1 0-0.2-0.2-0.2-0.3 0-0.1 0.1-0.2 0.2-0.2h34.5c0.2 0 0.3 0.1 0.3 0.2 0 0.1-0.1 0.3-0.3 0.3z"/></svg>