<?xml version="1.0" encoding="utf-8"?>
<!-- Generator: Adobe Illustrator 27.5.0, SVG Export Plug-In . SVG Version: 6.00 Build 0)  -->
<svg version="1.1" xmlns="http://www.w3.org/2000/svg" xmlns:xlink="http://www.w3.org/1999/xlink" x="0px" y="0px"
	 viewBox="0 0 2200 2200" style="enable-background:new 0 0 2200 2200;" xml:space="preserve">
<g id="Background">
	<rect style="fill:#FFFFFF;" width="2200" height="2200"/>
</g>
<g id="Objects">
	<g>
		<path style="fill:#1672C4;" d="M620.471,821.463c0.395,0,0.779-0.021,1.163-0.031c12.554,160.09,164.95,310.108,302.891,310.108
			c135.324,0,290.118-150.018,302.88-310.108c0.395,0.01,0.779,0.031,1.173,0.031c29.262,0,52.979-23.717,52.979-52.989
			c0-36.614,14.143-63.104,14.143-92.937c0-34.631-28.078-62.709-62.719-62.709c-1.589,0-3.167,0.073-4.735,0.197
			c0,0,2.232-25.005,2.232-48.732c0-178.501-113.829-286.619-281.095-286.619h-49.719c-167.265,0-281.095,108.118-281.095,286.619
			c0,23.727,2.233,48.732,2.233,48.732c-1.568-0.125-3.146-0.197-4.735-0.197c-34.641,0-62.719,28.078-62.719,62.709
			c0,29.833,14.143,56.323,14.143,92.937C567.492,797.746,591.209,821.463,620.471,821.463z"/>
		<path style="fill:#1672C4;" d="M1787.906,1302.147c-68.616-68.617-159.848-106.407-256.886-106.407
			c-53.463,0-105.152,11.494-152.279,33.271c-85.475-73.65-186.409-115.235-218.144-127.213
			c-71.526,68.127-156.934,106.949-236.073,106.949c-80.045,0-165.74-38.701-236.918-106.631
			c-36.359,13.792-156.012,63.64-245.317,152.84c-56.133,56.073-98.671,146.329-126.344,219.184
			c-28.414,74.758,3.988,159.003,75.136,195.529c97.946,50.302,266.752,91.224,533.444,91.224
			c114.622,0,211.148-7.561,291.746-20.175c15.729,27.146,35.087,52.426,57.864,75.203
			c68.616,68.618,159.848,106.407,256.886,106.407s188.27-37.789,256.886-106.407c68.618-68.616,106.407-159.848,106.407-256.886
			C1894.313,1461.995,1856.523,1370.763,1787.906,1302.147z M1531.02,1861.903c-167.002,0-302.87-135.868-302.87-302.87
			s135.868-302.87,302.87-302.87s302.87,135.867,302.87,302.87S1698.022,1861.903,1531.02,1861.903z"/>
		<path style="fill:#1672C4;" d="M1679.46,1533.353H1556.7v-122.761c0-14.182-11.498-25.68-25.68-25.68s-25.68,11.497-25.68,25.68
			v122.761h-122.761c-14.182,0-25.68,11.497-25.68,25.68c0,14.182,11.497,25.68,25.68,25.68h122.761v122.761
			c0,14.182,11.497,25.68,25.68,25.68s25.68-11.498,25.68-25.68v-122.761h122.761c14.182,0,25.68-11.497,25.68-25.68
			C1705.14,1544.851,1693.642,1533.353,1679.46,1533.353z"/>
	</g>
</g>
</svg>
