<svg version="1.2" xmlns="http://www.w3.org/2000/svg" viewBox="0 0 1000 1000" width="1000" height="1000"><style>.a{fill:#f0f0f0}.b{fill:#e0e0e0}.c{fill:#e6e6e6}.d{fill:#fff}.e{fill:#fafafa}.f{fill:#f5f5f5}.g{fill:#407bff}.h{opacity:.9;fill:#fff}.i{fill:#ce7a63}.j{fill:#263238}.k{opacity:.2}.l{fill:#ba4d3c}.m{fill:#ffc3bd}.n{opacity:.2;fill:#fff}.o{fill:#ed847e}</style><path fill-rule="evenodd" class="a" d="m889.4 698.3h-361.5c-6.4 0-11.7-5.3-11.7-11.7v-526.6c0-6.4 5.3-11.7 11.7-11.7h361.5c6.5 0 11.7 5.3 11.7 11.7v526.6c0 6.4-5.2 11.7-11.7 11.7zm-361.5-549.5c-6.2 0-11.2 5-11.2 11.2v526.6c0 6.2 5 11.2 11.2 11.2h361.5c6.2 0 11.2-5 11.2-11.2v-526.6c0-6.2-5-11.2-11.2-11.2z"/><path fill-rule="evenodd" class="a" d="m472.6 698.3h-361.5c-6.5 0-11.8-5.3-11.8-11.7v-526.6c0-6.4 5.3-11.7 11.8-11.7h361.5c6.4 0 11.7 5.3 11.7 11.7v526.6c0 6.4-5.3 11.7-11.7 11.7zm-361.5-549.5c-6.2 0-11.3 5-11.3 11.2v526.6c0 6.2 5.1 11.2 11.3 11.2h361.5c6.1 0 11.2-5 11.2-11.2v-526.6c0-6.2-5.1-11.2-11.2-11.2z"/><path class="b" d="m1001.6 820.9h-1000v-0.5h1000z"/><path class="b" d="m940.8 582.9h-380c0 6.4 5.2 11.6 11.6 11.6h356.7c6.5 0 11.7-5.2 11.7-11.6z"/><path class="b" d="m866.2 703.8h-227.3v-10.8h227.3z"/><path class="c" d="m858.1 820.6l31-226.1h-10.9l-31 226.1z"/><path class="c" d="m883.6 820.6l-31.5-226.1h10.9l31.5 226.1z"/><path class="c" d="m621.5 820.6l32.3-226.1h-10.9l-32.3 226.1z"/><path class="c" d="m646.9 820.6l-30.9-226.1h10.8l31 226.1z"/><path class="c" d="m953.5 564.2h-405.5v18.7h405.5z"/><path class="b" d="m694.2 564.2h176l1.9-4.3c1.2-2.7-2-5.4-6.3-5.4h-162.4c-2.9 0-5.5 1.2-6.3 3.1z"/><path class="a" d="m918.4 441.7l-22.5 95.3c-0.6 2.5-2.9 4.3-5.5 4.3h-138.8c-3.6 0-6.3-3.4-5.4-6.9l22.5-95.3c0.6-2.5 2.9-4.3 5.5-4.3h138.7c3.7 0 6.3 3.4 5.5 6.9z"/><path class="b" d="m851 491.8c-0.7 6-6.1 10.9-12.1 10.9-6 0-10.3-4.9-9.6-10.9 0.6-6 6-10.9 12-10.9 6 0 10.3 4.9 9.7 10.9z"/><path class="b" d="m779.7 434.8l-24 106.5h-4.1c-3.6 0-6.3-3.4-5.4-6.9l22.5-95.3c0.6-2.5 2.9-4.3 5.5-4.3z"/><path class="b" d="m819.9 541.3l-4.8 22.7h13.9l4.8-22.7z"/><path class="b" d="m794.8 560.1l2.9-4c1-1.4 2.6-2.2 4.4-2.2h38.1c2 0 3.9 1.1 4.8 2.9l1.9 3.6c0.9 1.7-0.3 3.8-2.2 3.8h-47.8c-2.1 0-3.3-2.4-2.1-4.1z"/><path class="a" d="m738.2 257.6l-1.2-1.8 67-42.2 65.3 43.1-1.2 1.8-64.1-42.4z"/><path class="b" d="m870.8 340.2h-134.9v-84.3h134.9z"/><path class="d" d="m739.6 336.5v-76.9h127.4v76.9z"/><path class="a" d="m757.7 291.9h-8.1v-8.2h8.1z"/><path class="a" d="m770.3 291.9h-8.2v-8.2h8.2z"/><path class="a" d="m782.8 291.9h-8.1v-8.2h8.1z"/><path class="a" d="m795.4 291.9h-8.2v-8.2h8.2z"/><path class="a" d="m807.9 291.9h-8.1v-8.2h8.1z"/><path class="a" d="m820.5 291.9h-8.2v-8.2h8.2z"/><path class="a" d="m833 291.9h-8.1v-8.2h8.1z"/><path class="a" d="m845.6 291.9h-8.2v-8.2h8.2z"/><path class="a" d="m858.1 291.9h-8.1v-8.2h8.1z"/><path class="a" d="m757.7 303.1h-8.1v-8.2h8.1z"/><path class="a" d="m770.3 303.1h-8.2v-8.2h8.2z"/><path class="a" d="m782.8 303.1h-8.1v-8.2h8.1z"/><path class="a" d="m795.4 303.1h-8.2v-8.2h8.2z"/><path class="a" d="m807.9 303.1h-8.1v-8.2h8.1z"/><path class="a" d="m820.5 303.1h-8.2v-8.2h8.2z"/><path class="a" d="m833 303.1h-8.1v-8.2h8.1z"/><path class="a" d="m845.6 303.1h-8.2v-8.2h8.2z"/><path class="a" d="m858.1 303.1h-8.1v-8.2h8.1z"/><path class="a" d="m757.7 314.3h-8.1v-8.2h8.1z"/><path class="a" d="m770.3 314.3h-8.2v-8.2h8.2z"/><path class="a" d="m782.8 314.3h-8.1v-8.2h8.1z"/><path class="a" d="m795.4 314.3h-8.2v-8.2h8.2z"/><path class="a" d="m807.9 314.3h-8.1v-8.2h8.1z"/><path class="a" d="m820.5 314.3h-8.2v-8.2h8.2z"/><path class="a" d="m833 314.3h-8.1v-8.2h8.1z"/><path class="a" d="m845.6 314.3h-8.2v-8.2h8.2z"/><path class="a" d="m858.1 314.3h-8.1v-8.2h8.1z"/><path class="a" d="m757.7 326.3h-8.1v-8.1h8.1z"/><path class="a" d="m770.3 326.3h-8.2v-8.1h8.2z"/><path class="a" d="m782.8 326.3h-8.1v-8.1h8.1z"/><path class="a" d="m795.4 326.3h-8.2v-8.1h8.2z"/><path class="b" d="m840.1 274.2h-72.5v-7.1h72.5z"/><path class="b" d="m808.3 214.3c0 2.3-1.8 4.1-4.1 4.1-2.2 0-4.1-1.8-4.1-4.1 0-2.2 1.9-4 4.1-4 2.3 0 4.1 1.8 4.1 4z"/><path class="a" d="m686.3 514.5h-140.7v-341.7h140.7z"/><path class="e" d="m677.7 181.4v324.6h-123.5v-324.6z"/><path class="d" d="m677.7 195.3v24.5l-123.5 123.5v-24.5z"/><path class="d" d="m677.7 280.1v34.5l-123.5 123.5v-34.6z"/><path class="a" d="m620.2 514.5h-8.5v-341.7h8.5z"/><path class="a" d="m439.1 514.5h-140.7v-341.7h140.7z"/><path class="e" d="m430.5 181.4v324.6h-123.5v-324.6z"/><path class="d" d="m430.5 195.3v24.5l-123.5 123.5v-24.5z"/><path class="d" d="m430.5 280.1v34.5l-123.5 123.5v-34.6z"/><path class="a" d="m373 514.5h-8.5v-341.7h8.5z"/><path class="a" d="m342.3 774.8c0 0-17 3.8-14.5-8.1 2.5-11.9 2.3-16.2-4.6-21.6-6.9-5.4-13.8-8.1-8.5-16.6 5.3-8.5-4.8-15.2-10-19.8-5.2-4.6 0.7-8 2.1-16.7 1.3-8.7-8-7.4-8.7-18.3-0.8-11 10.3-23.8 0.8-38.8 0 0 12.8 6.6 17 18.3 4.3 11.7 0.9 20.7 8.4 25.2 7.6 4.4 12.4 12.1 9.8 20-2.6 7.9 1.1 12.1 7.3 17.8 6.2 5.8 4.5 8.1 3.8 15.1-0.8 7 0.7 5.4 7.9 15 7.1 9.6 7.3 25.3-10.8 28.5z"/><path class="b" d="m344.7 774.3q-0.1-0.1-0.1-0.2l-34-103.3c-0.1-0.4 0.1-0.9 0.5-1q0 0 0.1 0c0.4-0.2 0.9 0.1 1 0.5l34 103.2q0.1 0.2 0.1 0.3z"/><path class="a" d="m372.9 774.6c0 0 17 3.7 14.4-8.1-2.5-11.8-2.3-16.1 4.6-21.5 6.9-5.3 13.8-8 8.5-16.5-5.3-8.5 4.7-15.1 9.9-19.6 5.2-4.6-0.7-8.1-2-16.7-1.4-8.6 7.9-7.3 8.6-18.2 0.7-10.9-10.3-23.6-0.8-38.6 0 0-12.8 6.6-17 18.3-4.2 11.6-0.8 20.6-8.3 25-7.6 4.4-12.3 12.1-9.7 19.9 2.6 7.8-1.1 12-7.3 17.7-6.2 5.7-4.5 8-3.7 15 0.7 7-0.8 5.4-7.9 14.9-7.1 9.6-7.2 25.2 10.7 28.4z"/><path class="b" d="m369 773.6q0-0.1 0-0.3l33.9-102.6c0.1-0.5 0.6-0.7 1-0.6q0 0 0 0c0.5 0.2 0.7 0.6 0.6 1.1l-33.9 102.7q0 0.1-0.1 0.2z"/><path class="f" d="m354.2 772.4c0 0-19.5-1.6-12.8-13.4 6.6-11.9 7.9-16.7 2.2-24.7-5.6-8.1-12.1-13.3-3.6-20.6 8.5-7.4-0.1-17.9-4.1-24.5-4-6.6 3.4-8.4 7.7-17.3 4.4-8.8-6-10.5-3.2-22.5 2.9-11.9 19-21.9 13.8-41.2 0 0 11.5 11.4 12.1 25.3 0.7 13.9-6 22.4 0.7 29.7 6.6 7.3 9.1 17.1 3.8 24.7-5.4 7.6-2.9 13.3 1.9 21.5 4.7 8.2 2.2 10.1-1 17.4-3.1 7.3-0.9 6 3.5 18.7 4.4 12.6-0.6 29.6-21 26.9z"/><path class="b" d="m356.9 772.7q0-0.1 0-0.3l-2.1-121.8c0-0.5 0.4-1 0.9-1q0 0 0 0c0.5 0 1 0.4 1 0.9l2.1 121.9q0 0.2 0 0.3z"/><path class="c" d="m407.1 763h-95.1c-2.7 0-4.6 2.7-3.7 5.3l1.4 3.7 0.9 2.4 2.6 6.8 0.9 2.4 2.6 6.9 0.9 2.4 10.5 27.8h63l10.5-27.8 0.8-2.4 2.7-6.9 0.9-2.4 2.5-6.8 0.9-2.4 1.4-3.7c1-2.6-0.9-5.3-3.7-5.3z"/><path class="b" d="m214.1 222.5c0 18.9-15.3 34.3-34.3 34.3-18.9 0-34.3-15.4-34.3-34.3 0-19 15.4-34.3 34.3-34.3 19 0 34.3 15.3 34.3 34.3z"/><path class="e" d="m179.8 254.1c-17.4 0-31.6-14.2-31.6-31.6 0-17.4 14.2-31.6 31.6-31.6 17.5 0 31.6 14.2 31.6 31.6 0 17.4-14.1 31.6-31.6 31.6z"/><path class="b" d="m179.9 200.3h-1.2v-6.6h1.2z"/><path class="b" d="m179.9 251h-1.2v-6.6h1.2z"/><path class="b" d="m157.3 221.8v1.2h-6.6v-1.2z"/><path class="b" d="m208 221.8v1.2h-6.6v-1.2z"/><path class="b" d="m195.3 207.2l-0.8-0.8 4.7-4.7 0.8 0.9z"/><path class="b" d="m159.5 243.1l-0.9-0.9 4.7-4.6 0.8 0.8z"/><path class="b" d="m164.1 206.4l-0.8 0.8-4.7-4.6 0.9-0.9z"/><path class="b" d="m200 242.2l-0.8 0.9-4.7-4.7 0.8-0.8z"/><path class="b" d="m189.9 227l-11.2-4.4 0.4-1 11.2 4.4z"/><path class="b" d="m179.8 222.9h-18.4v-1h17.4v-14.3h1z"/><path class="g" d="m140.4 416.6c-9.5-46.7-3.6-95.4 18.5-137.6 20.6-39.3 58.1-79.5 126.1-88.2 155.7-20.1 162.6 226.2 341.4 117.8 178.8-108.5 329.5 102.7 208.8 228.7-120.6 126-384 153.7-516 96.2-124.2-54.1-165.4-150.7-178.8-216.9z"/><path class="h" d="m140.4 416.6c-9.5-46.7-3.6-95.4 18.5-137.6 20.6-39.3 58.1-79.5 126.1-88.2 155.7-20.1 162.6 226.2 341.4 117.8 178.8-108.5 329.5 102.7 208.8 228.7-120.6 126-384 153.7-516 96.2-124.2-54.1-165.4-150.7-178.8-216.9z"/><path class="f" d="m935.5 911.5c0 5.3-194.3 9.6-433.9 9.6-239.7 0-433.9-4.3-433.9-9.6 0-5.3 194.2-9.6 433.9-9.6 239.6 0 433.9 4.3 433.9 9.6z"/><path class="g" d="m205.3 286.6c-39.4 0-71.3-31.9-71.3-71.3 0-39.4 31.9-71.3 71.3-71.3 39.4 0 71.3 31.9 71.3 71.3 0 39.4-31.9 71.3-71.3 71.3z"/><path class="d" d="m241 215.3c0 3.3-2.6 6-6 6h-23.7v23.8c0 3.2-2.7 5.9-6 5.9-3.3 0-6-2.7-6-5.9v-23.8h-23.8c-3.3 0-6-2.7-6-6 0-3.3 2.7-6 6-6h23.8v-23.8c0-3.3 2.7-5.9 6-5.9 3.3 0 6 2.6 6 5.9v23.8h23.7c3.4 0 6 2.7 6 6z"/><path fill-rule="evenodd" class="g" d="m205.3 304.7c-1.2 0-2.1-1-2.1-2.2v-4.2c0-1.2 0.9-2.1 2.1-2.1 1.2 0 2.1 0.9 2.1 2.1v4.2c0 1.2-0.9 2.2-2.1 2.2zm0 102c-1.2 0-2.1-0.9-2.1-2.1v-8.5c0-1.2 0.9-2.2 2.1-2.2 1.2 0 2.1 1 2.1 2.2v8.5c0 1.2-0.9 2.1-2.1 2.1zm0-25.5c-1.2 0-2.1-1-2.1-2.1v-8.5c0-1.2 0.9-2.2 2.1-2.2 1.2 0 2.1 1 2.1 2.2v8.5c0 1.1-0.9 2.1-2.1 2.1zm0-25.5c-1.2 0-2.1-1-2.1-2.1v-8.5c0-1.2 0.9-2.2 2.1-2.2 1.2 0 2.1 1 2.1 2.2v8.5c0 1.1-0.9 2.1-2.1 2.1zm0-25.5c-1.2 0-2.1-1-2.1-2.1v-8.5c0-1.2 0.9-2.2 2.1-2.2 1.2 0 2.1 1 2.1 2.2v8.5c0 1.1-0.9 2.1-2.1 2.1zm4.3 97.8h-4.3c-1.2 0-2.1-1-2.1-2.2v-4.2c0-1.2 0.9-2.1 2.1-2.1 1.2 0 2.1 0.9 2.1 2.1v2.1h2.2c1.1 0 2.1 1 2.1 2.1 0 1.2-1 2.2-2.1 2.2zm96.6 0h-8c-1.2 0-2.2-1-2.2-2.2 0-1.1 1-2.1 2.2-2.1h8c1.2 0 2.2 1 2.2 2.1 0 1.2-1 2.2-2.2 2.2zm-24.1 0h-8.1c-1.2 0-2.1-1-2.1-2.2 0-1.1 0.9-2.1 2.1-2.1h8.1c1.1 0 2.1 1 2.1 2.1 0 1.2-1 2.2-2.1 2.2zm-24.2 0h-8.1c-1.1 0-2.1-1-2.1-2.2 0-1.1 1-2.1 2.1-2.1h8.1c1.2 0 2.1 1 2.1 2.1 0 1.2-0.9 2.2-2.1 2.2zm-24.2 0h-8c-1.2 0-2.2-1-2.2-2.2 0-1.1 1-2.1 2.2-2.1h8c1.2 0 2.1 1 2.1 2.1 0 1.2-0.9 2.2-2.1 2.2zm92.9 0h-4.3c-1.1 0-2.1-1-2.1-2.2 0-1.1 1-2.1 2.1-2.1h4.3c1.2 0 2.1 1 2.1 2.1 0 1.2-0.9 2.2-2.1 2.2z"/><path class="i" d="m709.8 864l2 32.1-13.7 1.1-9.2-31.6z"/><path class="j" d="m701.3 894c0 0-2.1-2.6-4.7-1.7-2.7 0.9-6.2 5.3-6.2 5.3 0 0-14.4 4.6-18.3 4.8-3.9 0.3-6.5 2.8-6.8 10h49.1c0 0 0-17-1.7-20-1.4-2.5-4.3 0.8-4.3 0.8z"/><path class="d" d="m666.4 910.2q4.3-0.1 8.5-0.1 18.7-0.2 37.3-0.4c0.5 0 0.5-0.7 0-0.7q-1.3 0-2.5 0 0 0 0-0.1c-1.8-3.9 0.2-8 3.8-10 0.4-0.2 0-0.8-0.4-0.6-3.8 2.2-6 6.5-4.2 10.7l-5.2 0.1q-18.7 0.2-37.3 0.4c-0.5 0-0.5 0.7 0 0.7z"/><path class="d" d="m692.1 900.5c-1.7-2.3-4.4-2.9-6.8-1.2-0.4 0.3-0.7-0.3-0.3-0.6 2.6-2 5.8-1.2 7.7 1.5 0.3 0.3-0.3 0.7-0.6 0.3z"/><path class="d" d="m688 901.8c-1.6-2.3-4.4-3-6.8-1.3-0.3 0.3-0.7-0.3-0.3-0.6 2.7-2 5.9-1.1 7.7 1.5 0.3 0.4-0.3 0.7-0.6 0.4z"/><path class="d" d="m683.8 903c-1.7-2.3-4.4-3-6.8-1.2-0.3 0.3-0.7-0.4-0.3-0.7 2.6-2 5.9-1.1 7.7 1.5 0.3 0.4-0.3 0.8-0.6 0.4z"/><path class="i" d="m604.8 863.7l-2 32.4-13.8 1.1-5.3-31.9z"/><path class="j" d="m592.2 894c0 0-2.1-2.6-4.8-1.7-2.6 0.9-6.1 5.3-6.1 5.3 0 0-14.5 4.6-18.4 4.8-3.9 0.3-7.3 2.5-8.7 10h47.3c0 0 1.8-17 2.1-20 0.3-2.9-4.3 0.8-4.3 0.8z"/><path class="d" d="m555.6 910.2q4.2-0.1 8.5-0.1 18.6-0.2 37.3-0.4c0.4 0 0.4-0.7 0-0.7q-1.3 0-2.6 0 0 0 0-0.1c-1.8-3.9 0.3-8 3.9-10 0.4-0.2 0-0.8-0.4-0.6-3.9 2.2-6 6.5-4.2 10.7l-5.3 0.1q-18.6 0.2-37.2 0.4c-0.5 0-0.5 0.7 0 0.7z"/><path class="d" d="m583 900.5c-1.7-2.3-4.5-2.9-6.8-1.2-0.4 0.3-0.7-0.3-0.4-0.6 2.7-2 5.9-1.2 7.8 1.5 0.3 0.3-0.4 0.7-0.6 0.3z"/><path class="d" d="m578.9 901.8c-1.7-2.3-4.4-3-6.8-1.3-0.3 0.3-0.7-0.3-0.3-0.6 2.6-2 5.9-1.1 7.7 1.5 0.3 0.4-0.3 0.7-0.6 0.4z"/><path class="d" d="m574.7 903c-1.7-2.3-4.4-3-6.8-1.2-0.4 0.3-0.7-0.4-0.3-0.7 2.6-2 5.8-1.1 7.7 1.5 0.3 0.4-0.3 0.8-0.6 0.4z"/><path class="j" d="m572.5 525.3c0 0-8.1 108.5-7.5 156.2 0.5 49.5 16.7 193.8 16.7 193.8h26.5c0 0 4.9-141.7 7.2-190.4 2.6-53.1 18.5-168.3 18.5-168.3z"/><path class="k" d="m620.5 625.9c2-19.5 4.4-39.6 6.6-57.2l-3.1-18.6c0 0-10.4 29-3.5 75.8z"/><path class="g" d="m610.2 867.3c-0.1 2.8-0.3 8.5-0.3 8.5h-30.5l-0.9-8.5z"/><path class="j" d="m617.7 516.6c0 0 8 119.5 16.7 164.3 9.4 49 52.4 194.4 52.4 194.4h28.6c0 0-18.4-141.1-23.3-189.6-5.3-52.7-7.6-159-7.6-159z"/><path class="g" d="m716.7 867.1c0.3 2.9 0.7 8.7 0.7 8.7h-33.5l-2-8.7z"/><path class="g" d="m689.4 536.9c-57.3 3.9-100.3 4.2-123.1-4.4-1.6-100.8 2-163.4 6.7-178.8 1.3-4.1 4.1-7.5 7.9-9.5 4-2 10-4.4 18.1-5.6 11.9-1.8 31.8-2.3 45.5-2.2 7.6 0 15.3 0.6 21.7 1.2 7.9 0.8 13.1 7.9 12.7 15.9-0.6 15.3-0.7 30.8-0.3 46q0.3 13.1 1 25.8c2.8 54.1 9.7 99.8 9.8 111.6z"/><path class="k" d="m679.6 425.3l-24.6-54 23.6 28.2q0.3 13.1 1 25.8z"/><path class="j" d="m607.2 257.9c-3-3.3-13.1-3.5-17.9 2.8-5.2 6.7-11.7 19.2-15.9 15.9 0 0 1.7 6.2 8.8 6.7 0 0-4.2 4.6-9.7 2.9 0 0 2.4 8.5 12.6 10 9.3 1.4 22.3-25.3 24.3-29.7 0-4.8-0.4-4.6-2.2-8.6z"/><path class="j" d="m613 259.1c8.3-0.9 16.7 1.4 23 6.8 4.1 3.6 7.3 8.3 5.9 13.9-3.3 13-12.1 34.1-12.1 34.1l-39.5-30.4c0 0-0.2-12.7 6.1-19 3.4-3.2 10.5-4.7 16.6-5.4z"/><path class="j" d="m605.8 258.4c0 0 13.6-9.7 31.7 3.7 18.1 13.5-0.1 37.9-0.1 37.9 0 0-5.8 10.7-0.7 13.4 0 0-3.2 1.3-5.6 1 0 0 1.7 3.3 4 3 0 0-3.2 1.2-8.7-1.3-5.6-2.5-20.6-57.7-20.6-57.7z"/><path class="i" d="m606.6 325.6q0.1 0.1 0.1 0.2l1.1 7.9q-0.1 2.4-0.5 4.6-0.4 1.9-1.1 3.6c-1.9 2.1-3.4 7.3 2.6 8 7.5 1 22.7-8.3 23.6-11.6-2.2-10.7-3.6-23.1-1.8-32.9l-9.8 8.2z"/><path class="k" d="m606.7 325.8l1.1 7.9c4.9-1.6 10.5-5.6 12.2-10.5 1.2-3.5 0-7.1-1.4-7.5z"/><path class="i" d="m589.6 307.4q0.3 2.6 0.8 5.1c3 14.9 20.5 18.3 32.7 9.2q0-0.1 0.1-0.1 1.6-1.2 3.1-2.7c8.1-8.3 7.2-15.6 8.1-31.7 0.9-16-14.9-28.1-30.4-21.7-14.3 5.9-16.9 24.7-14.4 41.9z"/><path class="j" d="m608.8 294.3c0.1 1.3-0.6 2.4-1.5 2.4-0.8 0-1.5-1.1-1.5-2.4 0-1.3 0.6-2.3 1.5-2.3 0.8 0 1.5 1 1.5 2.3z"/><path class="j" d="m594.7 294.4c0 1.3-0.6 2.4-1.5 2.4-0.8 0-1.5-1-1.6-2.3 0-1.3 0.7-2.4 1.6-2.4 0.8 0 1.5 1 1.5 2.3z"/><path class="j" d="m603.7 312q-0.4-0.1-0.4-0.1c-0.3 0-0.4-0.3-0.4-0.6 0.1-0.2 0.3-0.4 0.6-0.3 0.3 0 6.7 1.3 8.5-6 0-0.2 0.3-0.4 0.6-0.3 0.2 0 0.4 0.3 0.3 0.6-1.7 7-7.5 6.9-9.2 6.7z"/><path class="j" d="m634.4 288.8c0 0-4 2.9-4.8 7-0.3 1.2-1.1 1.4-1.1 1.4l-5.9 0.4c0 0 3.6-15.5-0.6-15.8-4.1-0.3 1.2-6.8-1.1-8.2-5.6-3.1-21.6-5.3-29 3.6 0 0 2.9-9.3 11.1-13.5 8.3-4.2 23.7-3.3 28.9 5 5.2 8.3 2.5 20.1 2.5 20.1z"/><path class="i" d="m641.4 297.9c-1.2 4.2-4.2 7.5-7.3 9.2-4.7 2.5-8.3-1.4-8-6.5 0.3-4.5 3.1-11.4 8.3-11.8 5.1-0.5 8.3 4.4 7 9.1z"/><path class="j" d="m590.9 289.1c0.2 0 0.4-0.2 0.5-0.4q0.8-1.4 2-1.7c1.3-0.3 2.6 0.4 2.6 0.4 0.3 0.2 0.7 0.1 0.9-0.2 0.1-0.3 0-0.7-0.3-0.9 0-0.1-1.7-1-3.5-0.5q-1.8 0.4-2.8 2.3c-0.2 0.3-0.1 0.7 0.2 0.9q0.2 0.1 0.4 0.1z"/><path class="j" d="m615.4 288.6q0.1-0.1 0.3-0.1c0.3-0.2 0.4-0.6 0.2-0.9 0-0.1-1-1.7-2.9-2.2q-1.7-0.5-3.5 0.6c-0.3 0.2-0.4 0.6-0.2 0.9 0.2 0.3 0.5 0.4 0.8 0.2q1.4-0.8 2.6-0.5c1.3 0.3 2.1 1.6 2.1 1.6 0.1 0.3 0.4 0.4 0.6 0.4z"/><path class="l" d="m601.1 293.2c0 0-0.9 4.1-4.2 6.9-3.3 2.8 3.2 5.2 3.2 5.2z"/><path fill-rule="evenodd" class="d" d="m629.2 292.1c0 0.2-0.2 0.3-0.3 0.3-8.7-0.9-13.8 2.5-14.4 3q0 0.2 0 0.4c0 4.1-2.5 7.4-5.6 7.4-3.1 0-5.5-3.3-5.6-7.2-3.4-2.2-5.4-0.3-5.7-0.1-0.1 4-2.5 7.3-5.6 7.3-3.1 0-5.6-3.3-5.6-7.4 0-4 2.5-7.3 5.6-7.3 2.9 0 5.4 3 5.6 6.8 0.8-0.6 2.8-1.6 5.7 0.1 0.2-3.9 2.6-6.9 5.6-6.9 2.8 0 5.1 2.7 5.5 6.3 1.3-0.8 6.4-3.8 14.6-2.9 0.1 0 0.2 0.1 0.2 0.2zm-32.1 3.7c0-3.8-2.3-6.8-5.1-6.8-2.8 0-5.1 3-5.1 6.8 0 3.8 2.3 6.9 5.1 6.9 2.8 0 5.1-3.1 5.1-6.9zm16.9 0c0-3.8-2.3-6.8-5.1-6.8-2.8 0-5.1 3-5.1 6.8 0 3.8 2.3 6.9 5.1 6.9 2.8 0 5.1-3.1 5.1-6.9z"/><path fill-rule="evenodd" class="g" d="m601.8 369.5c-5.4 14.4-11.3 28.3-17.7 42.2-3.2 7-6.4 14-10 20.9q-2.6 5.2-5.6 10.5c-0.8 1.4-1.7 2.9-2.6 4.4-1.2 2-2.5 4.2-4.1 6.4-0.9 1.2-1.7 2.5-3 3.9-0.6 0.8-1.3 1.7-2.2 2.6-0.8 0.7-1.6 1.4-2.8 2.4-0.2 0.2-0.6 0.5-1.1 0.7q-0.6 0.4-1.2 0.8c-0.5 0.2-0.7 0.3-1.1 0.5l-2.1 0.9-0.5 0.2-1.1 0.4-3 1.1-2.9 0.9-5.6 1.7c-7.4 2.2-14.7 4.1-22 6-14.8 3.8-29.5 7.1-44.5 10l-4.8-15.1c13.7-6.4 27.5-12.4 41.4-18.3l20.5-8.7 5-2.2 2.5-1.1 2.2-1.1c0.3-0.4 0.9-1.2 1.3-2 1.5-2.6 3.1-5.6 4.7-8.8 1.5-3.1 3-6.4 4.5-9.7 3-6.6 5.9-13.4 8.8-20.2l17.2-41zm-65.2 69.4q0 0.1-0.1 0.1l-0.2 0.2v-0.1c0.1 0 0.3-0.1 0.3-0.2z"/><path class="k" d="m570.4 382.9c-1.6 11.9-4.5 64.4-4.5 64.4q0.1 0 0 0.2c-1.2 2-2.5 4.2-4.1 6.4-0.9 1.2-1.7 2.5-3 3.9 1.1-25.2 11.6-74.9 11.6-74.9z"/><path fill-rule="evenodd" class="i" d="m461 493.5c-3 3.3-7.4 5.2-11.7 5.8-4.3 0.5-9.7 1.3-9.4-1.1 0.1-0.6 0.7-1.1 1.5-1.5-3.9 0.8-8.1 1.5-8.6 0.6-1.1-1.6 1.4-2.8 1.4-2.8 0 0-2.7 0.4-2.7-1.6-0.1-2 3.6-3.6 3.6-3.6 0 0-3 0.3-1.6-2.2 1.4-2.5 17.7-9.9 19-11.6 1.2-1.7-1.6-3.1-4-4.3-2.5-1.3-6.4-4.4-2.7-4.5 3.7-0.2 7.7 1.2 12.7 1.3 5 0.1 9.2 4.6 9.2 4.6 0 0 1.5 3.5 2.3 8.6 0.8 5.1-6 9-9 12.3zm-12.3 1.8q-0.1 0-0.4 0 0.3 0 0.4 0z"/><path class="l" d="m434.9 494.7q6.2-2.9 12.6-5.3 0.7 1.7 1.6 3.2c0.3 0.6 1-0.1 0.7-0.6-1.8-3.1-3-6.7-3.3-10.5-0.1-0.7-0.9-0.5-0.9 0.2q0.2 1.4 0.5 2.8-0.1-0.1-0.3-0.1-5.1 1.5-9.9 4.3c-0.5 0.2-0.2 1.1 0.3 0.8q4.7-2.7 9.8-4.1 0.1-0.1 0.2-0.2 0.4 1.7 1 3.4-6.4 2.3-12.7 5.2c-0.5 0.2-0.2 1.1 0.4 0.9z"/><path class="l" d="m450.9 485c3.2-4.4 8.1-6 12.6-4.4 0.5 0.2 0.9-0.7 0.4-0.9-5-1.8-10.2 0-13.7 4.7-0.3 0.5 0.3 1.1 0.7 0.6z"/><path class="g" d="m676.2 343.7c9.8 12.7 19.1 25.6 28.4 38.7q6.9 9.8 13.7 19.8c4.5 6.7 8.9 13.2 13.4 20.3l0.9 1.4 1.1 1.7 0.5 0.9 0.1 0.2 0.5 0.9 0.5 1c0.2 0.4 0.3 0.8 0.4 0.9 0.3 0.9 0.6 1.9 0.7 2.5l0.2 0.9 0.2 0.8c0.3 2 0.3 3.4 0.4 4.8q0 1.9 0 3.7c-0.1 4.6-0.5 8.8-0.9 13-0.8 8.3-1.9 16.3-3.2 24.3-2.5 16.1-5.6 31.8-9.3 47.6l-16.8-2c0-15.9 0.2-31.9 0.4-47.7 0.1-7.9 0.2-15.8 0-23.5 0-3.8-0.1-7.6-0.4-11q-0.1-1.2-0.3-2.2c-0.1-0.7-0.2-1.3-0.3-1.2q0 0 0 0l0.1 0.2c0 0.1 0.1 0.6 0.3 1.1l0.2 0.5q0.1 0.4 0.3 0.7l0.3 0.5-0.1-0.1-0.3-0.3-1.3-1.9c-4.6-6.1-9.6-12.4-14.3-18.8q-7.3-9.4-14.5-19c-9.6-12.7-19.1-25.5-28.3-38.6z"/><path class="i" d="m723.4 526.1c-3.6-9.5-11.8-7.1-14.2-4.7 0 0-6.1 6.2-7.3 9.7-1.2 3.5-3 7-2.4 8.6 0.3 0.7 1.3-0.1 2.4-1.1-0.6 1.8-1 3.3-1 4.1 0 0 0.9 9.7 4.7 12.7 3.8 3.1 3.1-5.7 3.1-5.7 0 0 0.4 8.7 9.6 5.9 3.5-1.1 7.4-11.5 8-17.2 1.6-5-2.9-12.3-2.9-12.3z"/><path class="g" d="m607.9 335.3c0-0.1-7.8-0.9-11.9 3.8-1.7 5.9 2 12.8 6 19.8l8.6-8.9c0.6 0-3.9-7.6-2.7-14.8z"/><path class="k" d="m607.9 335.3c0-0.1-7.8-0.9-11.9 3.8-1.7 5.9 2 12.8 6 19.8l8.6-8.9c0.6 0-3.9-7.6-2.7-14.8z"/><path class="g" d="m631.1 331c-3.7 8.5-11.6 14.1-20.5 19l4.8 8.9 30.1-22.5c0 0-8.7-7.7-14.4-5.4z"/><path class="k" d="m631.1 331c-3.7 8.5-11.6 14.1-20.5 19l4.8 8.9 30.1-22.5c0 0-8.7-7.7-14.4-5.4z"/><path class="k" d="m610.6 362.8c0 0.9-0.7 1.6-1.5 1.6-0.9 0-1.5-0.7-1.5-1.6 0-0.8 0.6-1.5 1.5-1.5 0.8 0 1.5 0.7 1.5 1.5z"/><path class="k" d="m610.6 372.9c0 0.8-0.7 1.5-1.5 1.5-0.9 0-1.5-0.7-1.5-1.5 0-0.9 0.6-1.6 1.5-1.6 0.8 0 1.5 0.7 1.5 1.6z"/><path class="k" d="m610.6 382.9c0 0.8-0.7 1.5-1.5 1.5-0.9 0-1.5-0.7-1.5-1.5 0-0.8 0.6-1.5 1.5-1.5 0.8 0 1.5 0.7 1.5 1.5z"/><path class="m" d="m419.2 876.1l4.1 20.7h10.9l1.5-20.7z"/><path class="j" d="m432.8 894.2c0 0 2.1-2.6 4.7-1.7 2.7 0.9 6.1 5.2 6.1 5.2 0 0 14.3 4.6 18.2 4.8 3.8 0.3 7.2 2.5 8.7 9.9h-46.9c0 0-1.8-16.9-2.1-19.8-0.3-2.9 4.3 0.8 4.3 0.8z"/><path class="g" d="m469.1 910.2q-4.2 0-8.5-0.1-18.4-0.2-36.9-0.4c-0.4 0-0.4-0.7 0-0.7q1.3 0 2.5 0 0 0 0-0.1c1.8-3.9-0.2-7.9-3.8-9.9-0.4-0.2 0-0.8 0.4-0.6 3.8 2.2 5.9 6.5 4.2 10.6q2.6 0.1 5.2 0.1 18.4 0.2 36.9 0.4c0.5 0 0.5 0.7 0 0.7z"/><path class="d" d="m441.9 900.6c1.7-2.2 4.4-2.9 6.7-1.2 0.4 0.3 0.8-0.3 0.4-0.6-2.6-2-5.8-1.1-7.7 1.5-0.2 0.4 0.4 0.7 0.6 0.3z"/><path class="d" d="m446 901.9c1.6-2.3 4.4-3 6.7-1.2 0.4 0.2 0.7-0.4 0.3-0.7-2.6-2-5.8-1.1-7.6 1.5-0.3 0.4 0.3 0.7 0.6 0.4z"/><path class="d" d="m450.2 903.1c1.6-2.3 4.3-3 6.7-1.2 0.3 0.3 0.7-0.4 0.3-0.7-2.6-1.9-5.8-1.1-7.7 1.5-0.2 0.4 0.4 0.8 0.7 0.4z"/><path class="m" d="m321 876.2l2.3 20.6h11l3.2-20.6z"/><path class="j" d="m332.8 894.2c0 0 2.1-2.6 4.7-1.7 2.7 0.9 6.1 5.2 6.1 5.2 0 0 14.3 4.6 18.2 4.8 3.9 0.3 7.2 2.5 8.7 9.9h-46.9c0 0-1.8-16.9-2.1-19.8-0.3-2.9 4.3 0.8 4.3 0.8z"/><path class="g" d="m369.1 910.2q-4.2 0-8.4-0.1-18.5-0.2-37-0.4c-0.4 0-0.4-0.7 0-0.7q1.3 0 2.5 0 0 0 0.1-0.1c1.7-3.9-0.3-7.9-3.8-9.9-0.5-0.2-0.1-0.8 0.3-0.6 3.8 2.2 5.9 6.5 4.2 10.6q2.6 0.1 5.2 0.1 18.4 0.2 36.9 0.4c0.5 0 0.5 0.7 0 0.7z"/><path class="d" d="m342 900.6c1.6-2.2 4.4-2.9 6.7-1.2 0.3 0.3 0.7-0.3 0.3-0.6-2.6-2-5.8-1.1-7.7 1.5-0.2 0.4 0.4 0.7 0.7 0.3z"/><path class="d" d="m346 901.9c1.6-2.3 4.4-3 6.7-1.2 0.4 0.2 0.7-0.4 0.4-0.7-2.7-2-5.9-1.1-7.7 1.5-0.3 0.4 0.3 0.7 0.6 0.4z"/><path class="d" d="m350.2 903.1c1.6-2.3 4.4-3 6.7-1.2 0.3 0.3 0.7-0.4 0.3-0.7-2.6-1.9-5.8-1.1-7.7 1.5-0.2 0.4 0.4 0.8 0.7 0.4z"/><path class="g" d="m415.5 876.8h24.2c2.1-31.2 8.1-134.5 3.4-185.6 3.3-70.9-7.5-165.1-7.5-165.1h-76.7c0 0 5.6 63 30.9 164.1-0.2 80.1 19.3 160.1 25.7 186.6z"/><path class="n" d="m415.5 876.8h24.2c2.1-31.2 8.1-134.5 3.4-185.6 3.3-70.9-7.5-165.1-7.5-165.1h-76.7c0 0 5.6 63 30.9 164.1-0.2 80.1 19.3 160.1 25.7 186.6z"/><path class="k" d="m385.6 673.2c13.9-56.6 1.7-130.1 1.7-130.1l-12 83.9z"/><path class="j" d="m412.6 876.2l1.8 9.2 27.8-0.1v-9.2z"/><path class="g" d="m317.6 877.7h24.2c8.6-32.1 25.9-135.2 28.7-186.3 13.7-70.9 20.3-165.3 20.3-165.3h-76.7c0 0-7.2 63.8 3.3 164.8-2 88.1-0.4 159.4 0.2 186.8z"/><path class="n" d="m317.6 877.7h24.2c8.6-32.1 25.9-135.2 28.7-186.3 13.7-70.9 20.3-165.3 20.3-165.3h-76.7c0 0-7.2 63.8 3.3 164.8-2 88.1-0.4 159.4 0.2 186.8z"/><path class="j" d="m315.4 876.2v9.1h28l1.4-9.1z"/><path class="j" d="m445.6 537.7c-53.2 20.4-139.8 5.6-139.8 5.6 0.5-14.6 1.1-37.1 1.4-61.7 0.1-6.6 0.1-13.3 0.2-20.1 0-13 0-26.1-0.1-38.5q0-1.5 0-3c-0.1-6.1-0.2-12-0.3-17.5q0-1 0-2.1c-0.3-10.9-0.7-20.6-1.2-28.3-0.9-14.6 7-28.2 21.4-30.6 4.4-0.7 9.1-1.4 14.1-1.9 1.1-0.2 2.3-0.3 3.5-0.4 13.7-1.3 28.7-1.9 42.4-1.5q1 0 2 0c0.4 0 0.8 0 1.1 0.1 0.6 0 1.2 0 1.8 0 6.1 0.3 11.9 0.7 17 1.4 11.8 1.5 22.2 10.8 22.4 22.7 0.2 10.9 1.3 33.9 2.8 59.8 0.6 9.8 1.3 20 2 30.2 2.8 40 6.3 78.8 9.3 85.8z"/><path class="k" d="m336.9 382.9c0 0-1.1 56.5 2.6 63.4 3.8 6.8 76.5 27.5 76.5 27.5-36.4-4.9-71.6-10.4-90.2-24.3z"/><path class="k" d="m418.4 490.4c-42.3 10.1-91.8-2.8-111.2-8.8 0.1-6.6 0.1-13.3 0.2-20.1 29.8 22 111 28.9 111 28.9z"/><path class="g" d="m382.5 372.2l-7.2 79.1 14.3 28.8 11.1-31.4-11.5-76.5z"/><path class="g" d="m384.2 355.2l-7.7 11.5 9 10.4 9.1-13.5z"/><path class="j" d="m399.8 260.5c-8.3-3-17.5-2.6-25.4 1.4-5.1 2.7-9.5 6.8-9.4 12.9 0.2 14.3 4.2 38.1 4.2 38.1l48.2-21.7c0 0 3.5-12-2.2-19.6-4.1-5.7-9.2-9-15.4-11.1z"/><path class="j" d="m381.8 259.3c0 0-6.5-3.7-13 3.1-5.5 5.6-3.1 23.9-3.1 23.9z"/><path class="j" d="m377 260.8c0 0 1.9-10.9 21.7-7.7 19.9 3.3 35.7 19.7 28.4 28.3-7 8.3-28.4-5.5-28.4-5.5z"/><path class="m" d="m390.3 330.7q-0.1 0.1-0.1 0.1l-3 7.9q-0.6 2.5-0.7 4.9 0 2.1 0.2 4c1.5 2.7 1.8 8.3-4.6 7.7-8-0.9-21.6-13.4-21.7-17 4.9-10.6 9.5-23.8 10.1-34.3l8 10.9z"/><path class="j" d="m384.2 355.2c1.9-4.2 1.8-9.2 2.5-13.7 0 0 0.4-3.4 1.3-5.1 0 0 5.5-1.2 8.7 1.7 1.3 8.7 0.3 17.4-2.3 26.1z"/><path class="j" d="m353.8 338.5c0 0 4.4-8.6 10.5-9.6 0.7 10.3 4.9 18.5 19.9 26.3l-8.9 13.1c-12.3-10-19.2-20-21.5-29.8z"/><g style="opacity:.2"><path  d="m390.2 330.8l-3 7.9c-4.8-2.8-9.5-8.3-10.1-13.8-0.5-3.9 1.7-7.3 3.2-7.4z"/></g><path class="m" d="m412.3 316q-1 2.6-2.1 5.1c-6.7 14.6-25.6 13.9-36 1.5q0 0 0-0.1-1.4-1.6-2.6-3.5c-6.3-10.6-3.7-17.8-0.7-34.7 3-16.8 22.2-25.4 36.7-15.1 13.3 9.6 11.4 29.7 4.7 46.8z"/><path class="j" d="m380.6 290.8c0 0-0.1 14.1 5.4 16.1 5.5 2 9.6-2.7 15.7 3.1 0 0 3.9-2.1 7.6 0.7 3.6 2.7 3 4.4 3 4.4 0 0-1.4 21-20.6 18.5-19.2-2.4-21.5-21.2-20.2-31.2l3.8-12.5z"/><path class="d" d="m393.1 310.4c0 0 5 1.8 11.9 3.4 0 0-2.4 5.7-8.5 3.1-3.9-1.7-3.4-6.5-3.4-6.5z"/><path class="j" d="m409 267.7c-7.5-6.4-23.6-9.2-31-1.9-7.4 7.2-7.5 20.1-7.5 20.1 0 0-0.2 2.3 1.3 3.8 0.1 0.2 0.3 0.4 0.5 0.7l8.3 1.3c0.7-3.4 2.1-9.7 4.4-10 4.4-0.6 1.4-5.4 2.4-8.2 3-8.8 27-2.8 29.8 10.8 0 0-0.7-10.3-8.2-16.6z"/><path class="m" d="m361.1 293.7c0.2 4.6 2.5 8.7 5.3 11.2 4.3 3.8 8.9 0.6 9.8-4.7 0.8-4.8-0.4-12.6-5.7-14.3-5.1-1.7-9.6 2.5-9.4 7.8z"/><path class="j" d="m395.5 294.7c-0.3 1.3 0.2 2.5 1 2.7 0.8 0.2 1.8-0.7 2.1-2 0.3-1.3-0.1-2.5-1-2.7-0.8-0.2-1.8 0.7-2.1 2z"/><path class="j" d="m409.2 297.9c-0.3 1.3 0.1 2.5 0.9 2.7 0.9 0.2 1.8-0.7 2.1-2 0.3-1.3-0.1-2.5-0.9-2.7-0.9-0.2-1.8 0.7-2.1 2z"/><path class="j" d="m415 294c-0.2-0.1-0.4-0.3-0.4-0.5q-0.5-1.6-1.7-2.3c-1.2-0.6-2.7-0.2-2.7-0.2-0.4 0.1-0.8-0.1-0.9-0.4-0.1-0.4 0.1-0.8 0.4-0.9 0.1 0 2.1-0.6 3.9 0.3q1.6 0.9 2.3 3.1c0.1 0.4-0.1 0.8-0.5 0.9q-0.2 0-0.4 0z"/><path class="j" d="m392.8 288.7q-0.2-0.1-0.3-0.2c-0.4-0.2-0.4-0.7-0.1-1 0-0.1 1.5-1.8 3.6-2q2.1-0.2 3.9 1.5c0.3 0.2 0.4 0.7 0.1 1-0.3 0.3-0.7 0.3-1 0.1q-1.4-1.2-2.8-1.1c-1.6 0.1-2.7 1.4-2.7 1.4-0.2 0.2-0.5 0.3-0.7 0.3z"/><path class="o" d="m404.5 295c0 0 0.7 6 2.5 10.2 1.8 4.1-5.3 2.6-5.3 2.6z"/><path class="m" d="m458.4 486.7c-2.7-4.6-12.5-8.8-12.5-8.8-1.2-0.5-4.5-0.5-8-0.3h0.4c0 0 6.4-3.7 4.8-4.6-1.6-0.9-5.5 0.6-9.4 1.4-3.9 0.8-8.3 4.4-8.3 4.4-2.9 1.7-4.5 7.1-2.5 14.2 0 0 8.1 7.8 14 8.9 5.7 1.4 17.4 2.1 20-1.5 5.5-7.5-4.6-12.8-4.6-12.8 0 0 8.8 3.8 6.1-0.9z"/><path class="j" d="m422.2 475.4l-2.3 15.7c-16.6-0.9-33-2.4-49.5-4.6-8.3-1.1-16.5-2.4-24.8-4-4.2-0.8-8.4-1.7-12.7-2.7-4.3-1.1-8.5-2.2-13.4-4.1-1.2-0.5-2.5-1-3.9-1.7-1.4-0.7-2.9-1.5-4.8-3-1-0.8-2.1-1.7-3.4-3.3-0.6-0.7-1.4-1.8-2.1-3-0.3-0.7-0.6-1.4-1-2.3q-0.2-0.6-0.4-1.3l-0.1-0.4c-0.6-2.4-0.7-3.9-0.9-5.3-0.6-5.2-0.7-9.4-0.8-13.8 0-8.6 0.1-16.9 0.4-25.2 0.6-16.6 1.8-33 3.5-49.5l31.8 2.8c-0.4 8.1-1.2 16.2-1.7 24.3l-1.9 24.2c-0.6 8-1.2 16.1-1.6 23.9-0.1 2.7-0.2 5.5-0.2 8 2.4 1.1 5.3 2.2 8.3 3.3 3.6 1.2 7.3 2.4 11.1 3.5 7.6 2.3 15.3 4.4 23.1 6.5 15.7 4.1 31.5 8.1 47.3 12z"/><path class="j" d="m562.7 371.1c-10.8 10.1-21.9 19.6-33.5 28.8-5.7 4.7-11.6 9.1-17.7 13.5-3.1 2.2-6.3 4.4-9.8 6.5-0.9 0.6-1.8 1.1-2.8 1.7-1.1 0.6-2.2 1.1-3.8 1.8-0.8 0.3-1.7 0.7-3.6 1.1l-0.8 0.2c-0.3 0-0.7 0.1-1.1 0.1-0.8 0-1.8 0.1-3.4-0.1l-0.6-0.1-0.8-0.2q-0.8-0.1-1.6-0.4l-0.3-0.1-0.5-0.2c-0.7-0.3-1.6-0.6-2.1-0.8l-1.7-0.8c-4.3-2-7.6-3.8-11-5.8-3.4-1.9-6.6-3.9-9.8-5.9-6.3-4-12.5-8.1-18.5-12.3q-0.5-0.4-1-0.7-2.8-2-5.6-4c-9.8-7-19.3-14.2-28.7-21.9l19.6-25.3c11.6 8.3 23.2 17.1 34.6 25.8 5.7 4.2 11.4 8.6 17.1 12.7 2.8 2.1 5.6 4.2 8.4 6.2 2 1.4 4.1 2.8 5.9 3.9 2.6-1.1 5.3-2.5 8-3.9 6.2-3.2 12.5-6.7 18.9-10.2 12.7-6.9 25.5-13.9 38.5-20.4z"/><path class="k" d="m438.3 397.4q-2.8-2-5.6-4l-1.7-27.3z"/><path class="m" d="m561.4 371.3c0 0 4-0.2 5.7-3.1 3.3-5.4 8.6-6.4 10.7-7.5 2.1-1.2-0.3-4.8-5.6-3.6 0 0 2.2-7.4 4.1-9.2 1.8-1.8 11.5-5.7 11.3-7.1-0.2-1.4-7.7 0.9-12 2.9-4.4 2-13.3 12.9-21.3 16.9 0 0-3.1 8.3 7.1 10.7z"/></svg>