<svg version="1.2" xmlns="http://www.w3.org/2000/svg" viewBox="0 0 500 500" width="500" height="500"><style>.a{fill:none;stroke:#e0e0e0;stroke-linecap:round;stroke-linejoin:round;stroke-width:.5}.b{fill:#e0e0e0}.c{fill:#f0f0f0}.d{fill:#f5f5f5}.e{fill:#fff}.f{fill:#ebebeb}.g{fill:#e6e6e6}.h{fill:none;stroke:#f5f5f5;stroke-miterlimit:10;stroke-width:.8}.i{fill:#263238}.j{opacity:.4;fill:#fff}.k{opacity:.3}.l{fill:#407bff}.m{fill:none;stroke:#263238;stroke-linecap:round;stroke-linejoin:round;stroke-width:.4}.n{opacity:.7;fill:#fff}.o{fill:#d7504d}.p{opacity:.3;fill:#fff}.q{fill:none;stroke:#000;stroke-miterlimit:10;stroke-width:.4}.r{fill:#407bff;stroke:#000;stroke-linecap:round;stroke-linejoin:round;stroke-width:.4}.s{fill:none;stroke:#407bff;stroke-linecap:round;stroke-linejoin:round}</style><path fill-rule="evenodd" class="a" d="m118.3 459.4q24.9 0 49.7 0"/><path fill-rule="evenodd" class="a" d="m78.3 464.9q35.8 0 71.7 0"/><path fill-rule="evenodd" class="a" d="m359.9 462.4q26 0 52 0"/><path fill-rule="evenodd" class="a" d="m334.6 468.3q31.4 0 62.9 0"/><path fill-rule="evenodd" class="b" d="m443.9 305.1h-180.7c-3.3 0-5.9-2.3-5.9-5v-225c0-2.8 2.6-5 5.9-5h180.7c3.3 0 5.9 2.2 5.9 5v225c0 2.7-2.6 5-5.9 5zm-180.7-234.8c-3.1 0-5.6 2.1-5.6 4.8v225c0 2.6 2.5 4.8 5.6 4.8h180.7c3.1 0 5.6-2.2 5.6-4.8v-225c0-2.7-2.5-4.8-5.6-4.8z"/><path fill-rule="evenodd" class="b" d="m235.5 305.1h-180.8c-3.2 0-5.8-2.3-5.8-5v-225c0-2.8 2.6-5 5.8-5h180.8c3.2 0 5.9 2.2 5.9 5v225c0 2.7-2.7 5-5.9 5zm-180.8-234.8c-3 0-5.6 2.1-5.6 4.8v225c0 2.6 2.6 4.8 5.6 4.8h180.8c3.1 0 5.6-2.2 5.6-4.8v-225c0-2.7-2.5-4.8-5.6-4.8z"/><path class="b" d="m0 337.6h500v0.2h-500z"/><path class="b" d="m51.7 354.6h16v0.3h-16z"/><path class="b" d="m170.4 351.9h53.5v0.3h-53.5z"/><path class="b" d="m68.7 363.9h36.3v0.3h-36.3z"/><path class="b" d="m378.4 351.8h43.1v0.3h-43.1z"/><path class="b" d="m430.5 351.8h6.3v0.3h-6.3z"/><path class="b" d="m316.2 358h53.9v0.3h-53.9z"/><path class="c" d="m273.3 85.3c-1.5-1.1-3.6-1.3-5.2-0.3-2.1-4.3-7.9-6.1-12-3.9-1.1-4.5-5.6-8-10.3-8-4.6 0.1-9 3.7-10 8.2-0.1 0.8-0.3 1.6-0.8 2.1-0.8 0.9-2.2 0.6-3.4 0.5-3.8-0.3-7.6 2.3-8.6 6l52-0.2c0.5-1.8-0.3-3.3-1.7-4.4z"/><path class="d" d="m457.9 261.2v-0.6h-0.9v-25.8h-5.2v-6.8h-11.9v-23h-6.6v-16.3h-8v-23.8h-2.9v23.8h-8v16.3h-6.5v23h-12v6.8h-5.1v26.4h-1.8v-36.8h-2.9v23.6h-3.2v-56.2h-2.8v23.6h-8.1v-8.7h-3.8v-32.1h-2.2v-0.6h-3.8v-32h-2.8v4.7h-44.5v-14.3h-7.6v-50.9h-3v50.9h-10.5v14.3h-4.9v67.5h-22.8v-20.3h8.1v-3.9h-8.1v-5.1h-21.7v-51.7h-5.4v-7.8h-25.5v7.8h-3.8v71.4h-12v33.2h-6.1v-26.4h-5.1v-6.8h-12v-23h-6.5v-16.3h-8v-23.8h-2.9v23.8h-8v16.3h-6.6v23h-11.9v6.8h-5.2v26.4h-7.8v-69.4h-2.9v23.6h-10.3v45.8h-3.8v-87.2h-3.8v-32h-2.7v11.3l-19.6 9.5v11.2h-9.1v87.2h-6.4v25.1h-4.3l-3 64.6 408.7 1v-67.3z"/><path class="e" d="m331.5 149.9h3.1v3.2h-3.1z"/><path class="e" d="m331.5 155.2h3.1v3.2h-3.1z"/><path class="e" d="m331.5 176.6h3.1v3.2h-3.1z"/><path class="e" d="m331.5 181.9h3.1v3.2h-3.1z"/><path class="e" d="m331.5 187.3h3.1v3.1h-3.1z"/><path class="e" d="m331.5 203.3h3.1v3.2h-3.1z"/><path class="e" d="m331.5 208.6h3.1v3.2h-3.1z"/><path class="e" d="m326.6 171.2h3.1v3.2h-3.1z"/><path class="e" d="m326.6 176.6h3.1v3.2h-3.1z"/><path class="e" d="m326.6 181.9h3.1v3.2h-3.1z"/><path class="e" d="m326.6 187.3h3.1v3.1h-3.1z"/><path class="e" d="m326.6 192.6h3.1v3.2h-3.1z"/><path class="e" d="m326.6 203.3h3.1v3.2h-3.1z"/><path class="e" d="m326.6 208.6h3.1v3.2h-3.1z"/><path class="e" d="m321.8 149.9h3v3.2h-3z"/><path class="e" d="m321.8 155.2h3v3.2h-3z"/><path class="e" d="m321.8 160.6h3v3.1h-3z"/><path class="e" d="m321.8 165.9h3v3.2h-3z"/><path class="e" d="m321.8 171.2h3v3.2h-3z"/><path class="e" d="m321.8 176.6h3v3.2h-3z"/><path class="e" d="m321.8 181.9h3v3.2h-3z"/><path class="e" d="m321.8 187.3h3v3.1h-3z"/><path class="e" d="m321.8 192.6h3v3.2h-3z"/><path class="e" d="m321.8 197.9h3v3.2h-3z"/><path class="e" d="m321.8 208.6h3v3.2h-3z"/><path class="e" d="m316.9 149.9h3.1v3.2h-3.1z"/><path class="e" d="m316.9 155.2h3.1v3.2h-3.1z"/><path class="e" d="m316.9 160.6h3.1v3.1h-3.1z"/><path class="e" d="m316.9 165.9h3.1v3.2h-3.1z"/><path class="e" d="m316.9 171.2h3.1v3.2h-3.1z"/><path class="e" d="m316.9 176.6h3.1v3.2h-3.1z"/><path class="e" d="m316.9 181.9h3.1v3.2h-3.1z"/><path class="e" d="m316.9 230h3.1v3.2h-3.1z"/><path class="e" d="m312 149.9h3.1v3.2h-3.1z"/><path class="e" d="m312 155.2h3.1v3.2h-3.1z"/><path class="e" d="m312 160.6h3.1v3.1h-3.1z"/><path class="e" d="m312 165.9h3.1v3.2h-3.1z"/><path class="e" d="m312 171.2h3.1v3.2h-3.1z"/><path class="e" d="m312 176.6h3.1v3.2h-3.1z"/><path class="e" d="m312 181.9h3.1v3.2h-3.1z"/><path class="e" d="m312 187.3h3.1v3.1h-3.1z"/><path class="e" d="m312 219.3h3.1v3.2h-3.1z"/><path class="e" d="m312 224.6h3.1v3.2h-3.1z"/><path class="e" d="m312 230h3.1v3.2h-3.1z"/><path class="e" d="m312 235.3h3.1v3.2h-3.1z"/><path class="e" d="m312 256.7h3.1v3.2h-3.1z"/><path class="e" d="m307.1 149.9h3.1v3.2h-3.1z"/><path class="e" d="m307.1 155.2h3.1v3.2h-3.1z"/><path class="e" d="m307.1 160.6h3.1v3.1h-3.1z"/><path class="e" d="m307.1 165.9h3.1v3.2h-3.1z"/><path class="e" d="m307.1 171.2h3.1v3.2h-3.1z"/><path class="e" d="m307.1 176.6h3.1v3.2h-3.1z"/><path class="e" d="m307.1 181.9h3.1v3.2h-3.1z"/><path class="e" d="m307.1 187.3h3.1v3.1h-3.1z"/><path class="e" d="m307.1 192.6h3.1v3.2h-3.1z"/><path class="e" d="m307.1 197.9h3.1v3.2h-3.1z"/><path class="e" d="m307.1 214h3.1v3.1h-3.1z"/><path class="e" d="m307.1 219.3h3.1v3.2h-3.1z"/><path class="e" d="m307.1 224.6h3.1v3.2h-3.1z"/><path class="e" d="m307.1 230h3.1v3.2h-3.1z"/><path class="e" d="m307.1 235.3h3.1v3.2h-3.1z"/><path class="e" d="m307.1 256.7h3.1v3.2h-3.1z"/><path class="e" d="m302.2 149.9h3.1v3.2h-3.1z"/><path class="e" d="m302.2 155.2h3.1v3.2h-3.1z"/><path class="e" d="m302.2 160.6h3.1v3.1h-3.1z"/><path class="e" d="m302.2 165.9h3.1v3.2h-3.1z"/><path class="e" d="m302.2 171.2h3.1v3.2h-3.1z"/><path class="e" d="m302.2 176.6h3.1v3.2h-3.1z"/><path class="e" d="m302.2 181.9h3.1v3.2h-3.1z"/><path class="e" d="m302.2 187.3h3.1v3.1h-3.1z"/><path class="e" d="m302.2 192.6h3.1v3.2h-3.1z"/><path class="e" d="m302.2 197.9h3.1v3.2h-3.1z"/><path class="e" d="m302.2 203.3h3.1v3.2h-3.1z"/><path class="e" d="m302.2 208.6h3.1v3.2h-3.1z"/><path class="e" d="m302.2 214h3.1v3.1h-3.1z"/><path class="e" d="m302.2 219.3h3.1v3.2h-3.1z"/><path class="e" d="m302.2 224.6h3.1v3.2h-3.1z"/><path class="e" d="m302.2 230h3.1v3.2h-3.1z"/><path class="e" d="m302.2 235.3h3.1v3.2h-3.1z"/><path class="e" d="m302.2 240.7h3.1v3.2h-3.1z"/><path class="e" d="m297.4 149.9h3v3.2h-3z"/><path class="e" d="m297.4 155.2h3v3.2h-3z"/><path class="e" d="m297.4 160.6h3v3.1h-3z"/><path class="e" d="m297.4 165.9h3v3.2h-3z"/><path class="e" d="m297.4 171.2h3v3.2h-3z"/><path class="e" d="m297.4 176.6h3v3.2h-3z"/><path class="e" d="m297.4 181.9h3v3.2h-3z"/><path class="e" d="m297.4 187.3h3v3.1h-3z"/><path class="e" d="m297.4 192.6h3v3.2h-3z"/><path class="e" d="m297.4 197.9h3v3.2h-3z"/><path class="e" d="m297.4 214h3v3.1h-3z"/><path class="e" d="m297.4 219.3h3v3.2h-3z"/><path class="e" d="m297.4 224.6h3v3.2h-3z"/><path class="e" d="m297.4 230h3v3.2h-3z"/><path class="e" d="m292.5 149.9h3v3.2h-3z"/><path class="e" d="m292.5 155.2h3v3.2h-3z"/><path class="e" d="m292.5 160.6h3v3.1h-3z"/><path class="e" d="m292.5 165.9h3v3.2h-3z"/><path class="e" d="m292.5 171.2h3v3.2h-3z"/><path class="e" d="m292.5 176.6h3v3.2h-3z"/><path class="e" d="m292.5 181.9h3v3.2h-3z"/><path class="e" d="m292.5 187.3h3v3.1h-3z"/><path class="e" d="m292.5 192.6h3v3.2h-3z"/><path class="e" d="m292.5 197.9h3v3.2h-3z"/><path class="e" d="m292.5 214h3v3.1h-3z"/><path class="e" d="m292.5 219.3h3v3.2h-3z"/><path class="e" d="m292.5 224.6h3v3.2h-3z"/><path class="e" d="m237.5 136h3.1v3.2h-3.1z"/><path class="e" d="m237.5 141.3h3.1v3.2h-3.1z"/><path class="e" d="m237.5 146.7h3.1v3.2h-3.1z"/><path class="e" d="m237.5 152h3.1v3.2h-3.1z"/><path class="e" d="m237.5 157.4h3.1v3.2h-3.1z"/><path class="e" d="m237.5 162.7h3.1v3.2h-3.1z"/><path class="e" d="m237.5 168.1h3.1v3.1h-3.1z"/><path class="e" d="m237.5 173.4h3.1v3.2h-3.1z"/><path class="e" d="m237.5 189.4h3.1v3.2h-3.1z"/><path class="e" d="m237.5 194.7h3.1v3.2h-3.1z"/><path class="e" d="m232.6 136h3.1v3.2h-3.1z"/><path class="e" d="m232.6 141.3h3.1v3.2h-3.1z"/><path class="e" d="m232.6 146.7h3.1v3.2h-3.1z"/><path class="e" d="m232.6 152h3.1v3.2h-3.1z"/><path class="e" d="m232.6 157.4h3.1v3.2h-3.1z"/><path class="e" d="m232.6 162.7h3.1v3.2h-3.1z"/><path class="e" d="m232.6 168.1h3.1v3.1h-3.1z"/><path class="e" d="m232.6 173.4h3.1v3.2h-3.1z"/><path class="e" d="m232.6 194.7h3.1v3.2h-3.1z"/><path class="e" d="m227.7 136h3.1v3.2h-3.1z"/><path class="e" d="m227.7 141.3h3.1v3.2h-3.1z"/><path class="e" d="m227.7 146.7h3.1v3.2h-3.1z"/><path class="e" d="m227.7 152h3.1v3.2h-3.1z"/><path class="e" d="m227.7 157.4h3.1v3.2h-3.1z"/><path class="e" d="m227.7 162.7h3.1v3.2h-3.1z"/><path class="e" d="m227.7 168.1h3.1v3.1h-3.1z"/><path class="e" d="m227.7 173.4h3.1v3.2h-3.1z"/><path class="e" d="m222.8 136h3.1v3.2h-3.1z"/><path class="e" d="m222.8 141.3h3.1v3.2h-3.1z"/><path class="e" d="m222.8 146.7h3.1v3.2h-3.1z"/><path class="e" d="m222.8 152h3.1v3.2h-3.1z"/><path class="e" d="m222.8 157.4h3.1v3.2h-3.1z"/><path class="e" d="m222.8 162.7h3.1v3.2h-3.1z"/><path class="e" d="m222.8 173.4h3.1v3.2h-3.1z"/><path class="e" d="m222.8 178.7h3.1v3.2h-3.1z"/><path class="e" d="m222.8 194.7h3.1v3.2h-3.1z"/><path class="e" d="m222.8 200.1h3.1v3.2h-3.1z"/><path class="e" d="m222.8 205.4h3.1v3.2h-3.1z"/><path class="e" d="m222.8 210.8h3.1v3.2h-3.1z"/><path class="e" d="m222.8 216.1h3.1v3.2h-3.1z"/><path class="e" d="m222.8 221.5h3.1v3.1h-3.1z"/><path class="e" d="m222.8 226.8h3.1v3.2h-3.1z"/><path class="e" d="m218 136h3v3.2h-3z"/><path class="e" d="m218 141.3h3v3.2h-3z"/><path class="e" d="m218 146.7h3v3.2h-3z"/><path class="e" d="m218 152h3v3.2h-3z"/><path class="e" d="m218 157.4h3v3.2h-3z"/><path class="e" d="m218 162.7h3v3.2h-3z"/><path class="e" d="m218 178.7h3v3.2h-3z"/><path class="e" d="m218 184.1h3v3.1h-3z"/><path class="e" d="m218 189.4h3v3.2h-3z"/><path class="e" d="m218 194.7h3v3.2h-3z"/><path class="e" d="m218 200.1h3v3.2h-3z"/><path class="e" d="m218 205.4h3v3.2h-3z"/><path class="e" d="m218 210.8h3v3.2h-3z"/><path class="e" d="m218 216.1h3v3.2h-3z"/><path class="e" d="m218 221.5h3v3.1h-3z"/><path class="e" d="m218 226.8h3v3.2h-3z"/><path class="e" d="m218 232.1h3v3.2h-3z"/><path class="e" d="m218 242.8h3v3.2h-3z"/><path class="e" d="m213.1 136h3.1v3.2h-3.1z"/><path class="e" d="m213.1 141.3h3.1v3.2h-3.1z"/><path class="e" d="m213.1 146.7h3.1v3.2h-3.1z"/><path class="e" d="m213.1 152h3.1v3.2h-3.1z"/><path class="e" d="m213.1 157.4h3.1v3.2h-3.1z"/><path class="e" d="m213.1 162.7h3.1v3.2h-3.1z"/><path class="e" d="m213.1 178.7h3.1v3.2h-3.1z"/><path class="e" d="m213.1 184.1h3.1v3.1h-3.1z"/><path class="e" d="m213.1 189.4h3.1v3.2h-3.1z"/><path class="e" d="m213.1 194.7h3.1v3.2h-3.1z"/><path class="e" d="m213.1 210.8h3.1v3.2h-3.1z"/><path class="e" d="m213.1 216.1h3.1v3.2h-3.1z"/><path class="e" d="m213.1 221.5h3.1v3.1h-3.1z"/><path class="e" d="m213.1 226.8h3.1v3.2h-3.1z"/><path class="e" d="m213.1 232.1h3.1v3.2h-3.1z"/><path class="e" d="m213.1 242.8h3.1v3.2h-3.1z"/><path class="e" d="m213.1 248.2h3.1v3.1h-3.1z"/><path class="e" d="m168.8 185.7h3v3.2h-3z"/><path class="e" d="m168.8 191h3v3.2h-3z"/><path class="e" d="m168.8 196.3h3v3.2h-3z"/><path class="e" d="m168.8 201.7h3v3.2h-3z"/><path class="e" d="m168.8 207h3v3.2h-3z"/><path class="e" d="m168.8 212.4h3v3.1h-3z"/><path class="e" d="m168.8 217.7h3v3.2h-3z"/><path class="e" d="m168.8 233.7h3v3.2h-3z"/><path class="e" d="m168.8 239.1h3v3.2h-3z"/><path class="e" d="m168.8 244.4h3v3.2h-3z"/><path class="e" d="m163.9 185.7h3.1v3.2h-3.1z"/><path class="e" d="m163.9 191h3.1v3.2h-3.1z"/><path class="e" d="m163.9 196.3h3.1v3.2h-3.1z"/><path class="e" d="m163.9 201.7h3.1v3.2h-3.1z"/><path class="e" d="m163.9 207h3.1v3.2h-3.1z"/><path class="e" d="m163.9 212.4h3.1v3.1h-3.1z"/><path class="e" d="m163.9 217.7h3.1v3.2h-3.1z"/><path class="e" d="m159 185.7h3.1v3.2h-3.1z"/><path class="e" d="m159 191h3.1v3.2h-3.1z"/><path class="e" d="m159 196.3h3.1v3.2h-3.1z"/><path class="e" d="m159 201.7h3.1v3.2h-3.1z"/><path class="e" d="m159 207h3.1v3.2h-3.1z"/><path class="e" d="m159 212.4h3.1v3.1h-3.1z"/><path class="e" d="m159 217.7h3.1v3.2h-3.1z"/><path class="e" d="m154.1 185.7h3.1v3.2h-3.1z"/><path class="e" d="m154.1 191h3.1v3.2h-3.1z"/><path class="e" d="m154.1 196.3h3.1v3.2h-3.1z"/><path class="e" d="m154.1 201.7h3.1v3.2h-3.1z"/><path class="e" d="m154.1 207h3.1v3.2h-3.1z"/><path class="e" d="m154.1 212.4h3.1v3.1h-3.1z"/><path class="e" d="m154.1 217.7h3.1v3.2h-3.1z"/><path class="e" d="m154.1 223h3.1v3.2h-3.1z"/><path class="e" d="m154.1 228.4h3.1v3.2h-3.1z"/><path class="e" d="m154.1 233.7h3.1v3.2h-3.1z"/><path class="e" d="m154.1 239.1h3.1v3.2h-3.1z"/><path class="e" d="m149.2 185.7h3.1v3.2h-3.1z"/><path class="e" d="m149.2 191h3.1v3.2h-3.1z"/><path class="e" d="m149.2 196.3h3.1v3.2h-3.1z"/><path class="e" d="m149.2 201.7h3.1v3.2h-3.1z"/><path class="e" d="m149.2 207h3.1v3.2h-3.1z"/><path class="e" d="m149.2 212.4h3.1v3.1h-3.1z"/><path class="e" d="m149.2 217.7h3.1v3.2h-3.1z"/><path class="e" d="m149.2 223h3.1v3.2h-3.1z"/><path class="e" d="m149.2 228.4h3.1v3.2h-3.1z"/><path class="e" d="m149.2 233.7h3.1v3.2h-3.1z"/><path class="e" d="m149.2 239.1h3.1v3.2h-3.1z"/><path class="e" d="m149.2 244.4h3.1v3.2h-3.1z"/><path class="e" d="m149.2 260.4h3.1v3.2h-3.1z"/><path class="e" d="m149.2 265.8h3.1v3.2h-3.1z"/><path class="e" d="m144.4 185.7h3v3.2h-3z"/><path class="e" d="m144.4 191h3v3.2h-3z"/><path class="e" d="m144.4 196.3h3v3.2h-3z"/><path class="e" d="m144.4 212.4h3v3.1h-3z"/><path class="e" d="m144.4 217.7h3v3.2h-3z"/><path class="e" d="m144.4 223h3v3.2h-3z"/><path class="e" d="m144.4 228.4h3v3.2h-3z"/><path class="e" d="m144.4 233.7h3v3.2h-3z"/><path class="e" d="m144.4 239.1h3v3.2h-3z"/><path class="e" d="m144.4 244.4h3v3.2h-3z"/><path class="e" d="m144.4 260.4h3v3.2h-3z"/><path class="e" d="m144.4 265.8h3v3.2h-3z"/><path class="e" d="m144.4 271.1h3v3.2h-3z"/><path class="e" d="m93.2 153.6h3.1v3.2h-3.1z"/><path class="e" d="m93.2 159h3.1v3.1h-3.1z"/><path class="e" d="m93.2 164.3h3.1v3.2h-3.1z"/><path class="e" d="m93.2 169.6h3.1v3.2h-3.1z"/><path class="e" d="m93.2 175h3.1v3.2h-3.1z"/><path class="e" d="m93.2 180.3h3.1v3.2h-3.1z"/><path class="e" d="m93.2 185.7h3.1v3.2h-3.1z"/><path class="e" d="m93.2 191h3.1v3.2h-3.1z"/><path class="e" d="m93.2 196.3h3.1v3.2h-3.1z"/><path class="e" d="m93.2 201.7h3.1v3.2h-3.1z"/><path class="e" d="m93.2 207h3.1v3.2h-3.1z"/><path class="e" d="m93.2 212.4h3.1v3.1h-3.1z"/><path class="e" d="m93.2 217.7h3.1v3.2h-3.1z"/><path class="e" d="m93.2 223h3.1v3.2h-3.1z"/><path class="e" d="m93.2 228.4h3.1v3.2h-3.1z"/><path class="e" d="m93.2 233.7h3.1v3.2h-3.1z"/><path class="e" d="m93.2 239.1h3.1v3.2h-3.1z"/><path class="e" d="m93.2 244.4h3.1v3.2h-3.1z"/><path class="e" d="m93.2 249.8h3.1v3.1h-3.1z"/><path class="e" d="m93.2 255.1h3.1v3.2h-3.1z"/><path class="e" d="m93.2 260.4h3.1v3.2h-3.1z"/><path class="e" d="m93.2 265.8h3.1v3.2h-3.1z"/><path class="e" d="m93.2 271.1h3.1v3.2h-3.1z"/><path class="e" d="m88.3 153.6h3.1v3.2h-3.1z"/><path class="e" d="m88.3 159h3.1v3.1h-3.1z"/><path class="e" d="m88.3 164.3h3.1v3.2h-3.1z"/><path class="e" d="m88.3 169.6h3.1v3.2h-3.1z"/><path class="e" d="m88.3 175h3.1v3.2h-3.1z"/><path class="e" d="m88.3 180.3h3.1v3.2h-3.1z"/><path class="e" d="m88.3 185.7h3.1v3.2h-3.1z"/><path class="e" d="m88.3 191h3.1v3.2h-3.1z"/><path class="e" d="m88.3 196.3h3.1v3.2h-3.1z"/><path class="e" d="m88.3 201.7h3.1v3.2h-3.1z"/><path class="e" d="m88.3 207h3.1v3.2h-3.1z"/><path class="e" d="m88.3 212.4h3.1v3.1h-3.1z"/><path class="e" d="m88.3 217.7h3.1v3.2h-3.1z"/><path class="e" d="m88.3 223h3.1v3.2h-3.1z"/><path class="e" d="m88.3 228.4h3.1v3.2h-3.1z"/><path class="e" d="m88.3 233.7h3.1v3.2h-3.1z"/><path class="e" d="m88.3 239.1h3.1v3.2h-3.1z"/><path class="e" d="m88.3 244.4h3.1v3.2h-3.1z"/><path class="e" d="m88.3 249.8h3.1v3.1h-3.1z"/><path class="e" d="m83.4 153.6h3.1v3.2h-3.1z"/><path class="e" d="m83.4 159h3.1v3.1h-3.1z"/><path class="e" d="m83.4 164.3h3.1v3.2h-3.1z"/><path class="e" d="m83.4 169.6h3.1v3.2h-3.1z"/><path class="e" d="m83.4 175h3.1v3.2h-3.1z"/><path class="e" d="m83.4 180.3h3.1v3.2h-3.1z"/><path class="e" d="m83.4 185.7h3.1v3.2h-3.1z"/><path class="e" d="m83.4 191h3.1v3.2h-3.1z"/><path class="e" d="m83.4 196.3h3.1v3.2h-3.1z"/><path class="e" d="m83.4 201.7h3.1v3.2h-3.1z"/><path class="e" d="m83.4 207h3.1v3.2h-3.1z"/><path class="e" d="m83.4 212.4h3.1v3.1h-3.1z"/><path class="e" d="m83.4 217.7h3.1v3.2h-3.1z"/><path class="e" d="m83.4 223h3.1v3.2h-3.1z"/><path class="e" d="m83.4 228.4h3.1v3.2h-3.1z"/><path class="e" d="m83.4 233.7h3.1v3.2h-3.1z"/><path class="e" d="m83.4 239.1h3.1v3.2h-3.1z"/><path class="e" d="m83.4 244.4h3.1v3.2h-3.1z"/><path class="e" d="m83.4 249.8h3.1v3.1h-3.1z"/><path class="e" d="m78.5 153.6h3.1v3.2h-3.1z"/><path class="e" d="m78.5 159h3.1v3.1h-3.1z"/><path class="e" d="m78.5 164.3h3.1v3.2h-3.1z"/><path class="e" d="m78.5 169.6h3.1v3.2h-3.1z"/><path class="e" d="m78.5 175h3.1v3.2h-3.1z"/><path class="e" d="m78.5 180.3h3.1v3.2h-3.1z"/><path class="e" d="m78.5 185.7h3.1v3.2h-3.1z"/><path class="e" d="m78.5 191h3.1v3.2h-3.1z"/><path class="e" d="m78.5 196.3h3.1v3.2h-3.1z"/><path class="e" d="m78.5 201.7h3.1v3.2h-3.1z"/><path class="e" d="m78.5 207h3.1v3.2h-3.1z"/><path class="e" d="m78.5 212.4h3.1v3.1h-3.1z"/><path class="e" d="m78.5 217.7h3.1v3.2h-3.1z"/><path class="e" d="m78.5 223h3.1v3.2h-3.1z"/><path class="e" d="m78.5 228.4h3.1v3.2h-3.1z"/><path class="e" d="m73.7 153.6h3v3.2h-3z"/><path class="e" d="m73.7 159h3v3.1h-3z"/><path class="e" d="m73.7 164.3h3v3.2h-3z"/><path class="e" d="m73.7 169.6h3v3.2h-3z"/><path class="e" d="m73.7 175h3v3.2h-3z"/><path class="e" d="m73.7 180.3h3v3.2h-3z"/><path class="e" d="m73.7 185.7h3v3.2h-3z"/><path class="e" d="m73.7 191h3v3.2h-3z"/><path class="e" d="m73.7 196.3h3v3.2h-3z"/><path class="e" d="m73.7 201.7h3v3.2h-3z"/><path class="e" d="m73.7 207h3v3.2h-3z"/><path class="e" d="m73.7 212.4h3v3.1h-3z"/><path class="e" d="m73.7 217.7h3v3.2h-3z"/><path class="e" d="m68.8 153.6h3.1v3.2h-3.1z"/><path class="e" d="m68.8 159h3.1v3.1h-3.1z"/><path class="e" d="m68.8 164.3h3.1v3.2h-3.1z"/><path class="e" d="m68.8 169.6h3.1v3.2h-3.1z"/><path class="e" d="m68.8 175h3.1v3.2h-3.1z"/><path class="e" d="m68.8 180.3h3.1v3.2h-3.1z"/><path class="e" d="m68.8 185.7h3.1v3.2h-3.1z"/><path class="e" d="m68.8 191h3.1v3.2h-3.1z"/><path class="e" d="m68.8 196.3h3.1v3.2h-3.1z"/><path class="e" d="m68.8 201.7h3.1v3.2h-3.1z"/><path class="e" d="m68.8 207h3.1v3.2h-3.1z"/><path class="e" d="m68.8 212.4h3.1v3.1h-3.1z"/><path class="e" d="m427.6 192.6h3v3.2h-3z"/><path class="e" d="m427.6 197.9h3v3.2h-3z"/><path class="e" d="m427.6 203.3h3v3.2h-3z"/><path class="e" d="m427.6 208.6h3v3.2h-3z"/><path class="e" d="m427.6 214h3v3.1h-3z"/><path class="e" d="m427.6 219.3h3v3.2h-3z"/><path class="e" d="m427.6 224.6h3v3.2h-3z"/><path class="e" d="m427.6 230h3v3.2h-3z"/><path class="e" d="m427.6 235.3h3v3.2h-3z"/><path class="e" d="m427.6 240.7h3v3.2h-3z"/><path class="e" d="m427.6 246h3v3.2h-3z"/><path class="e" d="m427.6 251.3h3v3.2h-3z"/><path class="e" d="m427.6 256.7h3v3.2h-3z"/><path class="e" d="m427.6 262h3v3.2h-3z"/><path class="e" d="m427.6 267.4h3v3.2h-3z"/><path class="e" d="m427.6 272.7h3v3.2h-3z"/><path class="e" d="m427.6 278.1h3v3.1h-3z"/><path class="e" d="m427.6 283.4h3v3.2h-3z"/><path class="e" d="m427.6 288.7h3v3.2h-3z"/><path class="e" d="m427.6 294.1h3v3.2h-3z"/><path class="e" d="m422.7 192.6h3v3.2h-3z"/><path class="e" d="m422.7 197.9h3v3.2h-3z"/><path class="e" d="m422.7 203.3h3v3.2h-3z"/><path class="e" d="m422.7 208.6h3v3.2h-3z"/><path class="e" d="m422.7 214h3v3.1h-3z"/><path class="e" d="m422.7 219.3h3v3.2h-3z"/><path class="e" d="m422.7 224.6h3v3.2h-3z"/><path class="e" d="m422.7 230h3v3.2h-3z"/><path class="e" d="m422.7 235.3h3v3.2h-3z"/><path class="e" d="m422.7 240.7h3v3.2h-3z"/><path class="e" d="m422.7 246h3v3.2h-3z"/><path class="e" d="m422.7 251.3h3v3.2h-3z"/><path class="e" d="m422.7 256.7h3v3.2h-3z"/><path class="e" d="m422.7 262h3v3.2h-3z"/><path class="e" d="m422.7 267.4h3v3.2h-3z"/><path class="e" d="m422.7 272.7h3v3.2h-3z"/><path class="e" d="m422.7 278.1h3v3.1h-3z"/><path class="e" d="m422.7 283.4h3v3.2h-3z"/><path class="e" d="m417.8 192.6h3.1v3.2h-3.1z"/><path class="e" d="m417.8 197.9h3.1v3.2h-3.1z"/><path class="e" d="m417.8 203.3h3.1v3.2h-3.1z"/><path class="e" d="m417.8 208.6h3.1v3.2h-3.1z"/><path class="e" d="m417.8 214h3.1v3.1h-3.1z"/><path class="e" d="m417.8 219.3h3.1v3.2h-3.1z"/><path class="e" d="m417.8 224.6h3.1v3.2h-3.1z"/><path class="e" d="m417.8 230h3.1v3.2h-3.1z"/><path class="e" d="m417.8 235.3h3.1v3.2h-3.1z"/><path class="e" d="m417.8 240.7h3.1v3.2h-3.1z"/><path class="e" d="m417.8 246h3.1v3.2h-3.1z"/><path class="e" d="m417.8 251.3h3.1v3.2h-3.1z"/><path class="e" d="m417.8 256.7h3.1v3.2h-3.1z"/><path class="e" d="m417.8 262h3.1v3.2h-3.1z"/><path class="e" d="m417.8 267.4h3.1v3.2h-3.1z"/><path class="e" d="m417.8 272.7h3.1v3.2h-3.1z"/><path class="e" d="m417.8 278.1h3.1v3.1h-3.1z"/><path class="e" d="m417.8 283.4h3.1v3.2h-3.1z"/><path class="e" d="m445.8 231.6h3.1v3.2h-3.1z"/><path class="e" d="m445.8 236.9h3.1v3.2h-3.1z"/><path class="e" d="m445.8 242.3h3.1v3.1h-3.1z"/><path class="e" d="m445.8 247.6h3.1v3.2h-3.1z"/><path class="e" d="m445.8 252.9h3.1v3.2h-3.1z"/><path class="e" d="m445.8 258.3h3.1v3.2h-3.1z"/><path class="e" d="m445.8 263.6h3.1v3.2h-3.1z"/><path class="e" d="m445.8 269h3.1v3.2h-3.1z"/><path class="e" d="m445.8 274.3h3.1v3.2h-3.1z"/><path class="e" d="m445.8 279.6h3.1v3.2h-3.1z"/><path class="e" d="m445.8 285h3.1v3.2h-3.1z"/><path class="e" d="m445.8 290.3h3.1v3.2h-3.1z"/><path class="e" d="m445.8 295.7h3.1v3.1h-3.1z"/><path class="e" d="m440.9 231.6h3.1v3.2h-3.1z"/><path class="e" d="m440.9 236.9h3.1v3.2h-3.1z"/><path class="e" d="m440.9 242.3h3.1v3.1h-3.1z"/><path class="e" d="m440.9 247.6h3.1v3.2h-3.1z"/><path class="e" d="m440.9 252.9h3.1v3.2h-3.1z"/><path class="e" d="m440.9 258.3h3.1v3.2h-3.1z"/><path class="e" d="m440.9 263.6h3.1v3.2h-3.1z"/><path class="e" d="m440.9 269h3.1v3.2h-3.1z"/><path class="e" d="m440.9 274.3h3.1v3.2h-3.1z"/><path class="e" d="m440.9 279.6h3.1v3.2h-3.1z"/><path class="e" d="m440.9 285h3.1v3.2h-3.1z"/><path class="e" d="m440.9 290.3h3.1v3.2h-3.1z"/><path class="e" d="m440.9 295.7h3.1v3.1h-3.1z"/><path class="e" d="m436.1 231.6h3v3.2h-3z"/><path class="e" d="m436.1 236.9h3v3.2h-3z"/><path class="e" d="m436.1 242.3h3v3.1h-3z"/><path class="e" d="m436.1 247.6h3v3.2h-3z"/><path class="e" d="m436.1 252.9h3v3.2h-3z"/><path class="e" d="m436.1 258.3h3v3.2h-3z"/><path class="e" d="m436.1 263.6h3v3.2h-3z"/><path class="e" d="m436.1 269h3v3.2h-3z"/><path class="e" d="m436.1 274.3h3v3.2h-3z"/><path class="e" d="m436.1 279.6h3v3.2h-3z"/><path class="e" d="m436.1 285h3v3.2h-3z"/><path class="e" d="m436.1 290.3h3v3.2h-3z"/><path class="e" d="m436.1 295.7h3v3.1h-3z"/><path class="e" d="m436.1 301h3v3.2h-3z"/><path class="e" d="m408.9 233.2h3.1v3.2h-3.1z"/><path class="e" d="m408.9 238.5h3.1v3.2h-3.1z"/><path class="e" d="m408.9 243.8h3.1v3.2h-3.1z"/><path class="e" d="m408.9 249.2h3.1v3.2h-3.1z"/><path class="e" d="m408.9 254.5h3.1v3.2h-3.1z"/><path class="e" d="m408.9 259.9h3.1v3.2h-3.1z"/><path class="e" d="m408.9 265.2h3.1v3.2h-3.1z"/><path class="e" d="m408.9 270.6h3.1v3.1h-3.1z"/><path class="e" d="m408.9 275.9h3.1v3.2h-3.1z"/><path class="e" d="m408.9 281.2h3.1v3.2h-3.1z"/><path class="e" d="m408.9 297.3h3.1v3.1h-3.1z"/><path class="e" d="m404 233.2h3.1v3.2h-3.1z"/><path class="e" d="m404 238.5h3.1v3.2h-3.1z"/><path class="e" d="m404 243.8h3.1v3.2h-3.1z"/><path class="e" d="m404 249.2h3.1v3.2h-3.1z"/><path class="e" d="m404 254.5h3.1v3.2h-3.1z"/><path class="e" d="m404 259.9h3.1v3.2h-3.1z"/><path class="e" d="m404 265.2h3.1v3.2h-3.1z"/><path class="e" d="m404 270.6h3.1v3.1h-3.1z"/><path class="e" d="m404 275.9h3.1v3.2h-3.1z"/><path class="e" d="m404 291.9h3.1v3.2h-3.1z"/><path class="e" d="m404 297.3h3.1v3.1h-3.1z"/><path class="e" d="m399.2 233.2h3v3.2h-3z"/><path class="e" d="m399.2 238.5h3v3.2h-3z"/><path class="e" d="m399.2 243.8h3v3.2h-3z"/><path class="e" d="m399.2 249.2h3v3.2h-3z"/><path class="e" d="m399.2 254.5h3v3.2h-3z"/><path class="e" d="m399.2 259.9h3v3.2h-3z"/><path class="e" d="m399.2 265.2h3v3.2h-3z"/><path class="e" d="m399.2 270.6h3v3.1h-3z"/><path class="e" d="m399.2 286.6h3v3.2h-3z"/><path class="e" d="m399.2 291.9h3v3.2h-3z"/><path class="e" d="m399.2 297.3h3v3.1h-3z"/><path class="e" d="m353.8 152h3v3.2h-3z"/><path class="e" d="m353.8 157.4h3v3.2h-3z"/><path class="e" d="m353.8 162.7h3v3.2h-3z"/><path class="e" d="m353.8 168.1h3v3.1h-3z"/><path class="e" d="m353.8 173.4h3v3.2h-3z"/><path class="e" d="m353.8 178.7h3v3.2h-3z"/><path class="e" d="m353.8 184.1h3v3.1h-3z"/><path class="e" d="m353.8 189.4h3v3.2h-3z"/><path class="e" d="m353.8 194.7h3v3.2h-3z"/><path class="e" d="m353.8 200.1h3v3.2h-3z"/><path class="e" d="m353.8 205.4h3v3.2h-3z"/><path class="e" d="m353.8 210.8h3v3.2h-3z"/><path class="e" d="m353.8 216.1h3v3.2h-3z"/><path class="e" d="m353.8 221.5h3v3.1h-3z"/><path class="e" d="m353.8 226.8h3v3.2h-3z"/><path class="e" d="m353.8 232.1h3v3.2h-3z"/><path class="e" d="m353.8 237.5h3v3.2h-3z"/><path class="e" d="m353.8 248.2h3v3.1h-3z"/><path class="e" d="m353.8 253.5h3v3.2h-3z"/><path class="e" d="m353.8 258.8h3v3.2h-3z"/><path class="e" d="m353.8 264.2h3v3.2h-3z"/><path class="e" d="m353.8 269.5h3v3.2h-3z"/><path class="e" d="m348.9 152h3.1v3.2h-3.1z"/><path class="e" d="m348.9 157.4h3.1v3.2h-3.1z"/><path class="e" d="m348.9 162.7h3.1v3.2h-3.1z"/><path class="e" d="m348.9 168.1h3.1v3.1h-3.1z"/><path class="e" d="m348.9 173.4h3.1v3.2h-3.1z"/><path class="e" d="m348.9 178.7h3.1v3.2h-3.1z"/><path class="e" d="m348.9 184.1h3.1v3.1h-3.1z"/><path class="e" d="m348.9 189.4h3.1v3.2h-3.1z"/><path class="e" d="m348.9 194.7h3.1v3.2h-3.1z"/><path class="e" d="m348.9 200.1h3.1v3.2h-3.1z"/><path class="e" d="m348.9 205.4h3.1v3.2h-3.1z"/><path class="e" d="m348.9 210.8h3.1v3.2h-3.1z"/><path class="e" d="m348.9 216.1h3.1v3.2h-3.1z"/><path class="e" d="m348.9 221.5h3.1v3.1h-3.1z"/><path class="e" d="m348.9 226.8h3.1v3.2h-3.1z"/><path class="e" d="m348.9 232.1h3.1v3.2h-3.1z"/><path class="e" d="m348.9 264.2h3.1v3.2h-3.1z"/><path class="e" d="m348.9 269.5h3.1v3.2h-3.1z"/><path class="e" d="m344 152h3.1v3.2h-3.1z"/><path class="e" d="m344 157.4h3.1v3.2h-3.1z"/><path class="e" d="m344 162.7h3.1v3.2h-3.1z"/><path class="e" d="m344 168.1h3.1v3.1h-3.1z"/><path class="e" d="m344 173.4h3.1v3.2h-3.1z"/><path class="e" d="m344 178.7h3.1v3.2h-3.1z"/><path class="e" d="m344 184.1h3.1v3.1h-3.1z"/><path class="e" d="m344 189.4h3.1v3.2h-3.1z"/><path class="e" d="m344 194.7h3.1v3.2h-3.1z"/><path class="e" d="m344 200.1h3.1v3.2h-3.1z"/><path class="e" d="m344 205.4h3.1v3.2h-3.1z"/><path class="e" d="m344 210.8h3.1v3.2h-3.1z"/><path class="e" d="m344 216.1h3.1v3.2h-3.1z"/><path class="e" d="m344 221.5h3.1v3.1h-3.1z"/><path class="e" d="m344 226.8h3.1v3.2h-3.1z"/><path class="e" d="m344 232.1h3.1v3.2h-3.1z"/><path class="e" d="m344 242.8h3.1v3.2h-3.1z"/><path class="e" d="m344 248.2h3.1v3.1h-3.1z"/><path class="e" d="m344 253.5h3.1v3.2h-3.1z"/><path class="e" d="m344 258.8h3.1v3.2h-3.1z"/><path class="e" d="m344 269.5h3.1v3.2h-3.1z"/><path class="e" d="m371.5 219.3h3.1v3.2h-3.1z"/><path class="e" d="m371.5 224.6h3.1v3.2h-3.1z"/><path class="e" d="m371.5 230h3.1v3.2h-3.1z"/><path class="e" d="m371.5 235.3h3.1v3.2h-3.1z"/><path class="e" d="m371.5 240.7h3.1v3.2h-3.1z"/><path class="e" d="m371.5 246h3.1v3.2h-3.1z"/><path class="e" d="m371.5 251.3h3.1v3.2h-3.1z"/><path class="e" d="m371.5 262h3.1v3.2h-3.1z"/><path class="e" d="m371.5 267.4h3.1v3.2h-3.1z"/><path class="e" d="m371.5 272.7h3.1v3.2h-3.1z"/><path class="e" d="m371.5 278.1h3.1v3.1h-3.1z"/><path class="e" d="m371.5 283.4h3.1v3.2h-3.1z"/><path class="e" d="m371.5 288.7h3.1v3.2h-3.1z"/><path class="e" d="m371.5 294.1h3.1v3.2h-3.1z"/><path class="e" d="m371.5 299.4h3.1v3.2h-3.1z"/><path class="e" d="m366.6 219.3h3.1v3.2h-3.1z"/><path class="e" d="m366.6 224.6h3.1v3.2h-3.1z"/><path class="e" d="m366.6 230h3.1v3.2h-3.1z"/><path class="e" d="m366.6 235.3h3.1v3.2h-3.1z"/><path class="e" d="m366.6 240.7h3.1v3.2h-3.1z"/><path class="e" d="m366.6 246h3.1v3.2h-3.1z"/><path class="e" d="m366.6 262h3.1v3.2h-3.1z"/><path class="e" d="m366.6 267.4h3.1v3.2h-3.1z"/><path class="e" d="m366.6 272.7h3.1v3.2h-3.1z"/><path class="e" d="m366.6 278.1h3.1v3.1h-3.1z"/><path class="e" d="m366.6 283.4h3.1v3.2h-3.1z"/><path class="e" d="m366.6 288.7h3.1v3.2h-3.1z"/><path class="e" d="m366.6 294.1h3.1v3.2h-3.1z"/><path class="e" d="m366.6 299.4h3.1v3.2h-3.1z"/><path class="e" d="m361.7 219.3h3.1v3.2h-3.1z"/><path class="e" d="m361.7 224.6h3.1v3.2h-3.1z"/><path class="e" d="m361.7 230h3.1v3.2h-3.1z"/><path class="e" d="m361.7 235.3h3.1v3.2h-3.1z"/><path class="e" d="m361.7 240.7h3.1v3.2h-3.1z"/><path class="e" d="m361.7 246h3.1v3.2h-3.1z"/><path class="e" d="m361.7 256.7h3.1v3.2h-3.1z"/><path class="e" d="m361.7 262h3.1v3.2h-3.1z"/><path class="e" d="m361.7 267.4h3.1v3.2h-3.1z"/><path class="e" d="m361.7 272.7h3.1v3.2h-3.1z"/><path class="e" d="m361.7 278.1h3.1v3.1h-3.1z"/><path class="e" d="m361.7 283.4h3.1v3.2h-3.1z"/><path class="e" d="m361.7 288.7h3.1v3.2h-3.1z"/><path class="e" d="m361.7 294.1h3.1v3.2h-3.1z"/><path class="e" d="m361.7 299.4h3.1v3.2h-3.1z"/><path class="e" d="m258.8 189.4h3.1v3.2h-3.1z"/><path class="e" d="m258.8 194.7h3.1v3.2h-3.1z"/><path class="e" d="m258.8 200.1h3.1v3.2h-3.1z"/><path class="e" d="m258.8 205.4h3.1v3.2h-3.1z"/><path class="e" d="m258.8 210.8h3.1v3.2h-3.1z"/><path class="e" d="m258.8 216.1h3.1v3.2h-3.1z"/><path class="e" d="m258.8 221.5h3.1v3.1h-3.1z"/><path class="e" d="m258.8 226.8h3.1v3.2h-3.1z"/><path class="e" d="m258.8 232.1h3.1v3.2h-3.1z"/><path class="e" d="m258.8 237.5h3.1v3.2h-3.1z"/><path class="e" d="m258.8 242.8h3.1v3.2h-3.1z"/><path class="e" d="m258.8 248.2h3.1v3.1h-3.1z"/><path class="e" d="m258.8 253.5h3.1v3.2h-3.1z"/><path class="e" d="m258.8 264.2h3.1v3.2h-3.1z"/><path class="e" d="m258.8 269.5h3.1v3.2h-3.1z"/><path class="e" d="m258.8 274.9h3.1v3.1h-3.1z"/><path class="e" d="m258.8 280.2h3.1v3.2h-3.1z"/><path class="e" d="m258.8 290.9h3.1v3.2h-3.1z"/><path class="e" d="m258.8 296.2h3.1v3.2h-3.1z"/><path class="e" d="m258.8 301.6h3.1v3.2h-3.1z"/><path class="e" d="m253.9 189.4h3.1v3.2h-3.1z"/><path class="e" d="m253.9 194.7h3.1v3.2h-3.1z"/><path class="e" d="m253.9 200.1h3.1v3.2h-3.1z"/><path class="e" d="m253.9 205.4h3.1v3.2h-3.1z"/><path class="e" d="m253.9 210.8h3.1v3.2h-3.1z"/><path class="e" d="m253.9 216.1h3.1v3.2h-3.1z"/><path class="e" d="m253.9 221.5h3.1v3.1h-3.1z"/><path class="e" d="m253.9 226.8h3.1v3.2h-3.1z"/><path class="e" d="m253.9 232.1h3.1v3.2h-3.1z"/><path class="e" d="m253.9 237.5h3.1v3.2h-3.1z"/><path class="e" d="m253.9 242.8h3.1v3.2h-3.1z"/><path class="e" d="m253.9 248.2h3.1v3.1h-3.1z"/><path class="e" d="m253.9 253.5h3.1v3.2h-3.1z"/><path class="e" d="m253.9 269.5h3.1v3.2h-3.1z"/><path class="e" d="m253.9 274.9h3.1v3.1h-3.1z"/><path class="e" d="m253.9 285.5h3.1v3.2h-3.1z"/><path class="e" d="m253.9 290.9h3.1v3.2h-3.1z"/><path class="e" d="m253.9 296.2h3.1v3.2h-3.1z"/><path class="e" d="m253.9 301.6h3.1v3.2h-3.1z"/><path class="e" d="m249.1 189.4h3v3.2h-3z"/><path class="e" d="m249.1 194.7h3v3.2h-3z"/><path class="e" d="m249.1 200.1h3v3.2h-3z"/><path class="e" d="m249.1 205.4h3v3.2h-3z"/><path class="e" d="m249.1 210.8h3v3.2h-3z"/><path class="e" d="m249.1 216.1h3v3.2h-3z"/><path class="e" d="m249.1 221.5h3v3.1h-3z"/><path class="e" d="m249.1 226.8h3v3.2h-3z"/><path class="e" d="m249.1 232.1h3v3.2h-3z"/><path class="e" d="m249.1 237.5h3v3.2h-3z"/><path class="e" d="m249.1 242.8h3v3.2h-3z"/><path class="e" d="m249.1 248.2h3v3.1h-3z"/><path class="e" d="m249.1 253.5h3v3.2h-3z"/><path class="e" d="m249.1 258.8h3v3.2h-3z"/><path class="e" d="m249.1 269.5h3v3.2h-3z"/><path class="e" d="m249.1 280.2h3v3.2h-3z"/><path class="e" d="m249.1 285.5h3v3.2h-3z"/><path class="e" d="m249.1 290.9h3v3.2h-3z"/><path class="e" d="m249.1 296.2h3v3.2h-3z"/><path class="e" d="m249.1 301.6h3v3.2h-3z"/><path class="e" d="m278.7 219.9h3.1v3.1h-3.1z"/><path class="e" d="m278.7 225.2h3.1v3.2h-3.1z"/><path class="e" d="m278.7 230.5h3.1v3.2h-3.1z"/><path class="e" d="m278.7 235.9h3.1v3.2h-3.1z"/><path class="e" d="m278.7 241.2h3.1v3.2h-3.1z"/><path class="e" d="m278.7 246.6h3.1v3.2h-3.1z"/><path class="e" d="m278.7 262.6h3.1v3.2h-3.1z"/><path class="e" d="m278.7 267.9h3.1v3.2h-3.1z"/><path class="e" d="m278.7 273.3h3.1v3.2h-3.1z"/><path class="e" d="m278.7 278.6h3.1v3.2h-3.1z"/><path class="e" d="m278.7 284h3.1v3.1h-3.1z"/><path class="e" d="m278.7 289.3h3.1v3.2h-3.1z"/><path class="e" d="m278.7 294.6h3.1v3.2h-3.1z"/><path class="e" d="m273.8 219.9h3.1v3.1h-3.1z"/><path class="e" d="m273.8 225.2h3.1v3.2h-3.1z"/><path class="e" d="m273.8 230.5h3.1v3.2h-3.1z"/><path class="e" d="m273.8 235.9h3.1v3.2h-3.1z"/><path class="e" d="m273.8 241.2h3.1v3.2h-3.1z"/><path class="e" d="m273.8 246.6h3.1v3.2h-3.1z"/><path class="e" d="m273.8 262.6h3.1v3.2h-3.1z"/><path class="e" d="m273.8 267.9h3.1v3.2h-3.1z"/><path class="e" d="m273.8 273.3h3.1v3.2h-3.1z"/><path class="e" d="m273.8 278.6h3.1v3.2h-3.1z"/><path class="e" d="m273.8 284h3.1v3.1h-3.1z"/><path class="e" d="m273.8 289.3h3.1v3.2h-3.1z"/><path class="e" d="m273.8 300h3.1v3.2h-3.1z"/><path class="e" d="m111.6 196.3h3.1v3.2h-3.1z"/><path class="e" d="m111.6 201.7h3.1v3.2h-3.1z"/><path class="e" d="m111.6 207h3.1v3.2h-3.1z"/><path class="e" d="m111.6 212.4h3.1v3.1h-3.1z"/><path class="e" d="m111.6 217.7h3.1v3.2h-3.1z"/><path class="e" d="m111.6 223h3.1v3.2h-3.1z"/><path class="e" d="m111.6 228.4h3.1v3.2h-3.1z"/><path class="e" d="m111.6 233.7h3.1v3.2h-3.1z"/><path class="e" d="m111.6 239.1h3.1v3.2h-3.1z"/><path class="e" d="m111.6 244.4h3.1v3.2h-3.1z"/><path class="e" d="m111.6 249.8h3.1v3.1h-3.1z"/><path class="e" d="m111.6 260.4h3.1v3.2h-3.1z"/><path class="e" d="m111.6 265.8h3.1v3.2h-3.1z"/><path class="e" d="m111.6 271.1h3.1v3.2h-3.1z"/><path class="e" d="m111.6 276.5h3.1v3.1h-3.1z"/><path class="e" d="m111.6 281.8h3.1v3.2h-3.1z"/><path class="e" d="m111.6 287.1h3.1v3.2h-3.1z"/><path class="e" d="m111.6 292.5h3.1v3.2h-3.1z"/><path class="e" d="m111.6 297.8h3.1v3.2h-3.1z"/><path class="e" d="m106.8 196.3h3v3.2h-3z"/><path class="e" d="m106.8 201.7h3v3.2h-3z"/><path class="e" d="m106.8 207h3v3.2h-3z"/><path class="e" d="m106.8 212.4h3v3.1h-3z"/><path class="e" d="m106.8 217.7h3v3.2h-3z"/><path class="e" d="m106.8 223h3v3.2h-3z"/><path class="e" d="m106.8 228.4h3v3.2h-3z"/><path class="e" d="m106.8 233.7h3v3.2h-3z"/><path class="e" d="m106.8 239.1h3v3.2h-3z"/><path class="e" d="m106.8 244.4h3v3.2h-3z"/><path class="e" d="m106.8 249.8h3v3.1h-3z"/><path class="e" d="m106.8 255.1h3v3.2h-3z"/><path class="e" d="m106.8 260.4h3v3.2h-3z"/><path class="e" d="m106.8 265.8h3v3.2h-3z"/><path class="e" d="m106.8 271.1h3v3.2h-3z"/><path class="e" d="m106.8 276.5h3v3.1h-3z"/><path class="e" d="m106.8 281.8h3v3.2h-3z"/><path class="e" d="m106.8 287.1h3v3.2h-3z"/><path class="e" d="m106.8 292.5h3v3.2h-3z"/><path class="e" d="m106.8 297.8h3v3.2h-3z"/><path class="e" d="m135.7 217.1h3.1v3.2h-3.1z"/><path class="e" d="m135.7 222.5h3.1v3.2h-3.1z"/><path class="e" d="m135.7 227.8h3.1v3.2h-3.1z"/><path class="e" d="m135.7 233.2h3.1v3.2h-3.1z"/><path class="e" d="m135.7 238.5h3.1v3.2h-3.1z"/><path class="e" d="m135.7 243.8h3.1v3.2h-3.1z"/><path class="e" d="m135.7 249.2h3.1v3.2h-3.1z"/><path class="e" d="m135.7 254.5h3.1v3.2h-3.1z"/><path class="e" d="m135.7 259.9h3.1v3.2h-3.1z"/><path class="e" d="m135.7 265.2h3.1v3.2h-3.1z"/><path class="e" d="m130.8 217.1h3.1v3.2h-3.1z"/><path class="e" d="m130.8 222.5h3.1v3.2h-3.1z"/><path class="e" d="m130.8 227.8h3.1v3.2h-3.1z"/><path class="e" d="m130.8 233.2h3.1v3.2h-3.1z"/><path class="e" d="m130.8 238.5h3.1v3.2h-3.1z"/><path class="e" d="m130.8 243.8h3.1v3.2h-3.1z"/><path class="e" d="m130.8 249.2h3.1v3.2h-3.1z"/><path class="e" d="m130.8 254.5h3.1v3.2h-3.1z"/><path class="e" d="m130.8 259.9h3.1v3.2h-3.1z"/><path class="f" d="m422.6 305.9c0.1-1.5-0.1-3.4-1.8-3.9-2.8-1-4.5-3.2-4.4-5.7 0.1-2.5-3-5-5.2-2.6-2.3 2.3-2-1.9-5-2.9-3.1-1-5.6 1.5-4.8 3.7 0.8 2.3-2.1 3.7-5.7 1.8-3.6-1.9-7.5 1.5-6.8 4.3 0.8 2.7 0.2 3-2.1 2.1-1.8-0.8-4.8 0.8-5.1 3.2z"/><path fill-rule="evenodd" class="g" d="m441 225.7c-0.4 0.6-1 0.9-1.6 1.1-3.1 1.3 1 5.3-0.6 5.5-2 0.4-4.3 0-4.5 2.5q0 0.6-0.2 1.2c-0.3 1.3-1.3 1.9-3.3 0.9-1.3-0.6-1.6-1.3-3.1-1.2-1 0.2-1.8 0.9-2.9 0.8q-0.3 0-0.5-0.1-0.2-0.2-0.4-0.4c-1-1.4-1.8-0.9-3.5-0.9q-0.2 0-0.3-0.1-0.2-0.2-0.2-0.4 0-0.7 0.1-1.3 0.2-0.3 0.1-0.6c-0.1-0.3-0.4-0.4-0.7-0.5q-0.2-0.1-0.3-0.2c-0.5-0.4-0.8-1-0.9-1.6-1.6 0.1-3.1 0.3-3.2 2.3q0 0.6-0.2 1.2c-0.3 1.3-1.3 2-3.3 1-1.3-0.6-1.6-1.4-3.1-1.2-1 0.1-1.8 0.9-2.9 0.8q-0.3-0.1-0.5-0.2-0.2-0.1-0.3-0.3c-1.1-1.5-1.9-0.9-3.5-1q-0.2 0-0.4-0.1-0.2-0.1-0.2-0.4 0-0.6 0.1-1.2 0.2-0.3 0.1-0.6c-0.1-0.3-0.4-0.5-0.7-0.6q-0.2-0.1-0.3-0.2-0.4-0.3-0.7-0.8c-0.5 0.2-1.2 0-2.2-0.4-1.3-0.6-1.6-1.4-3-1.2-1.1 0.1-1.8 0.8-3 0.8q-0.2-0.1-0.4-0.2-0.3-0.1-0.4-0.3 0-0.1-0.1-0.1 0 0.4 0.2 0.7c0.7-0.1 1.3 0.1 1.9 0.4 0.6 0.4 0.8 1.1 0.6 1.8-0.3 0.4-0.8 0.7-1.2 0.8-2.5 1 0.7 4.2-0.5 4.4-1.6 0.2-3.5-0.1-3.6 1.9q0 0.4-0.1 0.9c-0.3 1.1-1.1 1.6-2.7 0.7-1-0.4-1.3-1-2.4-0.9-0.8 0.1-1.4 0.7-2.3 0.6q-0.2 0-0.4-0.1-0.2-0.1-0.3-0.3c-0.8-1.1-1.4-0.6-2.7-0.7q-0.1 0-0.1 0c-0.2 0-0.4-0.2-0.3-0.4q-0.1-0.5 0.1-1 0.1-0.2 0-0.5c-0.1-0.2-0.3-0.3-0.6-0.4q-0.1-0.1-0.2-0.2c-0.5-0.4-0.8-1-0.7-1.6-0.3-0.1-0.6-0.2-1-0.1-1.1 0.1-1.8 0.9-3 0.8q-0.2-0.1-0.4-0.2-0.3-0.1-0.4-0.3c-1-1.5-1.8-0.9-3.5-1q-0.2 0-0.4-0.1-0.1-0.1-0.1-0.4-0.1-0.6 0.1-1.2 0.1-0.3 0.1-0.6c-0.1-0.3-0.5-0.5-0.8-0.6q-0.1-0.1-0.2-0.2c-1.1-0.8-1.2-2.2-0.5-3.2 0.4-0.4 0.9-0.7 0.7-1.2-0.1-0.6-0.8-0.7-1.3-0.9-1.1-0.6-0.9-2.9-0.1-3.6 0.5-0.4 1.2-1 1-1.7-0.2-0.5-0.9-0.7-1.3-1.1-0.7-0.8 0-2.1 0.9-2.8 0.9-0.7 2-1.2 2.4-2.3q0.1-0.4 0.3-0.8c0.5-0.8 1.8-0.3 2.5 0.3 0.3 0.2 0.6 0.4 0.9 0.5 0.1-0.5 0.4-0.9 0.7-1.1 0.5-0.5 1.1-1.2 0.9-1.7-0.2-0.5-0.8-0.7-1.2-1.1-0.8-0.8-0.1-2.2 0.8-2.9 0.9-0.6 2.1-1.2 2.4-2.2q0.1-0.5 0.3-0.9c0.6-0.7 1.8-0.2 2.6 0.3 0.8 0.6 2 1.1 2.6 0.3 0.3-0.5 0.1-1.1 0.4-1.6 0.5-0.8 1.7-0.4 2.4 0.2 0.7 0.6 1.5 1.4 2.4 1.2-0.2-0.1-0.5-0.2-0.7-0.3-1.1-0.6-1-2.8-0.1-3.6 0.5-0.4 1.2-1 1-1.6-0.2-0.5-0.9-0.7-1.3-1.1-0.7-0.8 0-2.2 0.9-2.9 0.9-0.7 2-1.2 2.4-2.2q0.1-0.5 0.3-0.9c0.5-0.8 1.8-0.3 2.5 0.3 0.8 0.6 2.1 1.1 2.6 0.3 0.3-0.5 0.1-1.1 0.4-1.6 0.5-0.8 1.7-0.4 2.5 0.2 0.7 0.6 1.6 1.3 2.4 1.2 0.7-0.2 1.1-1.1 2-1.2 0.9-0.1 1.5 0.7 1.7 1.6q0.2 1.2 0.7 2.4c0.6-0.4 1.1-0.9 1.4-1.6q0.1-0.4 0.3-0.8c0.5-0.8 1.7-0.3 2.5 0.3 0.8 0.6 2.1 1.1 2.6 0.3 0.3-0.5 0.1-1.2 0.4-1.6 0.5-0.8 1.7-0.4 2.4 0.2 0.8 0.6 1.5 1.4 2.4 1.1 0.8-0.1 1.2-1.1 2.1-1.1 0.8-0.1 1.5 0.7 1.7 1.6q0.2 1.2 0.7 2.4c1.2-0.2 2.9-0.1 3.1 1 0.2 0.6 0 1-0.3 1.5q0.2 0.1 0.4 0.3c0.7 0.6 1.6 1.3 2.4 1.1 0.7-0.1 1.1-1.1 2-1.1 0.9-0.1 1.5 0.7 1.7 1.6q0.2 1.2 0.7 2.4c1.2-0.2 2.9-0.2 3.2 1 0.1 0.8-0.5 1.5-1 2.2-0.5 0.6-0.9 1.6-0.4 2.2 0.9-0.1 1.7 0.2 2.4 0.6 0.8 0.5 1.1 1.4 0.7 2.2-0.4 0.5-0.9 0.9-1.5 1.1-1.8 0.7-1.2 2.3-0.7 3.6q0.1 0 0.2 0c0.8-0.2 1.2-1.1 2-1.2 0.9-0.1 1.5 0.8 1.8 1.6q0.1 1.3 0.6 2.5c1.2-0.3 2.9-0.2 3.2 1 0.2 0.8-0.4 1.5-0.9 2.1-0.5 0.7-1 1.6-0.4 2.2 0.8 0 1.6 0.2 2.4 0.7 0.7 0.4 1 1.3 0.7 2.1zm-21.7 2.3q0.1-0.2 0.1-0.5c-0.1-0.2-0.2-0.3-0.4-0.4q0.1 0.4 0.3 0.9z"/><path class="f" d="m423.8 228.7c0 0-4.2 6-5.7 7.8-1.4 1.9-8.6 13.6-9.6 21.4q-0.2 1.2-0.3 2.1c3.1 20.5 2.6 58 2.5 64.5h-9.9c-0.1-7.3-0.9-73.5-1.2-75.5-0.4-2.2-4.5-10.3-10.8-13.6-6.4-3.4-11.8-14.5-11.8-14.5h2c0 0 3.7 6.8 9.1 10.6q1.2 0.8 2.4 1.4c0-4.1 0.7-8.1 2.1-12l1.1 1c-1.5 6.1-1.3 10-0.8 12.2 2 0.9 3.9 2.2 5.5 3.7 5.6-7.2 8.7-23.7 8.7-23.7l1.4 0.8q-0.6 5.1-1.9 10.1c-1 4.2-4.1 12.3-5.5 15.9q2.5 3.7 4.1 7.9 0.3-0.4 0.6-0.7c3.6-3.2 10.4-18.6 10.4-18.6 1.7-3.6-0.9-13-0.9-13h1.9l0.8 8.2 4.8-5.2 0.9 0.7-5 6.5-2.6 8.3 6.8-7.5z"/><path class="f" d="m352.7 318.2c0.1-1 0-2.4-1.2-2.8-2.1-0.6-3.3-2.2-3.2-4 0.1-1.8-2.1-3.5-3.7-1.9-1.6 1.7-1.4-1.3-3.6-2-2.1-0.7-3.9 1.1-3.3 2.7 0.6 1.6-1.6 2.6-4.1 1.2-2.6-1.4-5.4 1.1-4.8 3 0.5 2 0.1 2.2-1.5 1.6-1.3-0.6-3.5 0.5-3.7 2.2 0 0 29.1 0 29.1 0z"/><path fill-rule="evenodd" class="g" d="m359.5 277.3q-0.4 0.4-0.9 0.6c-1.7 0.7 0.6 2.9-0.3 3-1.1 0.2-2.4 0-2.5 1.3q0 0.4-0.1 0.7c-0.2 0.8-0.7 1.1-1.8 0.5-0.7-0.3-0.9-0.7-1.7-0.6-0.6 0.1-1 0.4-1.6 0.4q-0.2 0-0.3-0.1-0.1-0.1-0.2-0.2c-0.5-0.8-1-0.4-1.9-0.5q-0.1 0-0.2 0-0.1-0.1-0.1-0.3 0-0.3 0.1-0.6 0.1-0.2 0-0.4c0-0.2-0.2-0.2-0.4-0.3q-0.1 0-0.1-0.1c-0.3-0.2-0.5-0.5-0.5-0.8-0.9 0-1.7 0.1-1.8 1.2q0 0.3-0.1 0.7c-0.2 0.7-0.7 1-1.8 0.5-0.7-0.3-0.9-0.7-1.7-0.6-0.6 0-1 0.4-1.6 0.4q-0.1 0-0.3-0.1-0.1-0.1-0.1-0.2c-0.6-0.8-1.1-0.5-2-0.5q-0.1 0-0.2-0.1-0.1-0.1-0.1-0.2 0-0.3 0.1-0.7 0.1-0.1 0-0.3c0-0.2-0.2-0.2-0.4-0.3q0-0.1-0.1-0.1-0.3-0.2-0.4-0.5-0.4 0.2-1.2-0.2c-0.7-0.3-0.9-0.7-1.7-0.6-0.5 0-1 0.4-1.6 0.4q-0.1 0-0.2-0.1-0.2-0.1-0.2-0.2 0 0-0.1 0 0 0.2 0.1 0.3 0.6 0 1.1 0.3c0.3 0.2 0.4 0.6 0.3 1q-0.3 0.3-0.7 0.4c-1.4 0.6 0.4 2.3-0.2 2.4-0.9 0.1-1.9 0-2 1q0 0.3-0.1 0.6c-0.1 0.6-0.6 0.8-1.4 0.4-0.6-0.3-0.7-0.6-1.4-0.5-0.4 0-0.7 0.3-1.2 0.3q-0.1 0-0.2-0.1-0.1 0-0.2-0.1c-0.4-0.7-0.8-0.4-1.5-0.4q0 0-0.1 0c-0.1 0-0.1-0.1-0.1-0.2q-0.1-0.3 0-0.6 0.1-0.1 0-0.3c0-0.1-0.1-0.1-0.3-0.2q0 0-0.1-0.1c-0.3-0.2-0.4-0.6-0.4-0.9q-0.2-0.1-0.5 0c-0.6 0-1 0.4-1.7 0.4q-0.1 0-0.2-0.1-0.1-0.1-0.2-0.2c-0.6-0.8-1-0.5-1.9-0.5q-0.1 0-0.2-0.1-0.1-0.1-0.1-0.2 0-0.3 0-0.7 0.1-0.1 0.1-0.3c-0.1-0.2-0.3-0.2-0.4-0.3q-0.1-0.1-0.2-0.1c-0.5-0.4-0.6-1.2-0.2-1.8 0.2-0.2 0.5-0.4 0.4-0.7-0.1-0.3-0.5-0.3-0.7-0.4-0.7-0.4-0.6-1.6-0.1-2 0.3-0.2 0.7-0.6 0.5-0.9-0.1-0.3-0.4-0.4-0.6-0.6-0.5-0.5-0.1-1.2 0.4-1.6 0.5-0.4 1.1-0.7 1.3-1.2q0.1-0.3 0.2-0.5c0.3-0.4 1-0.1 1.4 0.2q0.2 0.1 0.5 0.3c0.1-0.3 0.2-0.5 0.3-0.7 0.3-0.2 0.7-0.6 0.6-0.9-0.1-0.3-0.5-0.4-0.7-0.6-0.4-0.4 0-1.2 0.4-1.5 0.5-0.4 1.2-0.7 1.4-1.3q0-0.2 0.1-0.4c0.3-0.5 1-0.2 1.4 0.1 0.5 0.3 1.2 0.6 1.4 0.2 0.2-0.3 0.1-0.7 0.3-0.9 0.2-0.4 0.9-0.2 1.3 0.1 0.4 0.3 0.8 0.7 1.3 0.6q-0.2 0-0.4-0.1c-0.6-0.3-0.5-1.6 0-2 0.3-0.2 0.6-0.5 0.5-0.9-0.1-0.3-0.5-0.4-0.7-0.6-0.4-0.4 0-1.2 0.5-1.6 0.5-0.3 1.1-0.6 1.3-1.2q0.1-0.2 0.2-0.5c0.3-0.4 1-0.1 1.4 0.2 0.4 0.3 1.1 0.6 1.4 0.2 0.1-0.3 0.1-0.7 0.2-0.9 0.3-0.5 0.9-0.3 1.4 0.1 0.4 0.3 0.8 0.7 1.3 0.6 0.4-0.1 0.6-0.6 1.1-0.6 0.5-0.1 0.8 0.4 0.9 0.9q0.1 0.6 0.4 1.3c0.3-0.2 0.6-0.5 0.8-0.9q0-0.2 0.1-0.4c0.3-0.5 1-0.2 1.4 0.1 0.5 0.4 1.1 0.6 1.4 0.2 0.2-0.3 0.1-0.6 0.3-0.9 0.2-0.4 0.9-0.2 1.3 0.1 0.4 0.3 0.8 0.8 1.3 0.7 0.4-0.1 0.7-0.6 1.1-0.7 0.5 0 0.9 0.4 1 0.9q0.1 0.7 0.3 1.3c0.7-0.1 1.6-0.1 1.8 0.6 0 0.3-0.1 0.5-0.2 0.8q0.1 0.1 0.2 0.1c0.4 0.4 0.9 0.8 1.3 0.7 0.4-0.1 0.7-0.6 1.1-0.7 0.5 0 0.9 0.5 1 0.9q0.1 0.7 0.3 1.4c0.7-0.2 1.6-0.1 1.8 0.5 0.1 0.4-0.3 0.8-0.5 1.2-0.3 0.3-0.5 0.9-0.3 1.2q0.8 0 1.4 0.3c0.4 0.3 0.5 0.8 0.3 1.3q-0.3 0.4-0.8 0.5c-1 0.4-0.7 1.3-0.4 2q0.1 0 0.1 0c0.5-0.1 0.7-0.6 1.2-0.6 0.4-0.1 0.8 0.4 0.9 0.9q0.1 0.7 0.4 1.3c0.6-0.1 1.5-0.1 1.7 0.6 0.1 0.4-0.2 0.8-0.5 1.1-0.3 0.4-0.5 0.9-0.2 1.3q0.7-0.1 1.3 0.3c0.4 0.2 0.6 0.8 0.4 1.2zm-11.9 1.2q0.1-0.1 0-0.2 0-0.2-0.2-0.3 0.1 0.3 0.2 0.5z"/><path class="f" d="m350 278.9c0 0-2.3 3.3-3 4.3-0.8 1-4.8 7.5-5.3 11.7q-0.1 0.7-0.2 1.2c1.7 11.2 1.4 31.8 1.4 35.3h-5.5c0-3.9-0.5-40.2-0.6-41.4-0.2-1.1-2.5-5.6-6-7.4-3.4-1.9-6.4-8-6.4-8h1.1c0 0 2 3.8 5 5.8q0.6 0.5 1.3 0.8c0-2.2 0.4-4.5 1.1-6.6l0.7 0.6c-0.9 3.3-0.8 5.5-0.5 6.7q1.7 0.7 3 2c3.1-4 4.8-13 4.8-13l0.8 0.4q-0.4 2.8-1.1 5.6c-0.5 2.3-2.2 6.7-3 8.7q1.4 2 2.3 4.3 0.1-0.2 0.3-0.3c2-1.8 5.7-10.3 5.7-10.3 0.9-1.9-0.5-7.1-0.5-7.1h1l0.5 4.5 2.6-2.8 0.5 0.4-2.7 3.5-1.5 4.6 3.8-4.2z"/><path class="f" d="m97.1 301.3c0.1-1-0.1-2.2-1.2-2.6-1.8-0.6-2.9-2-2.9-3.7 0.1-1.6-1.9-3.2-3.3-1.7-1.5 1.6-1.3-1.1-3.3-1.8-1.9-0.7-3.6 0.9-3.1 2.4 0.6 1.5-1.4 2.4-3.7 1.1-2.3-1.2-4.9 1.1-4.4 2.8 0.5 1.8 0.1 2-1.4 1.4-1.1-0.5-4 4.7-4.2 6.3z"/><path fill-rule="evenodd" class="g" d="m106.2 251.7c-0.2 0.4-0.6 0.6-1 0.7-2 0.8 0.7 3.4-0.3 3.6-1.4 0.2-2.9-0.1-3 1.6q0 0.4-0.1 0.7c-0.3 0.9-0.9 1.3-2.2 0.7-0.8-0.4-1-0.9-2-0.8-0.7 0.1-1.1 0.6-1.9 0.5q-0.2 0-0.3-0.1-0.1-0.1-0.2-0.2c-0.7-1-1.2-0.6-2.3-0.6q-0.1 0-0.2-0.1-0.1-0.1-0.1-0.3-0.1-0.4 0-0.8 0.1-0.2 0.1-0.4c-0.1-0.2-0.3-0.2-0.5-0.3q-0.1-0.1-0.2-0.2c-0.3-0.2-0.5-0.6-0.5-1-1.1 0.1-2 0.2-2.1 1.5q0 0.4-0.1 0.8c-0.3 0.9-0.9 1.3-2.2 0.6-0.8-0.4-1-0.8-2-0.7-0.7 0.1-1.2 0.5-1.9 0.5q-0.2 0-0.3-0.1-0.2-0.1-0.2-0.2c-0.7-1-1.2-0.6-2.3-0.7q-0.1 0-0.2 0-0.1-0.1-0.1-0.3-0.1-0.4 0-0.8 0.1-0.2 0.1-0.4c-0.1-0.2-0.3-0.3-0.5-0.4q-0.1 0-0.2-0.1-0.3-0.2-0.4-0.5c-0.4 0.1-0.8 0-1.5-0.3-0.8-0.4-1-0.9-1.9-0.8-0.7 0.1-1.2 0.6-2 0.5q-0.1 0-0.3 0-0.1-0.1-0.2-0.3 0 0 0 0-0.1 0.2 0.1 0.4 0.6 0 1.2 0.3c0.4 0.3 0.5 0.7 0.4 1.2q-0.3 0.4-0.8 0.5c-1.6 0.7 0.5 2.7-0.3 2.8-1 0.2-2.2 0-2.3 1.3q0 0.3-0.1 0.6c-0.2 0.7-0.7 1-1.8 0.4-0.6-0.3-0.8-0.6-1.5-0.6-0.6 0.1-0.9 0.5-1.5 0.4q-0.2 0-0.3 0-0.1-0.1-0.1-0.2c-0.6-0.8-1-0.5-1.8-0.5q-0.1 0-0.1 0c-0.1 0-0.2-0.1-0.2-0.2q0-0.4 0.1-0.7 0-0.1 0-0.3c-0.1-0.2-0.2-0.2-0.4-0.3q-0.1 0-0.1-0.1c-0.4-0.3-0.5-0.7-0.5-1.1q-0.2-0.1-0.6 0c-0.7 0.1-1.2 0.5-2 0.5q-0.1 0-0.3-0.1-0.1-0.1-0.2-0.2c-0.7-1-1.2-0.6-2.3-0.7q-0.1 0-0.2 0-0.1-0.1-0.1-0.3 0-0.4 0.1-0.8 0.1-0.2 0-0.4c-0.1-0.2-0.3-0.3-0.5-0.4q-0.1 0-0.1-0.1c-0.7-0.5-0.8-1.4-0.3-2.1 0.2-0.2 0.5-0.4 0.4-0.8 0-0.3-0.5-0.4-0.8-0.5-0.8-0.4-0.6-1.9-0.1-2.4 0.3-0.3 0.8-0.6 0.6-1-0.1-0.4-0.5-0.5-0.8-0.8-0.5-0.5 0-1.4 0.6-1.8 0.6-0.5 1.3-0.8 1.5-1.5q0.1-0.3 0.2-0.5c0.4-0.5 1.2-0.2 1.7 0.2q0.3 0.2 0.6 0.3c0-0.3 0.2-0.6 0.4-0.7 0.3-0.3 0.7-0.8 0.6-1.1-0.1-0.3-0.5-0.5-0.8-0.7-0.5-0.6 0-1.4 0.6-1.9 0.5-0.4 1.3-0.8 1.5-1.5q0.1-0.2 0.2-0.5c0.4-0.5 1.2-0.2 1.7 0.2 0.5 0.4 1.3 0.7 1.6 0.2 0.2-0.3 0.1-0.8 0.3-1.1 0.3-0.5 1.1-0.2 1.6 0.2 0.5 0.3 0.9 0.8 1.5 0.7q-0.2 0-0.4-0.1c-0.8-0.4-0.7-1.9-0.1-2.4 0.4-0.2 0.8-0.6 0.6-1-0.1-0.4-0.5-0.5-0.8-0.8-0.5-0.5 0-1.4 0.6-1.8 0.6-0.5 1.3-0.8 1.5-1.5q0.1-0.3 0.2-0.5c0.4-0.5 1.2-0.2 1.7 0.2 0.5 0.3 1.3 0.7 1.7 0.1 0.2-0.3 0-0.7 0.2-1 0.4-0.5 1.1-0.3 1.6 0.1 0.5 0.4 1.1 0.9 1.6 0.8 0.5-0.1 0.7-0.7 1.3-0.8 0.6 0 1 0.5 1.1 1.1q0.1 0.8 0.4 1.5c0.4-0.2 0.8-0.5 1-1q0-0.3 0.1-0.5c0.4-0.5 1.2-0.2 1.7 0.2 0.5 0.3 1.3 0.7 1.7 0.2 0.2-0.4 0-0.8 0.2-1.1 0.4-0.5 1.1-0.3 1.6 0.1 0.5 0.4 1 0.9 1.6 0.8 0.5-0.1 0.8-0.7 1.3-0.8 0.6 0 1 0.5 1.1 1.1q0.1 0.8 0.5 1.6c0.7-0.2 1.8-0.1 2 0.6 0.1 0.4 0 0.7-0.2 1q0.1 0 0.2 0.1c0.5 0.4 1.1 0.9 1.6 0.8 0.5-0.1 0.7-0.7 1.3-0.8 0.6 0 1 0.5 1.1 1.1q0.1 0.8 0.4 1.6c0.8-0.2 1.9-0.2 2.1 0.6 0.1 0.5-0.3 1-0.6 1.4-0.3 0.4-0.6 1.1-0.3 1.5 0.6-0.1 1.1 0.1 1.6 0.4 0.5 0.3 0.7 0.9 0.5 1.4-0.3 0.3-0.6 0.6-1 0.7-1.2 0.5-0.8 1.5-0.5 2.3q0.1 0 0.1 0c0.5-0.1 0.8-0.7 1.4-0.7 0.5-0.1 0.9 0.5 1.1 1q0.1 0.8 0.4 1.6c0.8-0.2 1.9-0.1 2.1 0.6 0.1 0.6-0.3 1-0.6 1.4-0.4 0.5-0.6 1.1-0.3 1.5 0.6 0 1.1 0.1 1.6 0.4 0.4 0.3 0.6 0.9 0.4 1.4zm-14 1.5q0-0.2 0-0.3 0-0.2-0.2-0.3 0 0.3 0.2 0.6z"/><path class="f" d="m95.1 253.6c0 0-2.8 3.9-3.7 5.1-0.9 1.2-5.6 8.8-6.3 13.8q-0.1 0.8-0.2 1.4c2.1 13.4 1.7 37.7 1.7 41.9h-6.4c-0.1-4.7-0.6-47.7-0.8-49-0.3-1.4-2.9-6.7-7-8.9-4.2-2.1-7.7-9.3-7.7-9.3h1.3c0 0 2.4 4.4 5.9 6.8q0.8 0.5 1.6 0.9c0-2.6 0.4-5.2 1.3-7.7l0.8 0.6c-1 4-0.9 6.5-0.6 7.9q2 0.9 3.6 2.4c3.6-4.7 5.6-15.4 5.6-15.4l0.9 0.5q-0.4 3.4-1.2 6.6c-0.6 2.8-2.6 8-3.6 10.4q1.7 2.3 2.7 5.1 0.2-0.3 0.4-0.5c2.3-2.1 6.7-12.1 6.7-12.1 1.1-2.3-0.5-8.4-0.5-8.4h1.2l0.5 5.3 3.1-3.4 0.6 0.5-3.2 4.2-1.7 5.4 4.4-4.9z"/><path class="f" d="m255.2 315.7c0.1-1 0-2.4-1.3-2.8-2.1-0.7-3.3-2.4-3.2-4.2 0-1.9-2.2-3.7-3.9-1.9-1.6 1.7-1.4-1.4-3.6-2.1-2.2-0.7-4.1 1.1-3.5 2.7 0.6 1.7-1.6 2.7-4.2 1.3-2.6-1.4-5.5 1.1-5 3.1 0.6 2 0.1 2.3-1.5 1.6-1.3-0.6-4.6 5.3-4.8 7.1z"/><path fill-rule="evenodd" class="g" d="m266 261.8c-0.3 0.4-0.7 0.6-1.1 0.8-2.4 0.9 0.7 3.8-0.5 4-1.5 0.2-3.2 0-3.3 1.8q0 0.4-0.1 0.9c-0.3 1-1 1.4-2.5 0.7-0.9-0.5-1.2-1-2.2-0.9-0.8 0.1-1.4 0.6-2.2 0.6q-0.2-0.1-0.3-0.1-0.2-0.1-0.3-0.3c-0.7-1.1-1.3-0.6-2.6-0.7q-0.1 0-0.2-0.1-0.1-0.1-0.1-0.3-0.1-0.4 0-0.9 0.1-0.2 0.1-0.4c-0.1-0.3-0.3-0.3-0.5-0.4q-0.2-0.1-0.3-0.2c-0.3-0.3-0.5-0.7-0.6-1.1-1.2 0.1-2.2 0.2-2.3 1.7q0 0.4-0.2 0.8c-0.2 1-1 1.5-2.4 0.8-1-0.5-1.2-1-2.3-0.9-0.7 0.1-1.3 0.6-2.1 0.6q-0.2 0-0.4-0.1-0.1-0.1-0.2-0.3c-0.8-1.1-1.4-0.6-2.6-0.7q-0.2 0-0.3-0.1-0.1-0.1-0.1-0.3 0-0.4 0.1-0.9 0.1-0.2 0-0.4c0-0.3-0.3-0.3-0.5-0.4q-0.1-0.1-0.2-0.2-0.3-0.2-0.5-0.6c-0.4 0.1-0.9 0.1-1.6-0.3-0.9-0.4-1.2-1-2.2-0.8-0.8 0-1.4 0.6-2.2 0.5q-0.2 0-0.4-0.1-0.1-0.1-0.2-0.3 0 0 0 0-0.1 0.3 0.1 0.5 0.7 0 1.4 0.3c0.4 0.3 0.6 0.9 0.4 1.3q-0.4 0.5-0.9 0.6c-1.8 0.8 0.6 3.1-0.4 3.2-1.1 0.2-2.5 0-2.6 1.4q0 0.4-0.1 0.7c-0.2 0.8-0.8 1.1-1.9 0.5-0.8-0.3-1-0.7-1.8-0.6-0.6 0-1 0.5-1.7 0.4q-0.2 0-0.3-0.1-0.1 0-0.2-0.2c-0.6-0.8-1-0.5-2-0.5q0 0-0.1 0c-0.1 0-0.2-0.2-0.2-0.3q0-0.4 0.1-0.7 0-0.2 0-0.4c-0.1-0.2-0.3-0.2-0.4-0.3q-0.1-0.1-0.2-0.1c-0.4-0.3-0.6-0.8-0.5-1.3q-0.3-0.1-0.8 0c-0.7 0.1-1.3 0.6-2.1 0.6q-0.2 0-0.4-0.1-0.1-0.1-0.2-0.3c-0.8-1.1-1.4-0.6-2.6-0.7q-0.1 0-0.3-0.1-0.1-0.1-0.1-0.3 0-0.4 0.1-0.9 0.1-0.2 0.1-0.4c-0.1-0.3-0.4-0.3-0.6-0.4q-0.1-0.1-0.2-0.2c-0.7-0.5-0.9-1.6-0.3-2.3 0.3-0.3 0.6-0.5 0.5-0.9-0.1-0.4-0.6-0.5-0.9-0.7-0.9-0.4-0.7-2.1-0.1-2.6 0.4-0.3 0.9-0.8 0.7-1.2-0.2-0.4-0.6-0.5-0.9-0.8-0.6-0.6 0-1.6 0.6-2.1 0.7-0.5 1.5-0.9 1.8-1.7q0-0.3 0.2-0.6c0.4-0.6 1.3-0.2 1.9 0.2q0.3 0.2 0.6 0.4c0.1-0.3 0.3-0.7 0.5-0.8 0.4-0.3 0.8-0.9 0.7-1.3-0.2-0.3-0.6-0.5-0.9-0.8-0.6-0.6-0.1-1.6 0.6-2.1 0.7-0.5 1.5-0.8 1.8-1.6q0-0.3 0.2-0.6c0.4-0.6 1.3-0.2 1.9 0.2 0.5 0.4 1.4 0.8 1.8 0.2 0.3-0.4 0.1-0.8 0.3-1.2 0.4-0.6 1.3-0.3 1.8 0.2 0.6 0.4 1.1 1 1.8 0.8q-0.3-0.1-0.5-0.2c-0.9-0.4-0.8-2.1-0.1-2.6 0.4-0.3 0.9-0.7 0.7-1.2-0.1-0.4-0.6-0.5-0.9-0.8-0.6-0.6 0-1.6 0.6-2.1 0.7-0.5 1.5-0.9 1.8-1.7q0-0.3 0.2-0.6c0.4-0.6 1.3-0.2 1.9 0.2 0.5 0.4 1.5 0.8 1.8 0.2 0.3-0.3 0.1-0.8 0.3-1.2 0.4-0.5 1.3-0.3 1.8 0.2 0.6 0.4 1.2 1 1.8 0.8 0.6-0.1 0.9-0.7 1.5-0.8 0.7-0.1 1.1 0.5 1.3 1.1q0.1 1 0.4 1.8c0.5-0.3 0.9-0.6 1.1-1.1q0-0.3 0.2-0.6c0.4-0.6 1.3-0.2 1.9 0.2 0.5 0.4 1.4 0.8 1.8 0.2 0.3-0.3 0.1-0.8 0.3-1.2 0.4-0.6 1.3-0.3 1.8 0.2 0.6 0.4 1.1 1 1.8 0.8 0.6-0.1 0.9-0.8 1.5-0.8 0.6-0.1 1.1 0.5 1.3 1.1q0.1 1 0.4 1.9c0.9-0.2 2.1-0.2 2.4 0.7 0 0.4-0.1 0.7-0.3 1q0.1 0.1 0.3 0.2c0.5 0.5 1.2 1 1.7 0.9 0.6-0.1 0.9-0.8 1.5-0.9 0.7 0 1.1 0.6 1.3 1.2q0.1 0.9 0.5 1.8c0.9-0.2 2.1-0.1 2.3 0.7 0.1 0.6-0.3 1.2-0.7 1.6-0.3 0.5-0.7 1.2-0.3 1.7 0.6-0.1 1.3 0.1 1.8 0.4 0.5 0.3 0.7 1 0.5 1.6-0.3 0.4-0.7 0.7-1.1 0.8-1.4 0.5-0.9 1.7-0.5 2.7q0 0 0.1 0c0.6-0.2 0.9-0.8 1.5-0.9 0.6-0.1 1.1 0.6 1.3 1.2q0.1 0.9 0.5 1.8c0.8-0.2 2.1-0.2 2.3 0.7 0.1 0.6-0.3 1.1-0.7 1.6-0.4 0.5-0.7 1.2-0.3 1.6 0.6 0 1.2 0.1 1.8 0.5 0.5 0.3 0.7 1 0.5 1.6zm-15.9 1.6q0.1-0.1 0.1-0.3-0.1-0.3-0.3-0.4 0.1 0.4 0.2 0.7z"/><path class="f" d="m253.4 264c0 0-3.1 4.3-4.2 5.7-1 1.3-6.3 9.9-7 15.6q-0.2 0.9-0.3 1.6c2.3 15 2 42.5 1.9 47.2h-7.3c0-5.3-0.6-53.8-0.9-55.3-0.2-1.6-3.2-7.5-7.9-10-4.6-2.4-8.7-10.6-8.7-10.6h1.5c0 0 2.8 5 6.7 7.8q0.9 0.5 1.8 1c0-3 0.5-6 1.5-8.8l0.8 0.8c-1.1 4.4-0.9 7.3-0.6 8.9q2.3 1 4.1 2.7c4-5.3 6.3-17.4 6.3-17.4l1.1 0.6q-0.5 3.7-1.4 7.4c-0.8 3.1-3 9-4.1 11.7q1.9 2.7 3.1 5.8 0.2-0.3 0.4-0.5c2.6-2.4 7.6-13.7 7.6-13.7 1.2-2.6-0.6-9.5-0.6-9.5h1.4l0.6 6 3.5-3.8 0.6 0.5-3.6 4.8-1.9 6 4.9-5.5z"/><path class="f" d="m157.6 300.7c0.2-0.7 0.4-1.6-0.3-2.1-1.1-0.8-1.6-2.1-1.1-3.2 0.4-1.2-0.6-2.7-2-2-1.4 0.8-0.6-1.1-1.9-2-1.2-0.9-2.7-0.2-2.7 1 0.1 1.1-1.5 1.3-2.8-0.1-1.4-1.4-3.7-0.4-3.8 0.9 0 1.4-0.4 1.4-1.2 0.7-0.8-0.6-3.9 2.4-4.5 3.4z"/><path fill-rule="evenodd" class="g" d="m167.2 271.3q-0.3 0.4-0.8 0.5c-1.5 0.6 0.5 2.5-0.2 2.7-1 0.1-2.1-0.1-2.2 1.1q0 0.3-0.1 0.6c-0.2 0.7-0.6 0.9-1.6 0.5-0.6-0.3-0.8-0.7-1.5-0.6-0.5 0.1-0.8 0.4-1.4 0.4q-0.1 0-0.2-0.1-0.1-0.1-0.2-0.2c-0.5-0.7-0.8-0.4-1.6-0.4q-0.1 0-0.2-0.1-0.1 0-0.1-0.2 0-0.3 0.1-0.5 0-0.2 0-0.4c-0.1-0.1-0.2-0.1-0.4-0.2q0-0.1-0.1-0.1c-0.2-0.2-0.4-0.5-0.4-0.7-0.8 0-1.5 0.1-1.5 1q0 0.3-0.1 0.6c-0.2 0.7-0.7 1-1.6 0.5-0.6-0.3-0.8-0.7-1.5-0.6-0.5 0.1-0.9 0.4-1.4 0.4q-0.1 0-0.2-0.1-0.1 0-0.2-0.1c-0.5-0.7-0.9-0.5-1.7-0.5q-0.1 0-0.1 0-0.1-0.1-0.1-0.2 0-0.3 0-0.6 0.1-0.2 0.1-0.3c-0.1-0.2-0.2-0.2-0.4-0.3q-0.1 0-0.1-0.1-0.2-0.1-0.3-0.4-0.4 0.2-1.1-0.2c-0.6-0.3-0.8-0.6-1.5-0.5-0.5 0-0.8 0.4-1.4 0.3q-0.1 0-0.2 0-0.1-0.1-0.2-0.2 0 0 0 0 0 0.1 0.1 0.3 0.5 0 0.9 0.2c0.3 0.2 0.4 0.5 0.3 0.8q-0.3 0.3-0.6 0.4c-1.2 0.5 0.4 2-0.2 2.1-0.8 0.1-1.7 0-1.7 0.9q-0.1 0.3-0.1 0.5c-0.2 0.5-0.5 0.7-1.3 0.3-0.5-0.2-0.6-0.5-1.1-0.4-0.4 0-0.7 0.3-1.2 0.3q-0.1 0-0.1-0.1-0.1 0-0.2-0.1c-0.3-0.6-0.7-0.3-1.3-0.4q0 0 0 0c-0.1 0-0.2-0.1-0.2-0.1q0-0.3 0.1-0.5 0-0.1 0-0.3c-0.1-0.1-0.2-0.1-0.3-0.2q0 0-0.1 0c-0.3-0.2-0.4-0.5-0.3-0.8q-0.2-0.1-0.5-0.1c-0.5 0.1-0.9 0.4-1.4 0.4q-0.2 0-0.3-0.1-0.1 0-0.1-0.1c-0.5-0.7-0.9-0.5-1.7-0.5q-0.1 0-0.2 0 0-0.1 0-0.2-0.1-0.3 0-0.6 0.1-0.2 0-0.3c0-0.2-0.2-0.2-0.3-0.3q-0.1 0-0.1-0.1c-0.5-0.4-0.6-1-0.2-1.5 0.1-0.2 0.3-0.4 0.3-0.6-0.1-0.3-0.4-0.3-0.6-0.4-0.6-0.3-0.5-1.4-0.1-1.8 0.3-0.2 0.6-0.4 0.5-0.7-0.1-0.3-0.4-0.4-0.6-0.6-0.4-0.4 0-1 0.4-1.3 0.4-0.4 0.9-0.6 1.1-1.1q0.1-0.2 0.2-0.4c0.2-0.4 0.8-0.2 1.2 0.1q0.2 0.2 0.4 0.3 0.1-0.4 0.3-0.6c0.3-0.2 0.6-0.5 0.5-0.8-0.1-0.2-0.4-0.3-0.6-0.5-0.4-0.4 0-1 0.4-1.4 0.4-0.3 1-0.5 1.1-1q0.1-0.3 0.2-0.4c0.3-0.4 0.8-0.2 1.2 0.1 0.4 0.3 1 0.5 1.2 0.1 0.2-0.2 0.1-0.5 0.2-0.7 0.3-0.4 0.9-0.2 1.2 0.1 0.4 0.2 0.7 0.6 1.1 0.5q-0.1 0-0.3-0.1c-0.5-0.3-0.5-1.4 0-1.7 0.2-0.2 0.5-0.5 0.4-0.8-0.1-0.3-0.4-0.3-0.6-0.5-0.3-0.4 0-1.1 0.4-1.4 0.5-0.3 1-0.6 1.2-1.1q0-0.2 0.1-0.4c0.3-0.4 0.9-0.1 1.3 0.1 0.3 0.3 0.9 0.6 1.2 0.2 0.1-0.2 0-0.6 0.2-0.8 0.2-0.4 0.8-0.2 1.1 0.1 0.4 0.3 0.8 0.6 1.2 0.6 0.4-0.1 0.6-0.6 1-0.6 0.4 0 0.7 0.4 0.8 0.8q0.1 0.6 0.3 1.1c0.3-0.2 0.6-0.4 0.7-0.7q0-0.2 0.1-0.4c0.3-0.4 0.9-0.2 1.2 0.1 0.4 0.3 1 0.5 1.3 0.2 0.1-0.3 0-0.6 0.2-0.8 0.2-0.4 0.8-0.2 1.1 0.1 0.4 0.3 0.8 0.6 1.2 0.5 0.4 0 0.6-0.5 1-0.5 0.4-0.1 0.7 0.3 0.8 0.7q0.1 0.7 0.3 1.2c0.6-0.1 1.4-0.1 1.5 0.5 0.1 0.2 0 0.5-0.2 0.7q0.1 0.1 0.2 0.1c0.4 0.3 0.8 0.7 1.2 0.6 0.4-0.1 0.5-0.5 1-0.6 0.4 0 0.7 0.4 0.8 0.8q0.1 0.6 0.3 1.2c0.6-0.2 1.4-0.1 1.5 0.4 0.1 0.4-0.2 0.8-0.4 1.1-0.3 0.3-0.5 0.7-0.2 1q0.6 0 1.1 0.3c0.4 0.3 0.5 0.7 0.4 1.1q-0.3 0.4-0.8 0.5c-0.8 0.3-0.6 1.1-0.3 1.7q0 0 0.1 0c0.4-0.1 0.6-0.5 1-0.5 0.4-0.1 0.7 0.3 0.8 0.7q0.1 0.6 0.3 1.2c0.6-0.1 1.4-0.1 1.5 0.5 0.1 0.4-0.2 0.7-0.4 1-0.3 0.3-0.5 0.8-0.2 1.1q0.6 0 1.1 0.3c0.4 0.2 0.5 0.6 0.4 1zm-10.4 1.1q0.1-0.1 0-0.2 0-0.2-0.1-0.2 0 0.2 0.1 0.4z"/><path class="f" d="m158.9 272.8c0-0.1-2 2.8-2.7 3.7-0.6 0.9-4.1 6.5-4.6 10.2q0 0.6-0.1 1c1.5 9.8 1.2 27.8 1.2 30.9h-4.7c-0.1-3.5-0.5-35.2-0.6-36.2-0.2-1-2.2-4.9-5.2-6.5-3-1.6-5.7-6.9-5.7-6.9h1c0 0 1.8 3.3 4.4 5.1q0.5 0.3 1.1 0.6c0-1.9 0.4-3.9 1-5.7l0.6 0.5c-0.7 2.9-0.7 4.8-0.4 5.8q1.4 0.7 2.6 1.8c2.7-3.5 4.2-11.4 4.2-11.4l0.6 0.4q-0.3 2.5-0.9 4.9c-0.5 2-1.9 5.8-2.6 7.6q1.2 1.7 2 3.7 0.1-0.1 0.2-0.3c1.8-1.5 5-8.9 5-8.9 0.8-1.7-0.4-6.2-0.4-6.2h0.9l0.4 3.9 2.3-2.5 0.4 0.4-2.4 3.1-1.2 3.9 3.2-3.6z"/><path class="g" d="m20.2 337.7c0 0 46.4-48.1 112.2-40.8 65.9 7.2 159.9 27.2 163.4 23.7 3.5-3.5 89-21 109.7-18.8 20.7 2.3 84 35.8 84 35.8z"/><path class="b" d="m451.1 315c2.4-1.1 4.8-2.2 6.9-3.9 2-1.7 3.6-4.2 3.7-6.8-5.3 1.2-10.1 4.7-12.9 9.3 1-6.1 0.9-12.5-0.4-18.6-2.2 2.4-3.5 5.7-3.7 9-0.3 3.3 0.4 6.6 1.7 9.7-2.8-3.7-6.1-7-9.9-9.6 1.8 6.1 5.4 11 10.9 14.2l1.2 0.2c4.9 0.9 9.3-0.6 12.5-2.2 1.4-0.6 3.2-1.7 3-2.2-4.4-0.1-8.7 0.2-13 0.9z"/><path class="d" d="m461 145.1c-1.5-1.1-3.6-1.2-5.2-0.3-2.1-4.2-7.9-6.1-12-3.9-1.1-4.5-5.6-8-10.2-7.9-4.7 0-9.1 3.6-10.1 8.2-0.1 0.7-0.2 1.5-0.8 2-0.8 0.9-2.2 0.6-3.4 0.5-3.8-0.3-7.6 2.4-8.6 6l52.1-0.2c0.4-1.7-0.4-3.3-1.8-4.4z"/><path class="d" d="m436.2 53.8c-1.5-1.1-3.6-1.2-5.1-0.3-2.1-4.2-7.9-6.1-12.1-3.9-1.1-4.5-5.6-8-10.2-7.9-4.7 0-9.1 3.6-10.1 8.2-0.1 0.7-0.2 1.5-0.7 2-0.9 0.9-2.3 0.6-3.5 0.5-3.8-0.3-7.6 2.4-8.6 6l52.1-0.2c0.4-1.7-0.3-3.3-1.8-4.4z"/><path class="d" d="m125.3 55.2c-2.4-1.5-5.7-1.6-8.3-0.4-3.3-5.8-12.6-8.4-19.2-5.3-1.7-6.3-8.9-11.1-16.4-11.1-7.4 0.1-14.4 5.1-16 11.4-0.2 1-0.4 2.1-1.2 2.9-1.4 1.2-3.6 0.8-5.5 0.6-6.1-0.4-12.2 3.3-13.8 8.4l83.2-0.3c0.7-2.5-0.5-4.6-2.8-6.2z"/><path class="g" d="m420.8 104c-2.6-2-6.4-2.2-9.3-0.5-3.8-7.7-14.3-11.1-21.8-7-2-8.3-10.1-14.6-18.6-14.5-8.5 0.1-16.4 6.6-18.2 14.9-0.3 1.3-0.5 2.8-1.4 3.7-1.5 1.6-4.1 1.1-6.3 0.9-6.8-0.5-13.7 4.3-15.6 10.9l94.5-0.3c0.8-3.2-0.6-6.1-3.3-8.1z"/><path class="c" d="m163.1 110.9c-1.7-1.2-4.1-1.4-5.8-0.3-2.4-4.8-9-6.9-13.7-4.4-1.2-5.1-6.3-9.1-11.6-9-5.3 0.1-10.2 4.1-11.3 9.3-0.2 0.8-0.3 1.7-0.9 2.3-1 1-2.6 0.7-3.9 0.6-4.3-0.4-8.6 2.6-9.8 6.8l59-0.2c0.5-2-0.4-3.8-2-5.1z"/><path fill-rule="evenodd" class="h" d="m219.1 467.5c-4.1-5.4-9.3-10-15.3-13.2"/><path fill-rule="evenodd" class="h" d="m221.7 466.7c-1.4-4.8-3.8-9.2-7.1-13"/><path fill-rule="evenodd" class="h" d="m224.6 467.5q-1.3-8.2-2.6-16.3"/><path fill-rule="evenodd" class="h" d="m472.7 423.7c-4-5.4-9.3-9.9-15.2-13.2"/><path fill-rule="evenodd" class="h" d="m475.4 422.9c-1.4-4.7-3.8-9.2-7.1-12.9"/><path fill-rule="evenodd" class="h" d="m478.3 423.7q-1.3-8.1-2.6-16.2"/><path fill-rule="evenodd" class="h" d="m37.1 451.3c-2.4-3.2-5.5-5.9-9-7.8"/><path fill-rule="evenodd" class="h" d="m38.7 450.8c-0.9-2.8-2.3-5.4-4.2-7.6"/><path fill-rule="evenodd" class="h" d="m40.4 451.3q-0.8-4.8-1.6-9.6"/><path fill-rule="evenodd" class="h" d="m40.7 370.4c-2.4-3.2-5.5-5.8-9-7.8"/><path fill-rule="evenodd" class="h" d="m42.3 370c-0.8-2.8-2.3-5.5-4.2-7.7"/><path fill-rule="evenodd" class="h" d="m44 370.4q-0.8-4.8-1.6-9.5"/><filter id="f0"><feFlood flood-color="#000000" flood-opacity=".23" /><feBlend mode="normal" in2="SourceGraphic"/><feComposite in2="SourceAlpha" operator="in" /></filter><g filter="url(#f0)"><path class="d" d="m463.7 357.6c0 3.4-93.5 6.1-208.9 6.1-115.3 0-208.8-2.7-208.8-6.1 0-3.4 93.5-6.1 208.8-6.1 115.4 0 208.9 2.7 208.9 6.1z"/></g><path  d="m209.3 357.6c0 0 14.1 0 19.9-0.1 7.1-0.2 14.2-2.8 19.6-11 9.6-14.9 9.6-38.9 0-53.8-4.9-7.4-14.2-11.1-20.5-11.1-6.3 0-18.9 0-18.9 0-9.6 14.8-9.8 61.1-0.1 76z"/><path class="i" d="m209.4 357.6c-13.6 0-24.7-17-24.7-38 0-21 11.1-38 24.7-38 13.7 0 24.8 17 24.8 38 0 21-11.1 38-24.8 38z"/><path class="j" d="m209.4 342.9c-8.3 0-15.1-10.4-15.1-23.3 0-12.9 6.8-23.3 15.1-23.3 8.4 0 15.2 10.4 15.2 23.3 0 12.9-6.8 23.3-15.2 23.3z"/><g style="opacity:.3"><path class="e" d="m208.2 300.5v11.9c0 1.1 0.6 1.9 1.2 1.9h0.1c0.6 0 1.2-0.8 1.2-1.9v-11.9c0-1-0.6-1.9-1.2-1.9h-0.1c-0.6 0-1.2 0.9-1.2 1.9z"/></g><g style="opacity:.3"><path class="e" d="m208.2 326.7v12c0 1 0.6 1.8 1.2 1.8h0.1c0.6 0 1.2-0.8 1.2-1.8v-12c0-1-0.6-1.8-1.2-1.8h-0.1c-0.6 0-1.2 0.8-1.2 1.8z"/></g><g style="opacity:.3"><path class="e" d="m204.8 317.6c0.6 0.5 1.3 0.2 1.7-0.7 0.3-0.8 0.1-2-0.5-2.5l-6.7-6q0 0 0 0c-0.6-0.5-1.3-0.2-1.7 0.7q0 0 0 0c-0.3 0.9-0.1 2 0.5 2.5l6.7 6q0 0 0 0z"/></g><g style="opacity:.3"><path class="e" d="m221.3 330q0 0 0 0c0.3-0.9 0.1-2-0.5-2.5l-6.7-6c-0.6-0.5-1.3-0.2-1.7 0.7-0.3 0.8-0.1 2 0.5 2.5l6.7 6c0.6 0.5 1.3 0.2 1.7-0.7z"/></g><g style="opacity:.3"><path class="e" d="m197.6 330.1c0.4 0.9 1.1 1.2 1.7 0.7l6.7-6c0.6-0.6 0.8-1.7 0.5-2.6-0.4-0.9-1.1-1.2-1.7-0.7l-6.7 6q0 0 0 0c-0.6 0.5-0.8 1.7-0.5 2.6q0 0 0 0z"/></g><g style="opacity:.3"><path class="e" d="m212.4 317c0.4 0.8 1.1 1.1 1.7 0.6l6.7-6q0 0 0 0c0.6-0.5 0.8-1.6 0.5-2.5-0.4-0.9-1.1-1.2-1.7-0.7l-6.7 6q0 0 0 0c-0.6 0.5-0.8 1.7-0.5 2.5q0 0.1 0 0.1z"/></g><path class="i" d="m209.4 316.5c-1.1 0-2 1.4-2 3.1 0 1.7 0.9 3.1 2 3.1 1.2 0 2.1-1.4 2.1-3.1 0-1.7-0.9-3.1-2.1-3.1z"/><path class="k" d="m209.4 357.6c-13.6 0-24.7-17-24.7-38 0-21 11.1-38 24.7-38 13.7 0 24.8 17 24.8 38 0 21-11.1 38-24.8 38z"/><path class="l" d="m284.7 336.1c0 0 5.3-58.9-31.4-58.9 0 0-20.1 0.2-23.3 27.7-3.2 27.5-1.2 31.2-1.2 31.2z"/><path class="k" d="m284.7 336.1c0 0 5.3-58.9-31.4-58.9 0 0-20.1 0.2-23.3 27.7-3.2 27.5-1.2 31.2-1.2 31.2z"/><path class="l" d="m116.7 338.4c0 0 5.9-62.8-32.5-70.2 0 0-21.7 0.2-25.2 31.8-3.4 31.5 11.7 37 11.7 37z"/><path class="k" d="m116.7 338.4c0 0 5.9-62.8-32.5-70.2 0 0-21.7 0.2-25.2 31.8-3.4 31.5 11.7 37 11.7 37z"/><path  d="m83.1 355.9c0 0 13.1 0 18.6-0.2 6.5-0.1 13.1-2.8 18.1-11 9-14.8 9-38.8 0-53.7-4.5-7.4-13.1-11.1-19-11.1-5.9 0-17.5 0-17.5 0-9 14.8-9.1 61.1-0.2 76z"/><path class="i" d="m83.3 355.9c-12.7 0-23-17-23-38 0-21 10.3-38 23-38 12.7 0 23 17 23 38 0 21-10.3 38-23 38z"/><path class="j" d="m73.3 334.3c5.5 9.1 14.5 9.1 20 0 5.5-9 5.5-23.8 0-32.9-5.5-9.1-14.5-9.1-20 0-5.5 9.1-5.5 23.9 0 32.9z"/><g style="opacity:.3"><path class="e" d="m82.2 298.8v11.9c0 1.1 0.5 1.9 1.1 1.9 0.6 0 1.1-0.8 1.1-1.9v-11.9c0-1-0.5-1.9-1.1-1.9-0.6 0-1.1 0.9-1.1 1.9z"/></g><g style="opacity:.3"><path class="e" d="m82.2 325v12c0 1 0.5 1.8 1.1 1.8 0.6 0 1.1-0.8 1.1-1.8v-12c0-1-0.5-1.8-1.1-1.8-0.6 0-1.1 0.8-1.1 1.8z"/></g><g style="opacity:.3"><path class="e" d="m79 315.9c0.5 0.5 1.2 0.2 1.5-0.7 0.3-0.9 0.2-2-0.4-2.5l-6.2-6q0 0 0 0c-0.6-0.5-1.3-0.2-1.6 0.7q0 0 0 0c-0.3 0.9-0.1 2 0.4 2.5l6.3 6q0 0 0 0z"/></g><g style="opacity:.3"><path class="e" d="m94.3 328.3q0 0 0 0c0.3-0.9 0.1-2-0.4-2.5l-6.3-6c-0.5-0.6-1.2-0.3-1.5 0.6-0.3 0.9-0.2 2.1 0.4 2.6l6.2 6c0.6 0.5 1.3 0.2 1.6-0.7z"/></g><g style="opacity:.3"><path class="e" d="m72.3 328.4c0.3 0.8 1 1.2 1.6 0.6l6.2-6c0.6-0.5 0.7-1.6 0.4-2.5-0.3-0.9-1-1.2-1.5-0.7l-6.3 6q0 0 0 0c-0.5 0.5-0.7 1.7-0.4 2.6q0 0 0 0z"/></g><g style="opacity:.3"><path class="e" d="m86.1 315.2c0.3 0.9 1 1.2 1.5 0.7l6.3-6q0 0 0 0c0.5-0.5 0.7-1.6 0.4-2.5-0.3-0.9-1-1.2-1.6-0.7l-6.2 6q0 0 0 0c-0.6 0.5-0.7 1.6-0.4 2.5q0 0 0 0z"/></g><path class="i" d="m83.3 314.7c-1 0-1.9 1.4-1.9 3.2 0 1.7 0.9 3.1 1.9 3.1 1 0 1.9-1.4 1.9-3.1 0-1.8-0.9-3.2-1.9-3.2z"/><path  d="m254.5 357.6c0 0 14.1 0 20-0.1 7-0.2 14.2-2.8 19.5-11 9.7-14.9 9.7-38.9 0-53.8-4.8-7.4-14.1-11.1-20.5-11.1-6.3 0-18.8 0-18.8 0-9.7 14.8-9.9 61.1-0.2 76z"/><path class="i" d="m254.7 357.6c-13.7 0-24.7-17-24.7-38 0-21 11-38 24.7-38 13.7 0 24.7 17 24.7 38 0 21-11 38-24.7 38z"/><path class="j" d="m244 336.1c5.9 9.1 15.5 9.1 21.4 0 5.9-9.1 5.9-23.9 0-33-5.9-9.1-15.5-9.1-21.4 0-5.9 9.1-5.9 23.9 0 33z"/><g style="opacity:.3"><path class="e" d="m253.5 300.5v11.9c0 1.1 0.5 1.9 1.2 1.9 0.7 0 1.2-0.8 1.2-1.9v-11.9c0-1-0.5-1.9-1.2-1.9-0.7 0-1.2 0.9-1.2 1.9z"/></g><g style="opacity:.3"><path class="e" d="m253.5 326.7v12c0 1 0.5 1.8 1.2 1.8 0.7 0 1.2-0.8 1.2-1.8v-12c0-1-0.5-1.8-1.2-1.8-0.7 0-1.2 0.8-1.2 1.8z"/></g><g style="opacity:.3"><path class="e" d="m250.1 317.6c0.5 0.5 1.3 0.2 1.6-0.7 0.3-0.8 0.1-2-0.4-2.5l-6.8-6q0 0 0 0c-0.5-0.5-1.3-0.2-1.6 0.7q0 0 0 0c-0.4 0.9-0.2 2 0.4 2.5l6.8 6q0 0 0 0z"/></g><g style="opacity:.3"><path class="e" d="m266.5 330q0 0 0 0c0.3-0.9 0.1-2-0.4-2.5l-6.8-6c-0.5-0.5-1.3-0.2-1.6 0.7-0.4 0.8-0.2 2 0.4 2.5l6.7 6c0.6 0.5 1.4 0.2 1.7-0.7z"/></g><g style="opacity:.3"><path class="e" d="m242.9 330.1c0.3 0.9 1.1 1.2 1.6 0.7l6.8-6c0.6-0.6 0.7-1.7 0.4-2.6-0.3-0.9-1.1-1.2-1.6-0.7l-6.8 6q0 0 0 0c-0.6 0.5-0.8 1.7-0.4 2.6q0 0 0 0z"/></g><g style="opacity:.3"><path class="e" d="m257.7 317c0.3 0.8 1.1 1.1 1.6 0.6l6.8-6q0 0 0 0c0.5-0.5 0.7-1.6 0.4-2.5-0.3-0.9-1.1-1.2-1.7-0.7l-6.7 6q0 0 0 0c-0.6 0.5-0.8 1.7-0.4 2.5q0 0.1 0 0.1z"/></g><path class="i" d="m254.7 316.5c-1.1 0-2 1.4-2 3.1 0 1.7 0.9 3.1 2 3.1 1.1 0 2-1.4 2-3.1 0-1.7-0.9-3.1-2-3.1z"/><path  d="m409.3 357.6c0 0 14.1 0 19.9-0.1 7.1-0.2 14.2-2.8 19.6-11 9.6-14.9 9.6-38.9 0-53.8-4.9-7.4-14.2-11.1-20.5-11.1-6.3 0-18.9 0-18.9 0-9.6 14.8-9.8 61.1-0.1 76z"/><path class="i" d="m409.4 357.6c-13.6 0-24.7-17-24.7-38 0-21 11.1-38 24.7-38 13.7 0 24.8 17 24.8 38 0 21-11.1 38-24.8 38z"/><path class="k" d="m409.4 357.6c-13.6 0-24.7-17-24.7-38 0-21 11.1-38 24.7-38 13.7 0 24.8 17 24.8 38 0 21-11.1 38-24.8 38z"/><path class="j" d="m409.4 342.9c-8.3 0-15.1-10.4-15.1-23.3 0-12.9 6.8-23.3 15.1-23.3 8.4 0 15.2 10.4 15.2 23.3 0 12.9-6.8 23.3-15.2 23.3z"/><g style="opacity:.3"><path class="e" d="m408.2 300.5v11.9c0 1.1 0.6 1.9 1.2 1.9h0.1c0.6 0 1.2-0.8 1.2-1.9v-11.9c0-1-0.6-1.9-1.2-1.9h-0.1c-0.6 0-1.2 0.9-1.2 1.9z"/></g><g style="opacity:.3"><path class="e" d="m408.2 326.7v12c0 1 0.6 1.8 1.2 1.8h0.1c0.6 0 1.2-0.8 1.2-1.8v-12c0-1-0.6-1.8-1.2-1.8h-0.1c-0.6 0-1.2 0.8-1.2 1.8z"/></g><g style="opacity:.3"><path class="e" d="m404.8 317.6c0.6 0.5 1.3 0.2 1.7-0.7 0.3-0.8 0.1-2-0.5-2.5l-6.7-6q0 0 0 0c-0.6-0.5-1.3-0.2-1.7 0.7q0 0 0 0c-0.3 0.9-0.1 2 0.5 2.5l6.7 6q0 0 0 0z"/></g><g style="opacity:.3"><path class="e" d="m421.3 330q0 0 0 0c0.3-0.9 0.1-2-0.5-2.5l-6.7-6c-0.6-0.5-1.3-0.2-1.7 0.7-0.3 0.8-0.1 2 0.5 2.5l6.7 6c0.6 0.5 1.3 0.2 1.7-0.7z"/></g><g style="opacity:.3"><path class="e" d="m397.6 330.1c0.4 0.9 1.1 1.2 1.7 0.7l6.7-6c0.6-0.6 0.8-1.7 0.5-2.6-0.4-0.9-1.1-1.2-1.7-0.7l-6.7 6q0 0 0 0c-0.6 0.5-0.8 1.7-0.5 2.6q0 0 0 0z"/></g><g style="opacity:.3"><path class="e" d="m412.4 317c0.4 0.8 1.1 1.1 1.7 0.6l6.7-6q0 0 0 0c0.6-0.5 0.8-1.6 0.5-2.5-0.4-0.9-1.1-1.2-1.7-0.7l-6.7 6q0 0 0 0c-0.6 0.5-0.8 1.7-0.5 2.5q0 0.1 0 0.1z"/></g><path class="i" d="m409.4 316.5c-1.1 0-2 1.4-2 3.1 0 1.7 0.9 3.1 2 3.1 1.2 0 2.1-1.4 2.1-3.1 0-1.7-0.9-3.1-2.1-3.1z"/><path class="l" d="m55.5 270.3c2.1-11.4 5.6-29.7 7.4-31.9 1.8-2.1 11-2.8 11-2.8 9.5-10.6 39.9-28.6 55.5-36.4 15.5-7.8 27.6-9.6 86.6-13.1 59.1-3.6 94.1 4.9 94.1 4.9 30.1 3.2 79.9 46 79.9 46 28.3 5.3 47.4 19.8 47.4 19.8 0 0 15.3 2.1 22 9.6 6.7 7.4 7.4 15.9 7.4 15.9 0 0 3.9 0 6 3.2 2.1 3.2 1.1 25.1 0 36-1 11-9.5 16-9.5 16l-171.8-1.1c-3.6 0-6.5-3-6.5-6.6 0.1-15.4-2.6-52.3-31.7-52.3 0 0-20.1 0.3-23.3 27.7-2.8 23.6-1.6 29.6-1.3 30.9l-119.1 1.4-0.7-0.2c0.4-7.5 3.5-42.8-14.5-55.7-5.4-3.8-14.6-4.3-20.2-0.7-5.7 3.5-12.2 10.9-13.7 25.9-0.8 5.7-0.8 10.9-0.5 17.9l-4.5-2.4c-0.7-4.3-2.2-40.7 0-52z"/><path class="i" d="m450.3 278.6c0.9 1.2 9.4 13.2 9.4 13.2 2.2 1.2-7.1 7.9-7.1 6.8h-73l-19.7-6.7c0.6-1.6 8.3-12.4 14.7-13.3 6.4-0.9 75.7 0 75.7 0z"/><path fill-rule="evenodd" class="m" d="m156 236.5c0 0-7 4.8-7.4 11.4-0.3 6.6 1.6 39.5 1.8 46.6 0.3 12.1 1.9 33.7 1.9 33.7"/><path fill-rule="evenodd" class="m" d="m234.3 239.1c0 0-9.5 3.1-11.8 13.7-1.8 8.3 0.4 77.9-0.2 78.3l-108.7-4.4-1.9-16.5c-6.5-30.4-20.8-33.9-22.2-37.5-1.4-3.6-3.2-32.1-2.9-35.6 0.4-3.5 14-12.4 15.2-13.8"/><path class="i" d="m379.6 236h-130c0 0-33.1-31.1-42.7-40.9 12-1.8 82.5-3.1 104.2 0 0 0 37.2 6.6 68.5 40.9z"/><path class="i" d="m234.7 236c0 0-34.5-35-41.6-38-7.1-3.1-30.9-1.3-40.6 0-9.6 1.2-44.6 16.5-50.7 25.3 0 0 5.6 8.1 15.5 10.7 9.9 2.5 7.3 0.7 28.1 2 20.8 1.3 89.3 3.3 89.3 3.3z"/><path fill-rule="evenodd" class="m" d="m437.4 256.5c0 0 14.4 11 12.9 22.1"/><path class="n" d="m466.8 282c-0.8 1.1-1.5 7.6-7.6 7.7l-6.6-8.2c0 0 3-12.6 1.2-19.7 0 0 5.9 3.7 8 7.4 2.2 3.7 5 12.8 5 12.8z"/><path class="k" d="m299.3 259.8c0 0-10.3-10.3-48.2-18.1l-16.4-2.4c-2.9 0.2-5.8 2.3-8.8 5.7-12.3 2.4-91.5-4.1-91.5-4.1 0 0 81.2 6.3 105.6 7.9 24.4 1.6 23.8 1.8 59.3 11z"/><path class="o" d="m61.5 241.9c0.3-0.1 8.8 1.1 14.5 2.6 0 0-11.3 12.6-15 13.2l-3-0.6c0 0 0.5-13.6 3.5-15.2z"/><path fill-rule="evenodd" class="m" d="m303.5 264.9c0 0 1.5-3.2-5.5-5.6-7-2.3-42.7-9.9-44.7-13.4-2-3.5-3.7-9.9-3.7-9.9"/><path class="p" d="m218.5 323.4c0 0-99.1-1.4-100.3-3.3-1.3-1.9 7.2-7.6 7.2-7.6 1.3-0.9 92.4 5.4 93.1 10.9z"/><path class="b" d="m419.2 283.3c-5.3 0-9.5-1.8-9.5-4 0-2.3 4.2-4.1 9.5-4.1 5.2 0 9.4 1.8 9.4 4.1 0 2.2-4.2 4-9.4 4z"/><path class="i" d="m455.6 319.2c0 0 7.7 3.6 7.4 3.6-0.3 0-1.8 7.9-1.8 7.9l-118.1-1.7-11.1-9.4 35.4-0.5z"/><path class="i" d="m302.2 319.6c0.4 0.6 11.1 0 11.1 0l10.9 9.2-16-0.4z"/><path class="m" d="m374.5 279.3l-12.9-1.4"/><path class="n" d="m361.6 277.2c0 0-63.5-14.2-68.4-13.7-4.9 0.5-18.4 4.4-17.4 8.1 0.9 3.7 11.3 9.3 25.1 11.5 10.9 1.8 28.7 4 40.5 4.7 14.4 0.9 20.2-10.6 20.2-10.6z"/><path class="k" d="m358.8 303.9c0 0-24.2-11.8-33.5-11.8-9.4 0-51-12.2-51-12.2 0 0 31.1 19.7 38 21.4 6.9 1.6 46.5 2.6 46.5 2.6z"/><path class="p" d="m372.2 233.2c0 0-35.1-31.8-64.4-34.8-29.3-3-47.6-2.1-47.6-2.1 0 0 8.7 22.3 24.8 26.7 16.1 4.4 87.2 10.2 87.2 10.2z"/><path class="k" d="m471.6 287.8c0 0 0.8 6.3-0.7 9.3-1.5 2.9-15.7 6.7-15.7 6.7z"/><path class="n" d="m299.8 275.3c0 4 4.3 7.1 9.5 7.1 5.3 0 9.5-3.1 9.5-7.1 0-3.9-4.2-7.1-9.5-7.1-5.2 0-9.5 3.2-9.5 7.1z"/><path class="n" d="m306.9 267.7l-13.7-1.4c0 0-4 8.6 4.1 13.6 0 0-10-3-7-13.6 0.2-0.9 0.7-1.9 2.9-1.4 0.8 0.2 13.7 2.8 13.7 2.8z"/><path class="p" d="m382 237.8c0 0 52.6 8.6 61.9 34.5 0 0-135.2-33.6-134.6-34.5 0.6-1 72.7 0 72.7 0z"/><path fill-rule="evenodd" class="q" d="m234.7 236c0 0-34.5-35-41.6-38-7.1-3.1-30.9-1.3-40.6 0-9.6 1.2-44.6 16.5-50.7 25.3 0 0 5.6 8.1 15.5 10.7 9.9 2.5 7.3 0.7 28.1 2 20.8 1.3 89.3 3.3 89.3 3.3z"/><path class="k" d="m169.6 261.4l-12.5-1c-1.2-0.1-2.1-1.1-2-2.3l0.1-2.2c0.1-1.2 1.2-2.1 2.4-2l12.6 1c1.1 0.1 2 1.2 1.9 2.4l-0.1 2.1c-0.1 1.2-1.2 2.1-2.4 2z"/><path class="k" d="m108.9 254.9l-12.6-1c-1.2-0.1-2-1.1-2-2.3l0.2-2.2c0.1-1.2 1.2-2 2.4-2l12.5 1c1.2 0.1 2.1 1.2 2 2.4l-0.1 2.1c-0.1 1.2-1.2 2.1-2.4 2z"/><path  d="m160.5 197.1c-0.7 0.1-8.2 39.4-8.2 39.4h10.9l5.1-39.9c0 0-7.2 0.5-7.8 0.5z"/><path  d="m223.1 224.5l-5.8 14 17.4 0.8v-3.6z"/><path class="r" d="m198.2 228.8q0.1-0.2 0.2-0.4c2.3-3.1 12.4-7.1 22.1-3.8 7 2.3 5.8 10.6 4.6 14.9-0.6 2.1-2.4 3.6-4.5 3.9-5.8 0.9-16.4 0.1-19.2-1.4q-0.2-0.1-0.4-0.2c-4.7-2.6-6-8.7-2.8-13z"/><path class="p" d="m221.7 227.1c0 0-2.4-1.8-6.6-2-4.2-0.2-15.2 0.6-16.7 6.8-1.5 6.2 28.5-2.9 23.3-4.8z"/><path fill-rule="evenodd" class="s" d="m112.5 204.5c11.5-7 23.4-12.5 38.3-15.9"/><path class="s" d="m154.8 187.1l6.4-0.9"/></svg>